Fira Sans-Bold Italic.ufo
<glyph name="numbersign" format="1">
  <advance width="568"/>
  <unicode hex="0023"/>
  <outline>
    <contour>
      <point x="418" y="680" type="line"/>
      <point x="236" y="0" type="line"/>
      <point x="396" y="0" type="line"/>
      <point x="579" y="680" type="line"/>
    </contour>
    <contour>
      <point x="13" y="257" type="line"/>
      <point x="-5" y="131" type="line"/>
      <point x="498" y="131" type="line"/>
      <point x="516" y="257" type="line"/>
    </contour>
    <contour>
      <point x="192" y="680" type="line"/>
      <point x="10" y="0" type="line"/>
      <point x="170" y="0" type="line"/>
      <point x="353" y="680" type="line"/>
    </contour>
    <contour>
      <point x="92" y="562" type="line"/>
      <point x="75" y="436" type="line"/>
      <point x="578" y="436" type="line"/>
      <point x="595" y="562" type="line"/>
    </contour>
  </outline>
</glyph>
<glyph name="dollar" format="1">
  <advance width="550"/>
  <unicode hex="0024"/>
  <outline>
    <contour>
      <point x="172" y="-1" type="line"/>
      <point x="148" y="-165" type="line"/>
      <point x="281" y="-165" type="line"/>
      <point x="305" y="5" type="line"/>
    </contour>
    <contour>
      <point x="288" y="834" type="line"/>
      <point x="266" y="673" type="line"/>
      <point x="398" y="678" type="line"/>
      <point x="421" y="834" type="line"/>
    </contour>
    <contour>
      <point x="156" y="690"/>
      <point x="63" y="582"/>
      <point x="63" y="468" type="curve" smooth="yes"/>
      <point x="63" y="391"/>
      <point x="107" y="323"/>
      <point x="235" y="276" type="curve" smooth="yes"/>
      <point x="297" y="251"/>
      <point x="319" y="235"/>
      <point x="319" y="198" type="curve" smooth="yes"/>
      <point x="319" y="163"/>
      <point x="288" y="132"/>
      <point x="229" y="132" type="curve" smooth="yes"/>
      <point x="179" y="132"/>
      <point x="124" y="154"/>
      <point x="80" y="197" type="curve"/>
      <point x="-29" y="94" type="line"/>
      <point x="18" y="39"/>
      <point x="104" y="-9"/>
      <point x="221" y="-9" type="curve" smooth="yes"/>
      <point x="442" y="-9"/>
      <point x="522" y="116"/>
      <point x="522" y="227" type="curve" smooth="yes"/>
      <point x="522" y="320"/>
      <point x="468" y="384"/>
      <point x="361" y="424" type="curve" smooth="yes"/>
      <point x="288" y="453"/>
      <point x="267" y="467"/>
      <point x="267" y="499" type="curve" smooth="yes"/>
      <point x="267" y="529"/>
      <point x="295" y="551"/>
      <point x="348" y="551" type="curve" smooth="yes"/>
      <point x="385" y="551"/>
      <point x="427" y="537"/>
      <point x="477" y="499" type="curve"/>
      <point x="573" y="598" type="line"/>
      <point x="518" y="653"/>
      <point x="440" y="690"/>
      <point x="345" y="690" type="curve" smooth="yes"/>
    </contour>
  </outline>
</glyph>
<glyph name="percent" format="1">
  <advance width="867"/>
  <unicode hex="0025"/>
  <outline>
    <contour>
      <point x="118" y="28" type="line"/>
      <point x="222" y="-45" type="line"/>
      <point x="774" y="652" type="line"/>
      <point x="668" y="725" type="line"/>
    </contour>
    <contour>
      <point x="285" y="582"/>
      <point x="295" y="560"/>
      <point x="295" y="534" type="curve" smooth="yes"/>
      <point x="295" y="490"/>
      <point x="280" y="438"/>
      <point x="228" y="438" type="curve" smooth="yes"/>
      <point x="194" y="438"/>
      <point x="184" y="460"/>
      <point x="184" y="486" type="curve" smooth="yes"/>
      <point x="184" y="519"/>
      <point x="192" y="582"/>
      <point x="252" y="582" type="curve" smooth="yes"/>
    </contour>
    <contour>
      <point x="120" y="696"/>
      <point x="54" y="578"/>
      <point x="54" y="482" type="curve" smooth="yes"/>
      <point x="54" y="384"/>
      <point x="123" y="324"/>
      <point x="216" y="324" type="curve" smooth="yes"/>
      <point x="361" y="324"/>
      <point x="425" y="442"/>
      <point x="425" y="538" type="curve" smooth="yes"/>
      <point x="425" y="636"/>
      <point x="357" y="696"/>
      <point x="264" y="696" type="curve" smooth="yes"/>
    </contour>
    <contour>
      <point x="693" y="238"/>
      <point x="703" y="216"/>
      <point x="703" y="190" type="curve" smooth="yes"/>
      <point x="703" y="146"/>
      <point x="688" y="94"/>
      <point x="636" y="94" type="curve" smooth="yes"/>
      <point x="602" y="94"/>
      <point x="592" y="116"/>
      <point x="592" y="142" type="curve" smooth="yes"/>
      <point x="592" y="175"/>
      <point x="600" y="238"/>
      <point x="660" y="238" type="curve" smooth="yes"/>
    </contour>
    <contour>
      <point x="528" y="352"/>
      <point x="462" y="234"/>
      <point x="462" y="138" type="curve" smooth="yes"/>
      <point x="462" y="40"/>
      <point x="531" y="-20"/>
      <point x="624" y="-20" type="curve" smooth="yes"/>
      <point x="769" y="-20"/>
      <point x="833" y="98"/>
      <point x="833" y="194" type="curve" smooth="yes"/>
      <point x="833" y="292"/>
      <point x="765" y="352"/>
      <point x="672" y="352" type="curve" smooth="yes"/>
    </contour>
  </outline>
</glyph>
<glyph name="ampersand" format="1">
  <advance width="795"/>
  <unicode hex="0026"/>
  <outline>
    <contour>
      <point x="175" y="716"/>
      <point x="123" y="599"/>
      <point x="123" y="529" type="curve" smooth="yes"/>
      <point x="123" y="473.707"/>
      <point x="141.076" y="435.668"/>
      <point x="193.614" y="374.665" type="curve"/>
      <point x="84.6577" y="311.896"/>
      <point x="37" y="255.033"/>
      <point x="37" y="164" type="curve" smooth="yes"/>
      <point x="37" y="56"/>
      <point x="124" y="-20"/>
      <point x="267" y="-20" type="curve" smooth="yes"/>
      <point x="342.714" y="-20"/>
      <point x="417.532" y="-4.77249"/>
      <point x="490.606" y="44.3316" type="curve"/>
      <point x="548" y="-20" type="line"/>
      <point x="715" y="52" type="line"/>
      <point x="616.761" y="154.2" type="line"/>
      <point x="658.082" y="202.223"/>
      <point x="696.761" y="255.232"/>
      <point x="732" y="322" type="curve"/>
      <point x="581" y="371" type="line"/>
      <point x="562.941" y="324.046"/>
      <point x="545.696" y="288.506"/>
      <point x="524.85" y="254.811" type="curve"/>
      <point x="432.746" y="357.086" type="line"/>
      <point x="551.81" y="434.845"/>
      <point x="584" y="491.623"/>
      <point x="584" y="553" type="curve" smooth="yes"/>
      <point x="584" y="647"/>
      <point x="509" y="716"/>
      <point x="371" y="716" type="curve" smooth="yes"/>
    </contour>
    <contour>
      <point x="404.965" y="136.359" type="line"/>
      <point x="378.075" y="123.778"/>
      <point x="348.952" y="116"/>
      <point x="317" y="116" type="curve" smooth="yes"/>
      <point x="267" y="116"/>
      <point x="245" y="141"/>
      <point x="245" y="180" type="curve"/>
      <point x="245" y="213.046"/>
      <point x="258.613" y="237.773"/>
      <point x="289.784" y="265.362" type="curve"/>
    </contour>
    <contour>
      <point x="385" y="594"/>
      <point x="403" y="578"/>
      <point x="403" y="553" type="curve" smooth="yes"/>
      <point x="403" y="530.38"/>
      <point x="392.357" y="497.936"/>
      <point x="339.22" y="460.853" type="curve"/>
      <point x="313.679" y="491.651"/>
      <point x="305" y="509.488"/>
      <point x="305" y="534" type="curve" smooth="yes"/>
      <point x="305" y="572"/>
      <point x="328" y="594"/>
      <point x="361" y="594" type="curve" smooth="yes"/>
    </contour>
  </outline>
</glyph>
<glyph name="quotesingle" format="1">
  <advance width="238"/>
  <unicode hex="0027"/>
  <outline>
    <contour>
      <point x="201" y="406" type="line"/>
      <point x="262" y="696" type="line"/>
      <point x="96" y="696" type="line"/>
      <point x="77" y="406" type="line"/>
    </contour>
  </outline>
</glyph>
<glyph name="parenleft" format="1">
  <advance width="313"/>
  <unicode hex="0028"/>
  <outline>
    <contour>
      <point x="157" y="730"/>
      <point x="47" y="591"/>
      <point x="14" y="353" type="curve" smooth="yes"/>
      <point x="-20" y="111"/>
      <point x="55" y="-28"/>
      <point x="136" y="-166" type="curve"/>
      <point x="271" y="-88" type="line"/>
      <point x="197" y="44"/>
      <point x="184" y="182"/>
      <point x="208" y="347" type="curve" smooth="yes"/>
      <point x="231" y="516"/>
      <point x="283" y="649"/>
      <point x="394" y="781" type="curve"/>
      <point x="276" y="868" type="line"/>
    </contour>
  </outline>
</glyph>
<glyph name="parenright" format="1">
  <advance width="313"/>
  <unicode hex="0029"/>
  <outline>
    <contour>
      <point x="64" y="788" type="line"/>
      <point x="138" y="656"/>
      <point x="151" y="518"/>
      <point x="128" y="353" type="curve" smooth="yes"/>
      <point x="104" y="184"/>
      <point x="52" y="51"/>
      <point x="-58" y="-81" type="curve"/>
      <point x="59" y="-168" type="line"/>
      <point x="179" y="-30"/>
      <point x="288" y="109"/>
      <point x="322" y="347" type="curve" smooth="yes"/>
      <point x="355" y="589"/>
      <point x="280" y="728"/>
      <point x="200" y="866" type="curve"/>
    </contour>
  </outline>
</glyph>
<glyph name="plus" format="1">
  <advance width="536"/>
  <unicode hex="002B"/>
  <outline>
    <contour>
      <point x="231" y="567" type="line"/>
      <point x="210" y="407" type="line"/>
      <point x="58" y="407" type="line"/>
      <point x="37" y="257" type="line"/>
      <point x="189" y="257" type="line"/>
      <point x="166" y="97" type="line"/>
      <point x="322" y="97" type="line"/>
      <point x="345" y="257" type="line"/>
      <point x="497" y="257" type="line"/>
      <point x="518" y="407" type="line"/>
      <point x="366" y="407" type="line"/>
      <point x="388" y="567" type="line"/>
    </contour>
  </outline>
</glyph>
<glyph name="comma" format="1">
  <advance width="242"/>
  <unicode hex="002C"/>
  <outline>
    <contour>
      <point x="43" y="186"/>
      <point x="-7" y="134"/>
      <point x="-7" y="69" type="curve" smooth="yes"/>
      <point x="-7" y="40"/>
      <point x="5" y="16"/>
      <point x="28" y="0" type="curve"/>
      <point x="-43" y="-184" type="line"/>
      <point x="58" y="-184" type="line"/>
      <point x="139" y="-45" type="line" smooth="yes"/>
      <point x="179" y="27"/>
      <point x="196" y="57"/>
      <point x="196" y="97" type="curve" smooth="yes"/>
      <point x="196" y="149"/>
      <point x="159" y="186"/>
      <point x="107" y="186" type="curve" smooth="yes"/>
    </contour>
  </outline>
</glyph>
<glyph name="hyphen" format="1">
  <advance width="398"/>
  <unicode hex="002D"/>
  <outline>
    <contour>
      <point x="362" y="238" type="line"/>
      <point x="383" y="388" type="line"/>
      <point x="49" y="388" type="line"/>
      <point x="28" y="238" type="line"/>
    </contour>
  </outline>
</glyph>
<glyph name="period" format="1">
  <advance width="240"/>
  <unicode hex="002E"/>
  <outline>
    <contour>
      <point x="44" y="186"/>
      <point x="-10" y="132"/>
      <point x="-10" y="73" type="curve" smooth="yes"/>
      <point x="-10" y="21"/>
      <point x="27" y="-20"/>
      <point x="80" y="-20" type="curve" smooth="yes"/>
      <point x="140" y="-20"/>
      <point x="194" y="34"/>
      <point x="194" y="95" type="curve" smooth="yes"/>
      <point x="194" y="146"/>
      <point x="156" y="186"/>
      <point x="105" y="186" type="curve" smooth="yes"/>
    </contour>
  </outline>
</glyph>
<glyph name="slash" format="1">
  <advance width="508"/>
  <unicode hex="002F"/>
  <outline>
    <contour>
      <point x="4" y="-77" type="line"/>
      <point x="171" y="-117" type="line"/>
      <point x="528" y="782" type="line"/>
      <point x="362" y="822" type="line"/>
    </contour>
  </outline>
</glyph>
<glyph name="zero" format="1">
  <advance width="590"/>
  <unicode hex="0030"/>
  <outline>
    <contour>
      <point x="100" y="696"/>
      <point x="29" y="429"/>
      <point x="29" y="248" type="curve" smooth="yes"/>
      <point x="29" y="76"/>
      <point x="110" y="-20"/>
      <point x="259" y="-20" type="curve" smooth="yes"/>
      <point x="510" y="-20"/>
      <point x="581" y="254"/>
      <point x="581" y="432" type="curve" smooth="yes"/>
      <point x="581" y="603"/>
      <point x="499" y="696"/>
      <point x="351" y="696" type="curve" smooth="yes"/>
    </contour>
    <contour>
      <point x="372" y="553"/>
      <point x="389" y="537"/>
      <point x="389" y="475" type="curve" smooth="yes"/>
      <point x="389" y="444"/>
      <point x="384" y="401"/>
      <point x="376" y="342" type="curve" smooth="yes"/>
      <point x="351" y="165"/>
      <point x="328" y="124"/>
      <point x="273" y="124" type="curve" smooth="yes"/>
      <point x="238" y="124"/>
      <point x="222" y="144"/>
      <point x="222" y="206" type="curve" smooth="yes"/>
      <point x="222" y="237"/>
      <point x="226" y="280"/>
      <point x="234" y="336" type="curve" smooth="yes"/>
      <point x="257" y="506"/>
      <point x="282" y="553"/>
      <point x="337" y="553" type="curve" smooth="yes"/>
    </contour>
  </outline>
</glyph>
<glyph name="one" format="1">
  <advance width="470"/>
  <unicode hex="0031"/>
  <outline>
    <contour>
      <point x="291" y="680" type="line"/>
      <point x="35" y="536" type="line"/>
      <point x="101" y="398" type="line"/>
      <point x="250" y="483" type="line"/>
      <point x="182" y="0" type="line"/>
      <point x="370" y="0" type="line"/>
      <point x="465" y="680" type="line"/>
    </contour>
  </outline>
</glyph>
<glyph name="three" format="1">
  <advance width="520"/>
  <unicode hex="0033"/>
  <outline>
    <contour>
      <point x="199" y="696"/>
      <point x="116" y="663"/>
      <point x="41" y="604" type="curve"/>
      <point x="124" y="495" type="line"/>
      <point x="165" y="531"/>
      <point x="210" y="553"/>
      <point x="259" y="553" type="curve" smooth="yes"/>
      <point x="300" y="553"/>
      <point x="324" y="536"/>
      <point x="324" y="504" type="curve" smooth="yes"/>
      <point x="324" y="473"/>
      <point x="307" y="421"/>
      <point x="231" y="421" type="curve" smooth="yes"/>
      <point x="191" y="421" type="line"/>
      <point x="152" y="289" type="line"/>
      <point x="212" y="289" type="line" smooth="yes"/>
      <point x="269" y="289"/>
      <point x="295" y="270"/>
      <point x="295" y="227" type="curve" smooth="yes"/>
      <point x="295" y="161"/>
      <point x="249" y="128"/>
      <point x="195" y="128" type="curve" smooth="yes"/>
      <point x="146" y="128"/>
      <point x="111" y="146"/>
      <point x="77" y="187" type="curve"/>
      <point x="-40" y="91" type="line"/>
      <point x="5" y="25"/>
      <point x="80" y="-20"/>
      <point x="192" y="-20" type="curve" smooth="yes"/>
      <point x="425" y="-20"/>
      <point x="492" y="129"/>
      <point x="492" y="219" type="curve" smooth="yes"/>
      <point x="492" y="308"/>
      <point x="432" y="350"/>
      <point x="360" y="358" type="curve"/>
      <point x="481" y="393"/>
      <point x="515" y="473"/>
      <point x="515" y="535" type="curve" smooth="yes"/>
      <point x="515" y="629"/>
      <point x="443" y="696"/>
      <point x="299" y="696" type="curve" smooth="yes"/>
    </contour>
  </outline>
</glyph>
<glyph name="four" format="1">
  <advance width="573"/>
  <unicode hex="0034"/>
  <outline>
    <contour>
      <point x="18" y="263" type="line"/>
      <point x="0" y="134" type="line"/>
      <point x="540" y="134" type="line"/>
      <point x="560" y="280" type="line"/>
      <point x="230" y="280" type="line"/>
      <point x="418" y="641" type="line"/>
      <point x="257" y="701" type="line"/>
    </contour>
    <contour>
      <point x="346" y="428" type="line"/>
      <point x="298" y="264" type="line"/>
      <point x="263" y="0" type="line"/>
      <point x="453" y="0" type="line"/>
      <point x="513" y="428" type="line"/>
    </contour>
  </outline>
</glyph>
<glyph name="six" format="1">
  <advance width="570"/>
  <unicode hex="0036"/>
  <outline>
    <contour>
      <point x="204" y="696"/>
      <point x="64" y="542"/>
      <point x="30" y="309" type="curve" smooth="yes"/>
      <point x="26" y="281"/>
      <point x="24" y="255"/>
      <point x="24" y="230" type="curve" smooth="yes"/>
      <point x="24" y="77"/>
      <point x="100" y="-20"/>
      <point x="267" y="-20" type="curve" smooth="yes"/>
      <point x="482" y="-20"/>
      <point x="554" y="167"/>
      <point x="554" y="278" type="curve" smooth="yes"/>
      <point x="554" y="395"/>
      <point x="489" y="464"/>
      <point x="386" y="464" type="curve" smooth="yes"/>
      <point x="338" y="464"/>
      <point x="281" y="447"/>
      <point x="232" y="406" type="curve"/>
      <point x="219" y="289" type="line"/>
      <point x="252" y="319"/>
      <point x="284" y="333"/>
      <point x="310" y="333" type="curve" smooth="yes"/>
      <point x="344" y="333"/>
      <point x="359" y="318"/>
      <point x="359" y="275" type="curve" smooth="yes"/>
      <point x="359" y="224"/>
      <point x="343" y="118"/>
      <point x="275" y="118" type="curve" smooth="yes"/>
      <point x="239" y="118"/>
      <point x="224" y="139"/>
      <point x="224" y="197" type="curve" smooth="yes"/>
      <point x="224" y="230"/>
      <point x="229" y="275"/>
      <point x="238" y="334" type="curve"/>
      <point x="244" y="391" type="line"/>
      <point x="267" y="506"/>
      <point x="321" y="560"/>
      <point x="388" y="560" type="curve" smooth="yes"/>
      <point x="421" y="560"/>
      <point x="445" y="551"/>
      <point x="467" y="536" type="curve"/>
      <point x="552" y="647" type="line"/>
      <point x="518" y="675"/>
      <point x="466" y="696"/>
      <point x="397" y="696" type="curve" smooth="yes"/>
    </contour>
  </outline>
</glyph>
<glyph name="nine" format="1">
  <advance width="570"/>
  <unicode hex="0039"/>
  <outline>
    <contour>
      <point x="383" y="425" type="line"/>
      <point x="353" y="382"/>
      <point x="316" y="363"/>
      <point x="284" y="363" type="curve" smooth="yes"/>
      <point x="257" y="363"/>
      <point x="235" y="376"/>
      <point x="235" y="428" type="curve" smooth="yes"/>
      <point x="235" y="480"/>
      <point x="253" y="560"/>
      <point x="323" y="560" type="curve" smooth="yes"/>
      <point x="363" y="560"/>
      <point x="379" y="541"/>
      <point x="379" y="491" type="curve" smooth="yes"/>
      <point x="379" y="463"/>
      <point x="374" y="426"/>
      <point x="366" y="378" type="curve"/>
      <point x="345" y="292" type="line"/>
      <point x="293" y="185"/>
      <point x="215" y="142"/>
      <point x="37" y="105" type="curve"/>
      <point x="60" y="-32" type="line"/>
      <point x="482" y="31"/>
      <point x="578" y="286"/>
      <point x="578" y="477" type="curve" smooth="yes"/>
      <point x="578" y="606"/>
      <point x="492" y="696"/>
      <point x="333" y="696" type="curve" smooth="yes"/>
      <point x="122" y="696"/>
      <point x="40" y="536"/>
      <point x="40" y="416" type="curve" smooth="yes"/>
      <point x="40" y="298"/>
      <point x="112" y="229"/>
      <point x="205" y="229" type="curve" smooth="yes"/>
      <point x="267" y="229"/>
      <point x="306" y="249"/>
      <point x="350" y="289" type="curve"/>
    </contour>
  </outline>
</glyph>
<glyph name="less" format="1">
  <advance width="519"/>
  <unicode hex="003C"/>
  <outline>
    <contour>
      <point x="45" y="416" type="line"/>
      <point x="22" y="249" type="line"/>
      <point x="409" y="75" type="line"/>
      <point x="488" y="215" type="line"/>
      <point x="201" y="333" type="line"/>
      <point x="528" y="449" type="line"/>
      <point x="481" y="591" type="line"/>
    </contour>
  </outline>
</glyph>
<glyph name="at" format="1">
  <advance width="1008"/>
  <unicode hex="0040"/>
  <outline>
    <contour>
      <point x="180" y="716"/>
      <point x="28" y="404"/>
      <point x="28" y="182" type="curve" smooth="yes"/>
      <point x="28" y="-58"/>
      <point x="192" y="-227"/>
      <point x="470" y="-227" type="curve" smooth="yes"/>
      <point x="537" y="-227"/>
      <point x="635" y="-209"/>
      <point x="699" y="-184" type="curve"/>
      <point x="671" y="-51" type="line"/>
      <point x="620" y="-70"/>
      <point x="541" y="-86"/>
      <point x="487" y="-86" type="curve" smooth="yes"/>
      <point x="296" y="-86"/>
      <point x="200" y="26"/>
      <point x="200" y="188" type="curve" smooth="yes"/>
      <point x="200" y="349"/>
      <point x="270" y="577"/>
      <point x="556" y="577" type="curve" smooth="yes"/>
      <point x="730" y="577"/>
      <point x="813" y="505"/>
      <point x="813" y="368" type="curve" smooth="yes"/>
      <point x="813" y="274"/>
      <point x="786" y="116"/>
      <point x="717" y="116" type="curve" smooth="yes"/>
      <point x="694" y="116"/>
      <point x="685" y="130"/>
      <point x="689" y="161" type="curve" smooth="yes"/>
      <point x="728" y="460" type="line"/>
      <point x="679" y="490"/>
      <point x="609" y="509"/>
      <point x="553" y="509" type="curve" smooth="yes"/>
      <point x="338" y="509"/>
      <point x="275" y="305"/>
      <point x="275" y="179" type="curve" smooth="yes"/>
      <point x="275" y="79"/>
      <point x="325" y="6"/>
      <point x="442" y="6" type="curve" smooth="yes"/>
      <point x="507" y="6"/>
      <point x="555" y="41"/>
      <point x="586" y="100" type="curve"/>
      <point x="591" y="51"/>
      <point x="651" y="1"/>
      <point x="726" y="1" type="curve" smooth="yes"/>
      <point x="906" y="1"/>
      <point x="981" y="212"/>
      <point x="981" y="359" type="curve" smooth="yes"/>
      <point x="981" y="554"/>
      <point x="831" y="716"/>
      <point x="572" y="716" type="curve" smooth="yes"/>
    </contour>
    <contour>
      <point x="457" y="125"/>
      <point x="445" y="134"/>
      <point x="445" y="167" type="curve" smooth="yes"/>
      <point x="445" y="246"/>
      <point x="463" y="389"/>
      <point x="530" y="389" type="curve" smooth="yes"/>
      <point x="539" y="389"/>
      <point x="546" y="389"/>
      <point x="556" y="384" type="curve"/>
      <point x="523" y="154" type="line"/>
      <point x="511" y="136"/>
      <point x="495" y="125"/>
      <point x="477" y="125" type="curve" smooth="yes"/>
    </contour>
  </outline>
</glyph>
<glyph name="B" format="1">
  <advance width="610"/>
  <unicode hex="0042"/>
  <outline>
    <contour>
      <point x="103" y="696" type="line"/>
      <point x="6" y="0" type="line"/>
      <point x="246" y="0" type="line" smooth="yes"/>
      <point x="505" y="0"/>
      <point x="589" y="100"/>
      <point x="589" y="221" type="curve" smooth="yes"/>
      <point x="589" y="321"/>
      <point x="523" y="354"/>
      <point x="453" y="368" type="curve"/>
      <point x="527" y="387"/>
      <point x="604" y="433"/>
      <point x="604" y="535" type="curve" smooth="yes"/>
      <point x="604" y="657"/>
      <point x="491" y="696"/>
      <point x="314" y="696" type="curve" smooth="yes"/>
    </contour>
    <contour>
      <point x="374" y="555"/>
      <point x="395" y="540"/>
      <point x="395" y="509" type="curve" smooth="yes"/>
      <point x="395" y="474"/>
      <point x="386" y="427"/>
      <point x="301" y="427" type="curve" smooth="yes"/>
      <point x="252" y="427" type="line"/>
      <point x="233" y="297" type="line"/>
      <point x="297" y="297" type="line" smooth="yes"/>
      <point x="352" y="297"/>
      <point x="382" y="279"/>
      <point x="382" y="239" type="curve" smooth="yes"/>
      <point x="382" y="186"/>
      <point x="362" y="145"/>
      <point x="266" y="145" type="curve" smooth="yes"/>
      <point x="227" y="145" type="line"/>
      <point x="284" y="555" type="line"/>
      <point x="315" y="555" type="line" smooth="yes"/>
    </contour>
  </outline>
</glyph>
<glyph name="C" format="1">
  <advance width="571"/>
  <unicode hex="0043"/>
  <outline>
    <contour>
      <point x="122" y="716"/>
      <point x="25" y="464"/>
      <point x="25" y="270" type="curve" smooth="yes"/>
      <point x="25" y="81"/>
      <point x="132" y="-20"/>
      <point x="308" y="-20" type="curve" smooth="yes"/>
      <point x="403" y="-20"/>
      <point x="488" y="25"/>
      <point x="545" y="76" type="curve"/>
      <point x="471" y="194" type="line"/>
      <point x="427" y="162"/>
      <point x="386" y="135"/>
      <point x="337" y="135" type="curve" smooth="yes"/>
      <point x="271" y="135"/>
      <point x="234" y="179"/>
      <point x="234" y="274" type="curve" smooth="yes"/>
      <point x="234" y="377"/>
      <point x="270" y="568"/>
      <point x="397" y="568" type="curve" smooth="yes"/>
      <point x="443" y="568"/>
      <point x="475" y="550"/>
      <point x="504" y="520" type="curve"/>
      <point x="613" y="626" type="line"/>
      <point x="564" y="684"/>
      <point x="491" y="716"/>
      <point x="395" y="716" type="curve" smooth="yes"/>
    </contour>
    <contour>
      <point x="410" y="696" type="move" name="top"/>
    </contour>
    <contour>
      <point x="294" y="0" type="move" name="bottom"/>
    </contour>
  </outline>
</glyph>
<glyph name="D" format="1">
  <advance width="645"/>
  <unicode hex="0044"/>
  <outline>
    <contour>
      <point x="103" y="696" type="line"/>
      <point x="6" y="0" type="line"/>
      <point x="237" y="0" type="line" smooth="yes"/>
      <point x="548" y="0"/>
      <point x="642" y="203"/>
      <point x="642" y="432" type="curve" smooth="yes"/>
      <point x="642" y="645"/>
      <point x="489" y="696"/>
      <point x="320" y="696" type="curve" smooth="yes"/>
    </contour>
    <contour>
      <point x="397" y="551"/>
      <point x="434" y="524"/>
      <point x="434" y="430" type="curve" smooth="yes"/>
      <point x="434" y="314"/>
      <point x="408" y="145"/>
      <point x="267" y="145" type="curve" smooth="yes"/>
      <point x="228" y="145" type="line"/>
      <point x="285" y="551" type="line"/>
      <point x="327" y="551" type="line" smooth="yes"/>
    </contour>
    <contour>
      <point x="334" y="348" type="move" name="center"/>
    </contour>
    <contour>
      <point x="346" y="696" type="move" name="top"/>
    </contour>
  </outline>
</glyph>
<glyph name="E" format="1">
  <advance width="510"/>
  <unicode hex="0045"/>
  <outline>
    <contour>
      <point x="103" y="696" type="line"/>
      <point x="6" y="0" type="line"/>
      <point x="450" y="0" type="line"/>
      <point x="470" y="144" type="line"/>
      <point x="228" y="144" type="line"/>
      <point x="248" y="284" type="line"/>
      <point x="446" y="284" type="line"/>
      <point x="464" y="423" type="line"/>
      <point x="267" y="423" type="line"/>
      <point x="285" y="553" type="line"/>
      <point x="511" y="553" type="line"/>
      <point x="552" y="696" type="line"/>
    </contour>
    <contour>
      <point x="420" y="0" type="move" name="ogonek"/>
    </contour>
    <contour>
      <point x="328" y="696" type="move" name="top"/>
    </contour>
    <contour>
      <point x="-48" y="534" type="move" name="topleft"/>
    </contour>
    <contour>
      <point x="228" y="0" type="move" name="bottom"/>
    </contour>
  </outline>
</glyph>
<glyph name="F" format="1">
  <advance width="475"/>
  <unicode hex="0046"/>
  <outline>
    <contour>
      <point x="103" y="696" type="line" smooth="yes"/>
      <point x="6" y="0" type="line" smooth="yes"/>
      <point x="208" y="0" type="line" smooth="yes"/>
      <point x="244" y="258" type="line" smooth="yes"/>
      <point x="430" y="258" type="line" smooth="yes"/>
      <point x="450" y="401" type="line" smooth="yes"/>
      <point x="264" y="401" type="line" smooth="yes"/>
      <point x="285" y="553" type="line" smooth="yes"/>
      <point x="496" y="553" type="line" smooth="yes"/>
      <point x="537" y="696" type="line" smooth="yes"/>
    </contour>
  </outline>
</glyph>
<glyph name="G" format="1">
  <advance width="640"/>
  <unicode hex="0047"/>
  <outline>
    <contour>
      <point x="131" y="716"/>
      <point x="24" y="472"/>
      <point x="24" y="259" type="curve" smooth="yes"/>
      <point x="24" y="79"/>
      <point x="113" y="-20"/>
      <point x="310" y="-20" type="curve" smooth="yes"/>
      <point x="395" y="-20"/>
      <point x="498" y="8"/>
      <point x="578" y="58" type="curve"/>
      <point x="626" y="409" type="line"/>
      <point x="345" y="409" type="line"/>
      <point x="343" y="270" type="line"/>
      <point x="412" y="270" type="line"/>
      <point x="394" y="142" type="line"/>
      <point x="370" y="132"/>
      <point x="347" y="126"/>
      <point x="319" y="126" type="curve" smooth="yes"/>
      <point x="261" y="126"/>
      <point x="231" y="154"/>
      <point x="231" y="243" type="curve" smooth="yes"/>
      <point x="231" y="382"/>
      <point x="266" y="572"/>
      <point x="421" y="572" type="curve" smooth="yes"/>
      <point x="472" y="572"/>
      <point x="504" y="555"/>
      <point x="540" y="519" type="curve"/>
      <point x="654" y="622" type="line"/>
      <point x="607" y="675"/>
      <point x="529" y="716"/>
      <point x="425" y="716" type="curve" smooth="yes"/>
    </contour>
    <contour>
      <point x="403" y="696" type="move" name="top"/>
    </contour>
    <contour>
      <point x="306" y="0" type="move" name="bottom"/>
    </contour>
  </outline>
</glyph>
<glyph name="I" format="1">
  <advance width="288"/>
  <unicode hex="0049"/>
  <outline>
    <contour>
      <point x="103" y="696" type="line"/>
      <point x="6" y="0" type="line"/>
      <point x="208" y="0" type="line"/>
      <point x="305" y="696" type="line"/>
    </contour>
    <contour>
      <point x="173" y="0" type="move" name="ogonek"/>
    </contour>
    <contour>
      <point x="204" y="696" type="move" name="top"/>
    </contour>
    <contour>
      <point x="-49" y="534" type="move" name="topleft"/>
    </contour>
  </outline>
</glyph>
<glyph name="J" format="1">
  <advance width="316"/>
  <unicode hex="004A"/>
  <outline>
    <contour>
      <point x="133" y="696" type="line"/>
      <point x="52" y="119" type="line" smooth="yes"/>
      <point x="41" y="42"/>
      <point x="24" y="-10"/>
      <point x="-68" y="-44" type="curve"/>
      <point x="-32" y="-189" type="line"/>
      <point x="92" y="-149"/>
      <point x="226" y="-84"/>
      <point x="254" y="110" type="curve" smooth="yes"/>
      <point x="335" y="696" type="line"/>
    </contour>
    <contour>
      <point x="234" y="696" type="move" name="top"/>
    </contour>
  </outline>
</glyph>
<glyph name="K" format="1">
  <advance width="647"/>
  <unicode hex="004B"/>
  <outline>
    <contour>
      <point x="499" y="696" type="line"/>
      <point x="266" y="371" type="line"/>
      <point x="402" y="0" type="line"/>
      <point x="630" y="0" type="line"/>
      <point x="471" y="377" type="line"/>
      <point x="709" y="696" type="line"/>
    </contour>
    <contour>
      <point x="103" y="696" type="line"/>
      <point x="6" y="0" type="line"/>
      <point x="208" y="0" type="line"/>
      <point x="305" y="696" type="line"/>
    </contour>
    <contour>
      <point x="385" y="696" type="move" name="top"/>
    </contour>
    <contour>
      <point x="288" y="0" type="move" name="bottom"/>
    </contour>
  </outline>
</glyph>
<glyph name="L" format="1">
  <advance width="514"/>
  <unicode hex="004C"/>
  <outline>
    <contour>
      <point x="103" y="696" type="line"/>
      <point x="6" y="0" type="line"/>
      <point x="445" y="0" type="line"/>
      <point x="487" y="158" type="line"/>
      <point x="230" y="158" type="line"/>
      <point x="305" y="696" type="line"/>
    </contour>
    <contour>
      <point x="225" y="0" type="move" name="bottom"/>
    </contour>
    <contour>
      <point x="204" y="696" type="move" name="top"/>
    </contour>
    <contour>
      <point x="324" y="696" type="move" name="topright"/>
    </contour>
    <contour>
      <point x="415" y="404" type="move" name="center"/>
    </contour>
  </outline>
</glyph>
<glyph name="N" format="1">
  <advance width="639"/>
  <unicode hex="004E"/>
  <outline>
    <contour>
      <point x="480" y="696" type="line"/>
      <point x="450" y="484" type="line" smooth="yes"/>
      <point x="431" y="348"/>
      <point x="435" y="268"/>
      <point x="442" y="169" type="curve"/>
      <point x="353" y="696" type="line"/>
      <point x="103" y="696" type="line"/>
      <point x="6" y="0" type="line"/>
      <point x="182" y="0" type="line"/>
      <point x="211" y="205" type="line" smooth="yes"/>
      <point x="230" y="344"/>
      <point x="225" y="440"/>
      <point x="220" y="527" type="curve"/>
      <point x="305" y="0" type="line"/>
      <point x="559" y="0" type="line"/>
      <point x="656" y="696" type="line"/>
    </contour>
    <contour>
      <point x="380" y="696" type="move" name="top"/>
    </contour>
    <contour>
      <point x="283" y="0" type="move" name="bottom"/>
    </contour>
  </outline>
</glyph>
<glyph name="O" format="1">
  <advance width="678"/>
  <unicode hex="004F"/>
  <outline>
    <contour>
      <point x="112" y="716"/>
      <point x="25" y="458"/>
      <point x="25" y="268" type="curve" smooth="yes"/>
      <point x="25" y="89"/>
      <point x="121" y="-20"/>
      <point x="301" y="-20" type="curve"/>
      <point x="591" y="-20"/>
      <point x="676" y="241"/>
      <point x="676" y="429" type="curve" smooth="yes"/>
      <point x="676" y="609"/>
      <point x="580" y="716"/>
      <point x="400" y="716" type="curve"/>
    </contour>
    <contour>
      <point x="441" y="570"/>
      <point x="468" y="536"/>
      <point x="468" y="452" type="curve" smooth="yes"/>
      <point x="468" y="346"/>
      <point x="446" y="126"/>
      <point x="317" y="126" type="curve" smooth="yes"/>
      <point x="260" y="126"/>
      <point x="233" y="161"/>
      <point x="233" y="246" type="curve" smooth="yes"/>
      <point x="233" y="348"/>
      <point x="255" y="570"/>
      <point x="384" y="570" type="curve"/>
    </contour>
    <contour>
      <point x="399" y="696" type="move" name="top"/>
    </contour>
    <contour>
      <point x="-15" y="534" type="move" name="topleft"/>
    </contour>
  </outline>
</glyph>
<glyph name="P" format="1">
  <advance width="600"/>
  <unicode hex="0050"/>
  <outline>
    <contour>
      <point x="285" y="553" type="line"/>
      <point x="328" y="553" type="line" smooth="yes"/>
      <point x="385" y="553"/>
      <point x="409" y="528"/>
      <point x="409" y="483" type="curve" smooth="yes"/>
      <point x="409" y="438"/>
      <point x="389" y="362"/>
      <point x="304" y="362" type="curve" smooth="yes"/>
      <point x="243" y="362" type="line"/>
      <point x="223" y="217" type="line"/>
      <point x="306" y="217" type="line" smooth="yes"/>
      <point x="534" y="217"/>
      <point x="617" y="370"/>
      <point x="617" y="495" type="curve" smooth="yes"/>
      <point x="617" y="627"/>
      <point x="516" y="696"/>
      <point x="349" y="696" type="curve" smooth="yes"/>
      <point x="103" y="696" type="line"/>
      <point x="6" y="0" type="line"/>
      <point x="208" y="0" type="line"/>
    </contour>
  </outline>
</glyph>
<glyph name="Q" format="1">
  <advance width="678"/>
  <unicode hex="0051"/>
  <outline>
    <contour>
      <point x="301" y="-20" type="line"/>
      <point x="430" y="-20"/>
      <point x="498" y="-103"/>
      <point x="543" y="-176" type="curve"/>
      <point x="682" y="-20" type="line"/>
      <point x="630" y="24"/>
      <point x="573" y="46"/>
      <point x="448" y="46" type="curve"/>
    </contour>
    <contour>
      <point x="112" y="716"/>
      <point x="25" y="458"/>
      <point x="25" y="268" type="curve" smooth="yes"/>
      <point x="25" y="89"/>
      <point x="121" y="-20"/>
      <point x="301" y="-20" type="curve"/>
      <point x="351" y="-20"/>
      <point x="396" y="-12"/>
      <point x="434" y="2" type="curve"/>
      <point x="466" y="39" type="line"/>
      <point x="627" y="115"/>
      <point x="676" y="288"/>
      <point x="676" y="429" type="curve" smooth="yes"/>
      <point x="676" y="609"/>
      <point x="580" y="716"/>
      <point x="400" y="716" type="curve"/>
    </contour>
    <contour>
      <point x="441" y="570"/>
      <point x="468" y="536"/>
      <point x="468" y="452" type="curve" smooth="yes"/>
      <point x="468" y="346"/>
      <point x="446" y="126"/>
      <point x="317" y="126" type="curve" smooth="yes"/>
      <point x="260" y="126"/>
      <point x="233" y="161"/>
      <point x="233" y="246" type="curve" smooth="yes"/>
      <point x="233" y="348"/>
      <point x="255" y="570"/>
      <point x="384" y="570" type="curve"/>
    </contour>
  </outline>
</glyph>
<glyph name="R" format="1">
  <advance width="612"/>
  <unicode hex="0052"/>
  <outline>
    <contour>
      <point x="103" y="696" type="line"/>
      <point x="6" y="0" type="line"/>
      <point x="208" y="0" type="line"/>
      <point x="285" y="555" type="line"/>
      <point x="329" y="555" type="line" smooth="yes"/>
      <point x="382" y="555"/>
      <point x="410" y="536"/>
      <point x="410" y="495" type="curve" smooth="yes"/>
      <point x="410" y="454"/>
      <point x="395" y="386"/>
      <point x="314" y="386" type="curve" smooth="yes"/>
      <point x="245" y="386" type="line"/>
      <point x="226" y="248" type="line"/>
      <point x="392" y="247" type="line"/>
      <point x="588" y="322"/>
      <point x="618" y="407"/>
      <point x="618" y="515" type="curve" smooth="yes"/>
      <point x="618" y="640"/>
      <point x="528" y="696"/>
      <point x="354" y="696" type="curve" smooth="yes"/>
    </contour>
    <contour>
      <point x="278" y="262" type="line"/>
      <point x="375" y="0" type="line"/>
      <point x="595" y="0" type="line"/>
      <point x="462" y="300" type="line"/>
    </contour>
    <contour>
      <point x="367" y="696" type="move" name="top"/>
    </contour>
    <contour>
      <point x="270" y="0" type="move" name="bottom"/>
    </contour>
  </outline>
</glyph>
<glyph name="S" format="1">
  <advance width="576"/>
  <unicode hex="0053"/>
  <outline>
    <contour>
      <point x="144" y="716"/>
      <point x="58" y="602"/>
      <point x="58" y="488" type="curve" smooth="yes"/>
      <point x="58" y="399"/>
      <point x="105" y="331"/>
      <point x="244" y="285" type="curve" smooth="yes"/>
      <point x="319" y="259"/>
      <point x="342" y="235"/>
      <point x="342" y="197" type="curve" smooth="yes"/>
      <point x="342" y="160"/>
      <point x="310" y="134"/>
      <point x="244" y="134" type="curve" smooth="yes"/>
      <point x="182" y="134"/>
      <point x="131" y="158"/>
      <point x="88" y="201" type="curve"/>
      <point x="-25" y="86" type="line"/>
      <point x="29" y="31"/>
      <point x="115" y="-20"/>
      <point x="244" y="-20" type="curve" smooth="yes"/>
      <point x="478" y="-20"/>
      <point x="556" y="118"/>
      <point x="556" y="238" type="curve" smooth="yes"/>
      <point x="556" y="337"/>
      <point x="500" y="400"/>
      <point x="380" y="440" type="curve" smooth="yes"/>
      <point x="297" y="470"/>
      <point x="271" y="481"/>
      <point x="271" y="514" type="curve" smooth="yes"/>
      <point x="271" y="547"/>
      <point x="300" y="570"/>
      <point x="354" y="570" type="curve" smooth="yes"/>
      <point x="407" y="570"/>
      <point x="451" y="552"/>
      <point x="492" y="515" type="curve"/>
      <point x="594" y="620" type="line"/>
      <point x="537" y="681"/>
      <point x="457" y="716"/>
      <point x="353" y="716" type="curve" smooth="yes"/>
    </contour>
    <contour>
      <point x="361" y="696" type="move" name="top"/>
    </contour>
    <contour>
      <point x="250" y="0" type="move" name="bottom"/>
    </contour>
  </outline>
</glyph>
<glyph name="U" format="1">
  <advance width="632"/>
  <unicode hex="0055"/>
  <outline>
    <contour>
      <point x="457" y="696" type="line"/>
      <point x="393" y="243" type="line" smooth="yes"/>
      <point x="382" y="166"/>
      <point x="354" y="128"/>
      <point x="294" y="128" type="curve" smooth="yes"/>
      <point x="236" y="128"/>
      <point x="220" y="164"/>
      <point x="231" y="241" type="curve" smooth="yes"/>
      <point x="295" y="696" type="line"/>
      <point x="93" y="696" type="line"/>
      <point x="29" y="237" type="line" smooth="yes"/>
      <point x="8" y="85"/>
      <point x="85" y="-20"/>
      <point x="278" y="-20" type="curve" smooth="yes"/>
      <point x="469" y="-20"/>
      <point x="575" y="93"/>
      <point x="595" y="235" type="curve" smooth="yes"/>
      <point x="659" y="696" type="line"/>
    </contour>
    <contour>
      <point x="414" y="0" type="move" name="ogonek"/>
    </contour>
    <contour>
      <point x="376" y="696" type="move" name="top"/>
    </contour>
  </outline>
</glyph>
<glyph name="V" format="1">
  <advance width="567"/>
  <unicode hex="0056"/>
  <outline>
    <contour>
      <point x="444" y="696" type="line"/>
      <point x="274" y="143" type="line"/>
      <point x="247" y="696" type="line"/>
      <point x="36" y="696" type="line"/>
      <point x="123" y="0" type="line"/>
      <point x="383" y="0" type="line"/>
      <point x="653" y="696" type="line"/>
    </contour>
  </outline>
</glyph>
<glyph name="W" format="1">
  <advance width="847"/>
  <unicode hex="0057"/>
  <outline>
    <contour>
      <point x="709" y="696" type="line"/>
      <point x="574" y="149" type="line"/>
      <point x="590" y="696" type="line"/>
      <point x="378" y="696" type="line"/>
      <point x="229" y="149" type="line"/>
      <point x="262" y="696" type="line"/>
      <point x="62" y="696" type="line"/>
      <point x="61" y="0" type="line"/>
      <point x="317" y="0" type="line"/>
      <point x="455" y="500" type="line"/>
      <point x="446" y="0" type="line"/>
      <point x="709" y="0" type="line"/>
      <point x="905" y="696" type="line"/>
    </contour>
    <contour>
      <point x="486" y="696" type="move" name="top"/>
    </contour>
  </outline>
</glyph>
<glyph name="X" format="1">
  <advance width="594"/>
  <unicode hex="0058"/>
  <outline>
    <contour>
      <point x="63" y="696" type="line"/>
      <point x="187" y="369" type="line"/>
      <point x="291" y="249" type="line"/>
      <point x="351" y="0" type="line"/>
      <point x="567" y="0" type="line"/>
      <point x="429" y="375" type="line"/>
      <point x="323" y="486" type="line"/>
      <point x="278" y="696" type="line"/>
    </contour>
    <contour>
      <point x="435" y="696" type="line"/>
      <point x="323" y="486" type="line"/>
      <point x="186" y="369" type="line"/>
      <point x="-47" y="0" type="line"/>
      <point x="169" y="0" type="line"/>
      <point x="291" y="249" type="line"/>
      <point x="430" y="375" type="line"/>
      <point x="650" y="696" type="line"/>
    </contour>
    <contour>
      <point x="498" y="0" type="move" name="bottomright"/>
    </contour>
  </outline>
</glyph>
<glyph name="Y" format="1">
  <advance width="608"/>
  <unicode hex="0059"/>
  <outline>
    <contour>
      <point x="467" y="696" type="line"/>
      <point x="325" y="412" type="line"/>
      <point x="262" y="696" type="line"/>
      <point x="45" y="696" type="line"/>
      <point x="202" y="256" type="line"/>
      <point x="166" y="0" type="line"/>
      <point x="368" y="0" type="line"/>
      <point x="404" y="257" type="line"/>
      <point x="683" y="696" type="line"/>
    </contour>
    <contour>
      <point x="364" y="696" type="move" name="top"/>
    </contour>
    <contour>
      <point x="-102" y="534" type="move" name="topleft"/>
    </contour>
  </outline>
</glyph>
<glyph name="Z" format="1">
  <advance width="545"/>
  <unicode hex="005A"/>
  <outline>
    <contour>
      <point x="97" y="696" type="line"/>
      <point x="76" y="540" type="line"/>
      <point x="326" y="540" type="line"/>
      <point x="-8" y="151" type="line"/>
      <point x="-28" y="0" type="line"/>
      <point x="474" y="0" type="line"/>
      <point x="516" y="161" type="line"/>
      <point x="237" y="161" type="line"/>
      <point x="561" y="543" type="line"/>
      <point x="582" y="696" type="line"/>
    </contour>
    <contour>
      <point x="333" y="696" type="move" name="top"/>
    </contour>
  </outline>
</glyph>
<glyph name="bracketleft" format="1">
  <advance width="313"/>
  <unicode hex="005B"/>
  <outline>
    <contour>
      <point x="91" y="827" type="line"/>
      <point x="-44" y="-127" type="line"/>
      <point x="251" y="-127" type="line"/>
      <point x="271" y="15" type="line"/>
      <point x="161" y="15" type="line"/>
      <point x="255" y="684" type="line"/>
      <point x="365" y="684" type="line"/>
      <point x="385" y="827" type="line"/>
    </contour>
  </outline>
</glyph>
<glyph name="bracketright" format="1">
  <advance width="313"/>
  <unicode hex="005D"/>
  <outline>
    <contour>
      <point x="86" y="827" type="line"/>
      <point x="66" y="685" type="line"/>
      <point x="176" y="685" type="line"/>
      <point x="82" y="16" type="line"/>
      <point x="-28" y="16" type="line"/>
      <point x="-49" y="-127" type="line"/>
      <point x="246" y="-127" type="line"/>
      <point x="380" y="827" type="line"/>
    </contour>
  </outline>
</glyph>
<glyph name="asciicircum" format="1">
  <advance width="558"/>
  <unicode hex="005E"/>
  <outline>
    <contour>
      <point x="271" y="847" type="line"/>
      <point x="40" y="527" type="line"/>
      <point x="231" y="527" type="line"/>
      <point x="340" y="705" type="line"/>
      <point x="405" y="527" type="line"/>
      <point x="590" y="527" type="line"/>
      <point x="449" y="847" type="line"/>
    </contour>
  </outline>
</glyph>
<glyph name="a" format="1">
  <advance width="573"/>
  <unicode hex="0061"/>
  <outline>
    <contour>
      <point x="93" y="554"/>
      <point x="10" y="354"/>
      <point x="10" y="197" type="curve" smooth="yes"/>
      <point x="10" y="64"/>
      <point x="69" y="-20"/>
      <point x="187" y="-20" type="curve" smooth="yes"/>
      <point x="261" y="-20"/>
      <point x="310" y="19"/>
      <point x="344" y="72" type="curve"/>
      <point x="365" y="15"/>
      <point x="423" y="-12"/>
      <point x="485" y="-16" type="curve"/>
      <point x="541" y="110" type="line"/>
      <point x="524" y="117"/>
      <point x="517" y="127"/>
      <point x="517" y="148" type="curve"/>
      <point x="517" y="155"/>
      <point x="518" y="163"/>
      <point x="519" y="172" type="curve" smooth="yes"/>
      <point x="565" y="491" type="line"/>
      <point x="491" y="535"/>
      <point x="404" y="554"/>
      <point x="329" y="554" type="curve" smooth="yes"/>
    </contour>
    <contour>
      <point x="337" y="418"/>
      <point x="348" y="416"/>
      <point x="363" y="412" type="curve"/>
      <point x="329" y="182" type="line"/>
      <point x="305" y="141"/>
      <point x="278" y="122"/>
      <point x="252" y="122" type="curve" smooth="yes"/>
      <point x="230" y="122"/>
      <point x="209" y="132"/>
      <point x="209" y="198" type="curve" smooth="yes"/>
      <point x="209" y="292"/>
      <point x="236" y="418"/>
      <point x="321" y="418" type="curve" smooth="yes"/>
    </contour>
    <contour>
      <point x="493" y="-16" type="move" name="ogonek"/>
    </contour>
    <contour>
      <point x="346" y="534" type="move" name="top"/>
    </contour>
  </outline>
</glyph>
<glyph name="b" format="1">
  <advance width="582"/>
  <unicode hex="0062"/>
  <outline>
    <contour>
      <point x="108" y="744" type="line"/>
      <point x="8" y="30" type="line"/>
      <point x="78" y="-1"/>
      <point x="157" y="-20"/>
      <point x="245" y="-20" type="curve" smooth="yes"/>
      <point x="515" y="-20"/>
      <point x="572" y="191"/>
      <point x="572" y="347" type="curve" smooth="yes"/>
      <point x="572" y="478"/>
      <point x="519" y="554"/>
      <point x="406" y="554" type="curve" smooth="yes"/>
      <point x="360" y="554"/>
      <point x="301" y="530"/>
      <point x="266" y="493" type="curve"/>
      <point x="304" y="764" type="line"/>
    </contour>
    <contour>
      <point x="352" y="412"/>
      <point x="373" y="400"/>
      <point x="373" y="338" type="curve" smooth="yes"/>
      <point x="373" y="249"/>
      <point x="346" y="121"/>
      <point x="267" y="121" type="curve" smooth="yes"/>
      <point x="246" y="121"/>
      <point x="229" y="126"/>
      <point x="216" y="131" type="curve"/>
      <point x="248" y="359" type="line"/>
      <point x="273" y="396"/>
      <point x="300" y="412"/>
      <point x="327" y="412" type="curve" smooth="yes"/>
    </contour>
  </outline>
</glyph>
<glyph name="c" format="1">
  <advance width="468"/>
  <unicode hex="0063"/>
  <outline>
    <contour>
      <point x="98" y="554"/>
      <point x="11" y="355"/>
      <point x="11" y="217" type="curve" smooth="yes"/>
      <point x="11" y="74"/>
      <point x="100" y="-20"/>
      <point x="255" y="-20" type="curve" smooth="yes"/>
      <point x="333" y="-20"/>
      <point x="394" y="5"/>
      <point x="448" y="44" type="curve"/>
      <point x="378" y="168" type="line"/>
      <point x="341" y="145"/>
      <point x="316" y="133"/>
      <point x="283" y="133" type="curve" smooth="yes"/>
      <point x="243" y="133"/>
      <point x="214" y="148"/>
      <point x="214" y="212" type="curve" smooth="yes"/>
      <point x="214" y="291"/>
      <point x="234" y="405"/>
      <point x="327" y="405" type="curve" smooth="yes"/>
      <point x="357" y="405"/>
      <point x="385" y="395"/>
      <point x="413" y="369" type="curve"/>
      <point x="506" y="480" type="line"/>
      <point x="461" y="527"/>
      <point x="399" y="554"/>
      <point x="326" y="554" type="curve" smooth="yes"/>
    </contour>
    <contour>
      <point x="322" y="534" type="move" name="top"/>
    </contour>
    <contour>
      <point x="234" y="0" type="move" name="bottom"/>
    </contour>
  </outline>
</glyph>
<glyph name="d" format="1">
  <advance width="589"/>
  <unicode hex="0064"/>
  <outline>
    <contour>
      <point x="388" y="511" type="line"/>
      <point x="362" y="538"/>
      <point x="323" y="554"/>
      <point x="283" y="554" type="curve" smooth="yes"/>
      <point x="84" y="554"/>
      <point x="15" y="347"/>
      <point x="15" y="197" type="curve" smooth="yes"/>
      <point x="15" y="61"/>
      <point x="67" y="-20"/>
      <point x="182" y="-20" type="curve" smooth="yes"/>
      <point x="257" y="-20"/>
      <point x="307" y="25"/>
      <point x="339" y="69" type="curve"/>
      <point x="338" y="0" type="line"/>
      <point x="511" y="0" type="line"/>
      <point x="615" y="744" type="line"/>
      <point x="423" y="764" type="line"/>
    </contour>
    <contour>
      <point x="342" y="413"/>
      <point x="356" y="406"/>
      <point x="371" y="389" type="curve"/>
      <point x="345" y="205" type="line"/>
      <point x="321" y="166"/>
      <point x="288" y="122"/>
      <point x="256" y="122" type="curve" smooth="yes"/>
      <point x="234" y="122"/>
      <point x="215" y="133"/>
      <point x="215" y="199" type="curve" smooth="yes"/>
      <point x="215" y="278"/>
      <point x="237" y="413"/>
      <point x="319" y="413" type="curve" smooth="yes"/>
    </contour>
    <contour>
      <point x="295" y="267" type="move" name="center"/>
    </contour>
    <contour>
      <point x="629" y="744" type="move" name="topright"/>
    </contour>
  </outline>
</glyph>
<glyph name="e" format="1">
  <advance width="542"/>
  <unicode hex="0065"/>
  <outline>
    <contour>
      <point x="94" y="554"/>
      <point x="12" y="356"/>
      <point x="12" y="211" type="curve" smooth="yes"/>
      <point x="12" y="75"/>
      <point x="90" y="-20"/>
      <point x="261" y="-20" type="curve" smooth="yes"/>
      <point x="351" y="-20"/>
      <point x="427" y="13"/>
      <point x="486" y="56" type="curve"/>
      <point x="419" y="169" type="line"/>
      <point x="369" y="137"/>
      <point x="331" y="120"/>
      <point x="287" y="120" type="curve" smooth="yes"/>
      <point x="240" y="120"/>
      <point x="205" y="140"/>
      <point x="205" y="208" type="curve" smooth="yes"/>
      <point x="205" y="286"/>
      <point x="226" y="429"/>
      <point x="308" y="429" type="curve" smooth="yes"/>
      <point x="341" y="429"/>
      <point x="351" y="413"/>
      <point x="351" y="389" type="curve" smooth="yes"/>
      <point x="351" y="371"/>
      <point x="334" y="305"/>
      <point x="203" y="302" type="curve"/>
      <point x="189" y="190" type="line"/>
      <point x="348" y="202"/>
      <point x="545" y="247"/>
      <point x="545" y="401" type="curve" smooth="yes"/>
      <point x="545" y="488"/>
      <point x="470" y="554"/>
      <point x="331" y="554" type="curve" smooth="yes"/>
    </contour>
    <contour>
      <point x="412" y="11" type="move" name="ogonek"/>
    </contour>
    <contour>
      <point x="251" y="0" type="move" name="bottom"/>
    </contour>
    <contour>
      <point x="316" y="534" type="move" name="top"/>
    </contour>
  </outline>
</glyph>
<glyph name="g" format="1">
  <advance width="574"/>
  <unicode hex="0067"/>
  <outline>
    <contour>
      <point x="93" y="554"/>
      <point x="11" y="352"/>
      <point x="11" y="211" type="curve" smooth="yes"/>
      <point x="11" y="87"/>
      <point x="70" y="0"/>
      <point x="188" y="0" type="curve" smooth="yes"/>
      <point x="245" y="0"/>
      <point x="290" y="26"/>
      <point x="323" y="63" type="curve"/>
      <point x="316" y="21" type="line" smooth="yes"/>
      <point x="303" y="-67"/>
      <point x="256" y="-82"/>
      <point x="205" y="-82" type="curve" smooth="yes"/>
      <point x="165" y="-82"/>
      <point x="119" y="-72"/>
      <point x="59" y="-40" type="curve"/>
      <point x="-4" y="-164" type="line"/>
      <point x="58" y="-203"/>
      <point x="139" y="-227"/>
      <point x="206" y="-227" type="curve" smooth="yes"/>
      <point x="400" y="-227"/>
      <point x="481" y="-139"/>
      <point x="509" y="58" type="curve" smooth="yes"/>
      <point x="570" y="491" type="line"/>
      <point x="496" y="535"/>
      <point x="409" y="554"/>
      <point x="334" y="554" type="curve" smooth="yes"/>
    </contour>
    <contour>
      <point x="342" y="418"/>
      <point x="353" y="416"/>
      <point x="368" y="412" type="curve"/>
      <point x="336" y="202" type="line"/>
      <point x="312" y="166"/>
      <point x="284" y="144"/>
      <point x="256" y="144" type="curve" smooth="yes"/>
      <point x="234" y="144"/>
      <point x="210" y="155"/>
      <point x="210" y="218" type="curve" smooth="yes"/>
      <point x="210" y="292"/>
      <point x="237" y="418"/>
      <point x="327" y="418" type="curve" smooth="yes"/>
    </contour>
    <contour>
      <point x="333" y="534" type="move" name="top"/>
    </contour>
  </outline>
</glyph>
<glyph name="h" format="1">
  <advance width="560"/>
  <unicode hex="0068"/>
  <outline>
    <contour>
      <point x="365" y="554"/>
      <point x="295" y="511"/>
      <point x="259" y="448" type="curve"/>
      <point x="304" y="764" type="line"/>
      <point x="108" y="744" type="line"/>
      <point x="4" y="0" type="line"/>
      <point x="198" y="0" type="line"/>
      <point x="238" y="278" type="line"/>
      <point x="273" y="353"/>
      <point x="305" y="393"/>
      <point x="328" y="393" type="curve" smooth="yes"/>
      <point x="342" y="393"/>
      <point x="352" y="383"/>
      <point x="345" y="341" type="curve" smooth="yes"/>
      <point x="293" y="0" type="line"/>
      <point x="487" y="0" type="line"/>
      <point x="542" y="393" type="line" smooth="yes"/>
      <point x="556" y="495"/>
      <point x="510" y="554"/>
      <point x="422" y="554" type="curve" smooth="yes"/>
    </contour>
    <contour>
      <point x="280" y="267" type="move" name="center"/>
    </contour>
    <contour>
      <point x="243" y="0" type="move" name="bottom"/>
    </contour>
    <contour>
      <point x="347" y="744" type="move" name="top"/>
    </contour>
  </outline>
</glyph>
<glyph name="k" format="1">
  <advance width="581"/>
  <unicode hex="006B"/>
  <outline>
    <contour>
      <point x="108" y="744" type="line"/>
      <point x="4" y="0" type="line"/>
      <point x="199" y="0" type="line"/>
      <point x="246" y="337" type="line"/>
      <point x="288" y="398"/>
      <point x="325" y="421"/>
      <point x="356" y="421" type="curve" smooth="yes"/>
      <point x="380" y="421"/>
      <point x="394" y="409"/>
      <point x="394" y="385" type="curve" smooth="yes"/>
      <point x="394" y="340"/>
      <point x="365" y="295"/>
      <point x="253" y="256" type="curve"/>
      <point x="331" y="0" type="line"/>
      <point x="543" y="0" type="line"/>
      <point x="457" y="238" type="line"/>
      <point x="547" y="280"/>
      <point x="590" y="341"/>
      <point x="590" y="423" type="curve" smooth="yes"/>
      <point x="590" y="501"/>
      <point x="534" y="554"/>
      <point x="438" y="554" type="curve" smooth="yes"/>
      <point x="376" y="554"/>
      <point x="321" y="533"/>
      <point x="265" y="478" type="curve"/>
      <point x="305" y="764" type="line"/>
    </contour>
    <contour>
      <point x="264" y="0" type="move" name="bottom"/>
    </contour>
  </outline>
</glyph>
<glyph name="l" format="1">
  <advance width="289"/>
  <unicode hex="006C"/>
  <outline>
    <contour>
      <point x="103" y="744" type="line"/>
      <point x="20" y="152" type="line" smooth="yes"/>
      <point x="4" y="41"/>
      <point x="56" y="-20"/>
      <point x="157" y="-20" type="curve" smooth="yes"/>
      <point x="198" y="-20"/>
      <point x="243" y="-12"/>
      <point x="273" y="1" type="curve"/>
      <point x="255" y="139" type="line"/>
      <point x="248" y="137"/>
      <point x="240" y="135"/>
      <point x="235" y="135" type="curve" smooth="yes"/>
      <point x="222" y="135"/>
      <point x="212" y="142"/>
      <point x="216" y="171" type="curve" smooth="yes"/>
      <point x="299" y="764" type="line"/>
    </contour>
    <contour>
      <point x="145" y="0" type="move" name="bottom"/>
    </contour>
    <contour>
      <point x="200" y="744" type="move" name="top"/>
    </contour>
    <contour>
      <point x="316" y="744" type="move" name="topright"/>
    </contour>
    <contour>
      <point x="399" y="373" type="move" name="center"/>
    </contour>
  </outline>
</glyph>
<glyph name="m" format="1">
  <advance width="821"/>
  <unicode hex="006D"/>
  <outline>
    <contour>
      <point x="350" y="554"/>
      <point x="287" y="518"/>
      <point x="248" y="456" type="curve"/>
      <point x="247" y="534" type="line"/>
      <point x="78" y="534" type="line"/>
      <point x="4" y="0" type="line"/>
      <point x="198" y="0" type="line"/>
      <point x="238" y="281" type="line"/>
      <point x="261" y="354"/>
      <point x="293" y="393"/>
      <point x="314" y="393" type="curve" smooth="yes"/>
      <point x="328" y="393"/>
      <point x="338" y="383"/>
      <point x="331" y="341" type="curve" smooth="yes"/>
      <point x="279" y="0" type="line"/>
      <point x="473" y="0" type="line"/>
      <point x="528" y="393" type="line" smooth="yes"/>
      <point x="542" y="495"/>
      <point x="496" y="554"/>
      <point x="408" y="554" type="curve" smooth="yes"/>
    </contour>
    <contour>
      <point x="611" y="554"/>
      <point x="525" y="489"/>
      <point x="493" y="397" type="curve"/>
      <point x="509" y="275" type="line"/>
      <point x="536" y="352"/>
      <point x="568" y="393"/>
      <point x="589" y="393" type="curve" smooth="yes"/>
      <point x="603" y="393"/>
      <point x="613" y="383"/>
      <point x="606" y="341" type="curve"/>
      <point x="554" y="0" type="line"/>
      <point x="748" y="0" type="line"/>
      <point x="803" y="393" type="line" smooth="yes"/>
      <point x="817" y="495"/>
      <point x="771" y="554"/>
      <point x="683" y="554" type="curve" smooth="yes"/>
    </contour>
  </outline>
</glyph>
<glyph name="n" format="1">
  <advance width="560"/>
  <unicode hex="006E"/>
  <outline>
    <contour>
      <point x="364" y="554"/>
      <point x="290" y="511"/>
      <point x="248" y="446" type="curve"/>
      <point x="247" y="534" type="line"/>
      <point x="78" y="534" type="line"/>
      <point x="4" y="0" type="line"/>
      <point x="198" y="0" type="line"/>
      <point x="238" y="278" type="line"/>
      <point x="273" y="353"/>
      <point x="305" y="393"/>
      <point x="328" y="393" type="curve" smooth="yes"/>
      <point x="342" y="393"/>
      <point x="352" y="383"/>
      <point x="345" y="341" type="curve" smooth="yes"/>
      <point x="293" y="0" type="line"/>
      <point x="487" y="0" type="line"/>
      <point x="542" y="393" type="line" smooth="yes"/>
      <point x="556" y="495"/>
      <point x="510" y="554"/>
      <point x="422" y="554" type="curve" smooth="yes"/>
    </contour>
    <contour>
      <point x="322" y="534" type="move" name="top"/>
    </contour>
    <contour>
      <point x="243" y="0" type="move" name="bottom"/>
    </contour>
    <contour>
      <point x="70" y="534" type="move" name="topleft"/>
    </contour>
  </outline>
</glyph>
<glyph name="o" format="1">
  <advance width="572"/>
  <unicode hex="006F"/>
  <outline>
    <contour>
      <point x="89" y="554"/>
      <point x="13" y="370"/>
      <point x="13" y="211" type="curve" smooth="yes"/>
      <point x="13" y="66"/>
      <point x="100" y="-20"/>
      <point x="247" y="-20" type="curve"/>
      <point x="481" y="-20"/>
      <point x="557" y="165"/>
      <point x="558" y="323" type="curve" smooth="yes"/>
      <point x="559" y="465"/>
      <point x="471" y="554"/>
      <point x="323" y="554" type="curve"/>
    </contour>
    <contour>
      <point x="344" y="412"/>
      <point x="361" y="390"/>
      <point x="360" y="333" type="curve" smooth="yes"/>
      <point x="359" y="264"/>
      <point x="348" y="122"/>
      <point x="263" y="122" type="curve" smooth="yes"/>
      <point x="227" y="122"/>
      <point x="211" y="144"/>
      <point x="211" y="201" type="curve" smooth="yes"/>
      <point x="211" y="270"/>
      <point x="222" y="412"/>
      <point x="307" y="412" type="curve"/>
    </contour>
    <contour>
      <point x="314" y="534" type="move" name="top"/>
    </contour>
  </outline>
</glyph>
<glyph name="p" format="1">
  <advance width="587"/>
  <unicode hex="0070"/>
  <outline>
    <contour>
      <point x="362" y="554"/>
      <point x="305" y="534"/>
      <point x="252" y="479" type="curve"/>
      <point x="251" y="534" type="line"/>
      <point x="78" y="534" type="line"/>
      <point x="-28" y="-227" type="line"/>
      <point x="168" y="-207" type="line"/>
      <point x="195" y="-8" type="line"/>
      <point x="210" y="-12"/>
      <point x="239" y="-20"/>
      <point x="289" y="-20" type="curve" smooth="yes"/>
      <point x="503" y="-20"/>
      <point x="572" y="191"/>
      <point x="572" y="347" type="curve" smooth="yes"/>
      <point x="572" y="478"/>
      <point x="519" y="554"/>
      <point x="406" y="554" type="curve" smooth="yes"/>
    </contour>
    <contour>
      <point x="352" y="412"/>
      <point x="373" y="400"/>
      <point x="373" y="338" type="curve" smooth="yes"/>
      <point x="373" y="249"/>
      <point x="346" y="121"/>
      <point x="267" y="121" type="curve" smooth="yes"/>
      <point x="246" y="121"/>
      <point x="229" y="126"/>
      <point x="216" y="131" type="curve"/>
      <point x="248" y="360" type="line"/>
      <point x="273" y="396"/>
      <point x="300" y="412"/>
      <point x="327" y="412" type="curve" smooth="yes"/>
    </contour>
  </outline>
</glyph>
<glyph name="q" format="1">
  <advance width="572"/>
  <unicode hex="0071"/>
  <outline>
    <contour>
      <point x="95" y="554"/>
      <point x="9" y="363"/>
      <point x="9" y="197" type="curve" smooth="yes"/>
      <point x="9" y="64"/>
      <point x="69" y="-20"/>
      <point x="183" y="-20" type="curve" smooth="yes"/>
      <point x="248" y="-20"/>
      <point x="299" y="16"/>
      <point x="312" y="36" type="curve"/>
      <point x="270" y="-227" type="line"/>
      <point x="470" y="-207" type="line"/>
      <point x="567" y="491" type="line"/>
      <point x="493" y="535"/>
      <point x="406" y="554"/>
      <point x="331" y="554" type="curve" smooth="yes"/>
    </contour>
    <contour>
      <point x="339" y="418"/>
      <point x="350" y="416"/>
      <point x="365" y="412" type="curve"/>
      <point x="331" y="182" type="line"/>
      <point x="307" y="141"/>
      <point x="281" y="122"/>
      <point x="254" y="122" type="curve" smooth="yes"/>
      <point x="231" y="122"/>
      <point x="208" y="132"/>
      <point x="208" y="198" type="curve" smooth="yes"/>
      <point x="208" y="292"/>
      <point x="238" y="418"/>
      <point x="323" y="418" type="curve" smooth="yes"/>
    </contour>
  </outline>
</glyph>
<glyph name="r" format="1">
  <advance width="399"/>
  <unicode hex="0072"/>
  <outline>
    <contour>
      <point x="343" y="551"/>
      <point x="282" y="507"/>
      <point x="248" y="439" type="curve"/>
      <point x="247" y="534" type="line"/>
      <point x="78" y="534" type="line"/>
      <point x="4" y="0" type="line"/>
      <point x="198" y="0" type="line"/>
      <point x="230" y="225" type="line"/>
      <point x="254" y="296"/>
      <point x="284" y="359"/>
      <point x="348" y="359" type="curve" smooth="yes"/>
      <point x="364" y="359"/>
      <point x="377" y="356"/>
      <point x="394" y="351" type="curve"/>
      <point x="449" y="542" type="line"/>
      <point x="432" y="548"/>
      <point x="418" y="551"/>
      <point x="396" y="551" type="curve" smooth="yes"/>
    </contour>
    <contour>
      <point x="263" y="534" type="move" name="top"/>
    </contour>
    <contour>
      <point x="101" y="0" type="move" name="bottom"/>
    </contour>
  </outline>
</glyph>
<glyph name="t" format="1">
  <advance width="389"/>
  <unicode hex="0074"/>
  <outline>
    <contour>
      <point x="137" y="649" type="line"/>
      <point x="88" y="474" type="line"/>
      <point x="49" y="198" type="line" smooth="yes"/>
      <point x="30" y="57"/>
      <point x="79" y="-19"/>
      <point x="211" y="-20" type="curve" smooth="yes"/>
      <point x="259" y="-20"/>
      <point x="325" y="-6"/>
      <point x="373" y="22" type="curve"/>
      <point x="325" y="149" type="line"/>
      <point x="307" y="139"/>
      <point x="289" y="135"/>
      <point x="273" y="135" type="curve" smooth="yes"/>
      <point x="250" y="135"/>
      <point x="237" y="148"/>
      <point x="244" y="198" type="curve" smooth="yes"/>
      <point x="309" y="669" type="line"/>
    </contour>
    <contour>
      <point x="33" y="534" type="line"/>
      <point x="15" y="400" type="line"/>
      <point x="370" y="400" type="line"/>
      <point x="408" y="534" type="line"/>
    </contour>
    <contour>
      <point x="192" y="267" type="move" name="center"/>
    </contour>
    <contour>
      <point x="190" y="0" type="move" name="bottom"/>
    </contour>
    <contour>
      <point x="309" y="809" type="move" name="topright"/>
    </contour>
  </outline>
</glyph>
<glyph name="u" format="1">
  <advance width="554"/>
  <unicode hex="0075"/>
  <outline>
    <contour>
      <point x="356" y="534" type="line"/>
      <point x="309.299" y="200.804" type="line"/>
      <point x="286.728" y="163.148"/>
      <point x="262.078" y="138"/>
      <point x="242" y="138" type="curve" smooth="yes"/>
      <point x="225" y="138"/>
      <point x="214" y="147"/>
      <point x="220" y="189" type="curve" smooth="yes"/>
      <point x="267" y="534" type="line"/>
      <point x="73" y="534" type="line"/>
      <point x="19" y="151" type="line" smooth="yes"/>
      <point x="5" y="49"/>
      <point x="41" y="-20"/>
      <point x="144" y="-20" type="curve" smooth="yes"/>
      <point x="208.247" y="-20"/>
      <point x="264.913" y="14.5382"/>
      <point x="308.585" y="67.378" type="curve"/>
      <point x="307" y="0" type="line"/>
      <point x="476" y="0" type="line"/>
      <point x="550" y="534" type="line"/>
    </contour>
    <contour>
      <point x="484" y="0" type="move" name="ogonek"/>
    </contour>
    <contour>
      <point x="312" y="534" type="move" name="top"/>
    </contour>
  </outline>
</glyph>
<glyph name="w" format="1">
  <advance width="756"/>
  <unicode hex="0077"/>
  <outline>
    <contour>
      <point x="610" y="534" type="line"/>
      <point x="513" y="151" type="line"/>
      <point x="511" y="534" type="line"/>
      <point x="330" y="534" type="line"/>
      <point x="208" y="151" type="line"/>
      <point x="230" y="534" type="line"/>
      <point x="34" y="534" type="line"/>
      <point x="65" y="0" type="line"/>
      <point x="288" y="0" type="line"/>
      <point x="392" y="358" type="line"/>
      <point x="399" y="0" type="line"/>
      <point x="619" y="0" type="line"/>
      <point x="796" y="534" type="line"/>
    </contour>
    <contour>
      <point x="415" y="534" type="move" name="top"/>
    </contour>
  </outline>
</glyph>
<glyph name="y" format="1">
  <advance width="520"/>
  <unicode hex="0079"/>
  <outline>
    <contour>
      <point x="370" y="534" type="line"/>
      <point x="234" y="122" type="line"/>
      <point x="223" y="534" type="line"/>
      <point x="21" y="534" type="line"/>
      <point x="96" y="0" type="line"/>
      <point x="161" y="1" type="line"/>
      <point x="126" y="-59"/>
      <point x="80" y="-83"/>
      <point x="-22" y="-93" type="curve"/>
      <point x="-18" y="-228" type="line"/>
      <point x="158" y="-223"/>
      <point x="280" y="-148"/>
      <point x="344" y="0" type="curve" smooth="yes"/>
      <point x="573" y="534" type="line"/>
    </contour>
    <contour>
      <point x="297" y="534" type="move" name="top"/>
    </contour>
  </outline>
</glyph>
<glyph name="z" format="1">
  <advance width="460"/>
  <unicode hex="007A"/>
  <outline>
    <contour>
      <point x="60" y="534" type="line"/>
      <point x="40" y="390" type="line"/>
      <point x="222" y="390" type="line"/>
      <point x="-16" y="138" type="line"/>
      <point x="-34" y="0" type="line"/>
      <point x="398" y="0" type="line"/>
      <point x="435" y="146" type="line"/>
      <point x="229" y="146" type="line"/>
      <point x="464" y="397" type="line"/>
      <point x="482" y="534" type="line"/>
    </contour>
    <contour>
      <point x="272" y="534" type="move" name="top"/>
    </contour>
  </outline>
</glyph>
<glyph name="braceleft" format="1">
  <advance width="313"/>
  <unicode hex="007B"/>
  <outline>
    <contour>
      <point x="177" y="842"/>
      <point x="130" y="780"/>
      <point x="114" y="669" type="curve" smooth="yes"/>
      <point x="93" y="516" type="line" smooth="yes"/>
      <point x="85" y="456"/>
      <point x="69" y="431"/>
      <point x="19" y="431" type="curve"/>
      <point x="-4" y="269" type="line"/>
      <point x="48" y="269"/>
      <point x="55" y="246"/>
      <point x="46" y="186" type="curve" smooth="yes"/>
      <point x="25" y="33" type="line" smooth="yes"/>
      <point x="10" y="-77"/>
      <point x="62" y="-142"/>
      <point x="245" y="-142" type="curve"/>
      <point x="261" y="-8" type="line"/>
      <point x="208" y="-8"/>
      <point x="203" y="6"/>
      <point x="208" y="45" type="curve" smooth="yes"/>
      <point x="230" y="199" type="line" smooth="yes"/>
      <point x="245" y="305"/>
      <point x="201" y="336"/>
      <point x="132" y="348" type="curve"/>
      <point x="209" y="366"/>
      <point x="257" y="400"/>
      <point x="271" y="499" type="curve" smooth="yes"/>
      <point x="292" y="653" type="line" smooth="yes"/>
      <point x="298" y="692"/>
      <point x="309" y="708"/>
      <point x="363" y="708" type="curve"/>
      <point x="381" y="842" type="line"/>
    </contour>
  </outline>
</glyph>
<glyph name="braceright" format="1">
  <advance width="313"/>
  <unicode hex="007D"/>
  <outline>
    <contour>
      <point x="159" y="-142"/>
      <point x="206" y="-80"/>
      <point x="222" y="31" type="curve" smooth="yes"/>
      <point x="243" y="184" type="line" smooth="yes"/>
      <point x="251" y="244"/>
      <point x="267" y="269"/>
      <point x="317" y="269" type="curve"/>
      <point x="340" y="431" type="line"/>
      <point x="288" y="431"/>
      <point x="281" y="454"/>
      <point x="290" y="514" type="curve" smooth="yes"/>
      <point x="311" y="667" type="line" smooth="yes"/>
      <point x="326" y="777"/>
      <point x="274" y="842"/>
      <point x="91" y="842" type="curve"/>
      <point x="75" y="708" type="line"/>
      <point x="128" y="708"/>
      <point x="133" y="694"/>
      <point x="128" y="655" type="curve" smooth="yes"/>
      <point x="106" y="501" type="line" smooth="yes"/>
      <point x="91" y="395"/>
      <point x="135" y="364"/>
      <point x="204" y="352" type="curve"/>
      <point x="127" y="334"/>
      <point x="79" y="300"/>
      <point x="65" y="201" type="curve" smooth="yes"/>
      <point x="44" y="47" type="line" smooth="yes"/>
      <point x="38" y="8"/>
      <point x="27" y="-8"/>
      <point x="-27" y="-8" type="curve"/>
      <point x="-45" y="-142" type="line"/>
    </contour>
  </outline>
</glyph>
<glyph name="exclamdown" format="1">
  <advance width="224"/>
  <unicode hex="00A1"/>
  <outline>
    <contour>
      <point x="33" y="228" type="line"/>
      <point x="-55" y="-207" type="line"/>
      <point x="149" y="-207" type="line"/>
      <point x="185" y="228" type="line"/>
    </contour>
    <component base="period" xOffset="43" yOffset="332"/>
  </outline>
</glyph>
<glyph name="cent" format="1">
  <advance width="468"/>
  <unicode hex="00A2"/>
  <outline>
    <contour>
      <point x="265" y="696" type="line"/>
      <point x="242" y="535" type="line"/>
      <point x="374" y="538" type="line"/>
      <point x="396" y="696" type="line"/>
    </contour>
    <contour>
      <point x="143" y="-165" type="line"/>
      <point x="276" y="-165" type="line"/>
      <point x="299" y="-5" type="line"/>
      <point x="167" y="-1" type="line"/>
    </contour>
    <component base="c"/>
  </outline>
</glyph>
<glyph name="yen" format="1">
  <advance width="576"/>
  <unicode hex="00A5"/>
  <outline>
    <contour>
      <point x="446" y="680" type="line"/>
      <point x="308" y="407" type="line"/>
      <point x="243" y="680" type="line"/>
      <point x="43" y="680" type="line"/>
      <point x="194" y="277" type="line"/>
      <point x="156" y="0" type="line"/>
      <point x="348" y="0" type="line"/>
      <point x="387" y="277" type="line"/>
      <point x="649" y="680" type="line"/>
    </contour>
    <contour>
      <point x="58" y="201" type="line"/>
      <point x="44" y="106" type="line"/>
      <point x="490" y="106" type="line"/>
      <point x="504" y="201" type="line"/>
    </contour>
    <contour>
      <point x="79" y="356" type="line"/>
      <point x="66" y="261" type="line"/>
      <point x="512" y="261" type="line"/>
      <point x="525" y="356" type="line"/>
    </contour>
  </outline>
</glyph>
<glyph name="brokenbar" format="1">
  <advance width="348"/>
  <unicode hex="00A6"/>
  <outline>
    <contour>
      <point x="159" y="812" type="line"/>
      <point x="107" y="443" type="line"/>
      <point x="290" y="443" type="line"/>
      <point x="341" y="812" type="line"/>
    </contour>
    <contour>
      <point x="82" y="262" type="line"/>
      <point x="31" y="-107" type="line"/>
      <point x="213" y="-107" type="line"/>
      <point x="265" y="262" type="line"/>
    </contour>
  </outline>
</glyph>
<glyph name="section" format="1">
  <advance width="548"/>
  <unicode hex="00A7"/>
  <outline>
    <contour>
      <point x="190" y="696"/>
      <point x="100" y="626"/>
      <point x="100" y="522" type="curve" smooth="yes"/>
      <point x="100" y="455"/>
      <point x="143" y="395"/>
      <point x="277" y="350" type="curve" smooth="yes"/>
      <point x="329" y="333"/>
      <point x="347" y="313"/>
      <point x="347" y="291" type="curve" smooth="yes"/>
      <point x="347" y="270"/>
      <point x="332" y="247"/>
      <point x="311" y="225" type="curve"/>
      <point x="408" y="180" type="line"/>
      <point x="468" y="210"/>
      <point x="516" y="253"/>
      <point x="516" y="329" type="curve" smooth="yes"/>
      <point x="516" y="409"/>
      <point x="462" y="445"/>
      <point x="385" y="468" type="curve" smooth="yes"/>
      <point x="301" y="495"/>
      <point x="285" y="505"/>
      <point x="285" y="527" type="curve" smooth="yes"/>
      <point x="285" y="549"/>
      <point x="302" y="564"/>
      <point x="350" y="564" type="curve" smooth="yes"/>
      <point x="388" y="564"/>
      <point x="432" y="552"/>
      <point x="470" y="526" type="curve"/>
      <point x="548" y="632" type="line"/>
      <point x="497" y="668"/>
      <point x="419" y="696"/>
      <point x="342" y="696" type="curve" smooth="yes"/>
    </contour>
    <contour>
      <point x="97" y="393"/>
      <point x="42" y="351"/>
      <point x="42" y="278" type="curve" smooth="yes"/>
      <point x="42" y="200"/>
      <point x="95" y="163"/>
      <point x="172" y="140" type="curve" smooth="yes"/>
      <point x="258" y="111"/>
      <point x="274" y="101"/>
      <point x="274" y="77" type="curve" smooth="yes"/>
      <point x="274" y="56"/>
      <point x="259" y="41"/>
      <point x="202" y="41" type="curve" smooth="yes"/>
      <point x="162" y="41"/>
      <point x="122" y="56"/>
      <point x="82" y="83" type="curve"/>
      <point x="8" y="-28" type="line"/>
      <point x="55" y="-63"/>
      <point x="125" y="-91"/>
      <point x="208" y="-91" type="curve" smooth="yes"/>
      <point x="392" y="-91"/>
      <point x="459" y="-5"/>
      <point x="459" y="84" type="curve" smooth="yes"/>
      <point x="459" y="159"/>
      <point x="405" y="202"/>
      <point x="266" y="258" type="curve" smooth="yes"/>
      <point x="225" y="275"/>
      <point x="212" y="295"/>
      <point x="212" y="315" type="curve" smooth="yes"/>
      <point x="212" y="333"/>
      <point x="220" y="356"/>
      <point x="245" y="382" type="curve"/>
      <point x="154" y="423" type="line"/>
    </contour>
  </outline>
</glyph>
<glyph name="dieresis" format="1">
  <advance width="487"/>
  <unicode hex="00A8"/>
  <outline>
    <contour>
      <point x="389" y="818"/>
      <point x="341" y="778"/>
      <point x="334" y="729" type="curve" smooth="yes"/>
      <point x="327" y="675"/>
      <point x="365" y="633"/>
      <point x="417" y="633" type="curve" smooth="yes"/>
      <point x="469" y="633"/>
      <point x="514" y="673"/>
      <point x="521" y="723" type="curve" smooth="yes"/>
      <point x="529" y="776"/>
      <point x="493" y="818"/>
      <point x="439" y="818" type="curve" smooth="yes"/>
    </contour>
    <contour>
      <point x="148" y="818"/>
      <point x="101" y="778"/>
      <point x="94" y="729" type="curve" smooth="yes"/>
      <point x="87" y="675"/>
      <point x="124" y="633"/>
      <point x="176" y="633" type="curve" smooth="yes"/>
      <point x="228" y="633"/>
      <point x="274" y="673"/>
      <point x="281" y="723" type="curve" smooth="yes"/>
      <point x="289" y="776"/>
      <point x="252" y="818"/>
      <point x="198" y="818" type="curve" smooth="yes"/>
    </contour>
    <contour>
      <point x="310" y="758" type="move" name="top"/>
    </contour>
    <contour>
      <point x="286" y="534" type="move" name="_top"/>
    </contour>
  </outline>
</glyph>
<glyph name="ordfeminine" format="1">
  <advance width="488"/>
  <unicode hex="00AA"/>
  <outline>
    <contour>
      <point x="244" y="696"/>
      <point x="175" y="684"/>
      <point x="119" y="663" type="curve"/>
      <point x="142" y="555" type="line"/>
      <point x="186" y="568"/>
      <point x="229" y="576"/>
      <point x="253" y="576" type="curve" smooth="yes"/>
      <point x="289" y="576"/>
      <point x="303" y="572"/>
      <point x="303" y="552" type="curve" smooth="yes"/>
      <point x="303" y="547"/>
      <point x="302" y="541"/>
      <point x="301" y="534" type="curve" smooth="yes"/>
      <point x="300.467" y="530" type="line"/>
      <point x="276" y="530" type="line" smooth="yes"/>
      <point x="103" y="530"/>
      <point x="50" y="458"/>
      <point x="50" y="381" type="curve" smooth="yes"/>
      <point x="50" y="315"/>
      <point x="96" y="260"/>
      <point x="174" y="260" type="curve" smooth="yes"/>
      <point x="220.822" y="260"/>
      <point x="271.016" y="274.329"/>
      <point x="307.557" y="318.463" type="curve"/>
      <point x="331.731" y="282.316"/>
      <point x="367.417" y="266.629"/>
      <point x="420" y="264" type="curve"/>
      <point x="468" y="374" type="line"/>
      <point x="445" y="382"/>
      <point x="447" y="398"/>
      <point x="450" y="417" type="curve" smooth="yes"/>
      <point x="467" y="534" type="line" smooth="yes"/>
      <point x="469" y="547"/>
      <point x="470" y="563"/>
      <point x="470" y="573" type="curve" smooth="yes"/>
      <point x="470" y="656"/>
      <point x="416" y="696"/>
      <point x="291" y="696" type="curve" smooth="yes"/>
    </contour>
    <contour>
      <point x="282.486" y="395.142" type="line"/>
      <point x="273.521" y="387.911"/>
      <point x="259.754" y="381"/>
      <point x="245" y="381" type="curve" smooth="yes"/>
      <point x="230" y="381"/>
      <point x="225" y="389"/>
      <point x="225" y="402" type="curve" smooth="yes"/>
      <point x="225" y="433"/>
      <point x="244" y="442"/>
      <point x="281" y="442" type="curve" smooth="yes"/>
      <point x="288.733" y="442" type="line"/>
    </contour>
    <component base="minus" xOffset="-42" yOffset="-257" xScale="0.95"/>
  </outline>
</glyph>
<glyph name="logicalnot" format="1">
  <advance width="536"/>
  <unicode hex="00AC"/>
  <outline>
    <contour>
      <point x="58" y="407" type="line"/>
      <point x="37" y="257" type="line"/>
      <point x="341" y="257" type="line"/>
      <point x="318" y="97" type="line"/>
      <point x="474" y="97" type="line"/>
      <point x="518" y="407" type="line"/>
    </contour>
  </outline>
</glyph>
<glyph name="macron" format="1">
  <advance width="373"/>
  <unicode hex="00AF"/>
  <outline>
    <contour>
      <point x="418" y="782" type="line"/>
      <point x="99" y="782" type="line"/>
      <point x="80" y="648" type="line"/>
      <point x="399" y="648" type="line"/>
    </contour>
    <contour>
      <point x="224" y="534" type="move" name="_top"/>
    </contour>
  </outline>
</glyph>
<glyph name="degree" format="1">
  <advance width="507"/>
  <unicode hex="00B0"/>
  <outline>
    <contour>
      <point x="200" y="473"/>
      <point x="186" y="503"/>
      <point x="191" y="538" type="curve" smooth="yes"/>
      <point x="197" y="577"/>
      <point x="221" y="608"/>
      <point x="261" y="608" type="curve" smooth="yes"/>
      <point x="299" y="608"/>
      <point x="313" y="579"/>
      <point x="308" y="544" type="curve" smooth="yes"/>
      <point x="302" y="505"/>
      <point x="278" y="473"/>
      <point x="238" y="473" type="curve" smooth="yes"/>
    </contour>
    <contour>
      <point x="314" y="362"/>
      <point x="417" y="430"/>
      <point x="432" y="538" type="curve" smooth="yes"/>
      <point x="447" y="650"/>
      <point x="362" y="716"/>
      <point x="272" y="716" type="curve" smooth="yes"/>
      <point x="184" y="716"/>
      <point x="81" y="652"/>
      <point x="67" y="544" type="curve" smooth="yes"/>
      <point x="51" y="432"/>
      <point x="136" y="362"/>
      <point x="226" y="362" type="curve" smooth="yes"/>
    </contour>
  </outline>
</glyph>
<glyph name="acute" format="1">
  <advance width="352"/>
  <unicode hex="00B4"/>
  <outline>
    <contour>
      <point x="90" y="712" type="line"/>
      <point x="128" y="613" type="line"/>
      <point x="388" y="712" type="line"/>
      <point x="334" y="856" type="line"/>
    </contour>
    <contour>
      <point x="223" y="534" type="move" name="_top"/>
    </contour>
  </outline>
</glyph>
<glyph name="paragraph" format="1">
  <advance width="808"/>
  <unicode hex="00B6"/>
  <outline>
    <contour>
      <point x="388" y="696" type="line"/>
      <point x="349" y="662" type="line"/>
      <point x="225" y="-228" type="line"/>
      <point x="395" y="-207" type="line"/>
      <point x="503" y="563" type="line"/>
      <point x="580" y="563" type="line"/>
      <point x="470" y="-228" type="line"/>
      <point x="640" y="-207" type="line"/>
      <point x="767" y="696" type="line"/>
    </contour>
    <contour>
      <point x="207" y="703"/>
      <point x="99" y="611"/>
      <point x="79" y="476" type="curve" smooth="yes"/>
      <point x="61" y="339"/>
      <point x="141" y="246"/>
      <point x="312" y="252" type="curve"/>
      <point x="387" y="696" type="line"/>
    </contour>
  </outline>
</glyph>
<glyph name="questiondown" format="1">
  <advance width="483"/>
  <unicode hex="00BF"/>
  <outline>
    <contour>
      <point x="280" y="-227"/>
      <point x="362" y="-182"/>
      <point x="426" y="-116" type="curve"/>
      <point x="319" y="-18" type="line"/>
      <point x="280" y="-53"/>
      <point x="243" y="-73"/>
      <point x="208" y="-73" type="curve" smooth="yes"/>
      <point x="179" y="-73"/>
      <point x="165" y="-62"/>
      <point x="165" y="-43" type="curve" smooth="yes"/>
      <point x="165" y="41"/>
      <point x="353" y="33"/>
      <point x="353" y="200" type="curve" smooth="yes"/>
      <point x="353" y="216"/>
      <point x="351" y="232"/>
      <point x="347" y="248" type="curve"/>
      <point x="176" y="223" type="line"/>
      <point x="177" y="218"/>
      <point x="178" y="210"/>
      <point x="178" y="205" type="curve" smooth="yes"/>
      <point x="177" y="95"/>
      <point x="-42" y="123"/>
      <point x="-42" y="-75" type="curve"/>
      <point x="-42" y="-159"/>
      <point x="26" y="-227"/>
      <point x="168" y="-227" type="curve" smooth="yes"/>
    </contour>
    <component base="period" xOffset="362" yOffset="489" xScale="-1" yScale="-1"/>
  </outline>
</glyph>
<glyph name="AE" format="1">
  <advance width="847"/>
  <unicode hex="00C6"/>
  <outline>
    <contour>
      <point x="288" y="696" type="line"/>
      <point x="-64" y="0" type="line"/>
      <point x="155" y="0" type="line"/>
      <point x="397" y="549" type="line"/>
      <point x="401" y="0" type="line"/>
      <point x="791" y="0" type="line"/>
      <point x="811" y="144" type="line"/>
      <point x="583" y="144" type="line"/>
      <point x="571" y="553" type="line"/>
      <point x="814" y="553" type="line"/>
      <point x="854" y="696" type="line"/>
    </contour>
    <contour>
      <point x="261" y="279" type="line"/>
      <point x="198" y="135" type="line"/>
      <point x="408" y="135" type="line"/>
      <point x="409" y="279" type="line"/>
    </contour>
    <contour>
      <point x="558" y="421" type="line"/>
      <point x="565" y="282" type="line"/>
      <point x="788" y="282" type="line"/>
      <point x="806" y="421" type="line"/>
    </contour>
    <contour>
      <point x="541" y="696" type="move" name="top"/>
    </contour>
  </outline>
</glyph>
<glyph name="Eth" format="1">
  <advance width="654"/>
  <unicode hex="00D0"/>
  <outline>
    <contour>
      <point x="78" y="411" type="line"/>
      <point x="30" y="411" type="line"/>
      <point x="14" y="295" type="line"/>
      <point x="382" y="295" type="line"/>
      <point x="398" y="411" type="line"/>
    </contour>
    <component base="D" xOffset="9"/>
  </outline>
</glyph>
<glyph name="Oslash" format="1">
  <advance width="678"/>
  <unicode hex="00D8"/>
  <outline>
    <contour>
      <point x="436" y="709" type="line"/>
      <point x="407" y="590" type="line"/>
      <point x="229" y="180" type="line"/>
      <point x="125" y="33" type="line"/>
      <point x="65" y="-99" type="line"/>
      <point x="208" y="-139" type="line"/>
      <point x="264" y="-12" type="line"/>
      <point x="299" y="112" type="line"/>
      <point x="480" y="532" type="line"/>
      <point x="576" y="664" type="line"/>
      <point x="635" y="793" type="line"/>
      <point x="493" y="833" type="line"/>
    </contour>
    <contour>
      <point x="112" y="716"/>
      <point x="25" y="458"/>
      <point x="25" y="268" type="curve" smooth="yes"/>
      <point x="25" y="89"/>
      <point x="121" y="-20"/>
      <point x="301" y="-20" type="curve"/>
      <point x="591" y="-20"/>
      <point x="676" y="241"/>
      <point x="676" y="429" type="curve" smooth="yes"/>
      <point x="676" y="609"/>
      <point x="580" y="716"/>
      <point x="400" y="716" type="curve"/>
    </contour>
    <contour>
      <point x="441" y="570"/>
      <point x="472" y="566"/>
      <point x="472" y="452" type="curve" smooth="yes"/>
      <point x="472" y="346"/>
      <point x="446" y="126"/>
      <point x="317" y="126" type="curve" smooth="yes"/>
      <point x="260" y="126"/>
      <point x="228" y="129"/>
      <point x="228" y="246" type="curve" smooth="yes"/>
      <point x="228" y="348"/>
      <point x="255" y="570"/>
      <point x="384" y="570" type="curve"/>
    </contour>
    <contour>
      <point x="406" y="741" type="move" name="top"/>
    </contour>
    <contour>
      <point x="162" y="696" type="move" name="topleft"/>
    </contour>
  </outline>
</glyph>
<glyph name="Thorn" format="1">
  <advance width="600"/>
  <unicode hex="00DE"/>
  <outline>
    <contour>
      <point x="227" y="593" type="line"/>
      <point x="268" y="450" type="line"/>
      <point x="313" y="450" type="line" smooth="yes"/>
      <point x="370" y="450"/>
      <point x="394" y="423"/>
      <point x="394" y="380" type="curve" smooth="yes"/>
      <point x="394" y="333"/>
      <point x="375" y="251"/>
      <point x="288" y="251" type="curve" smooth="yes"/>
      <point x="227" y="251" type="line"/>
      <point x="207" y="106" type="line"/>
      <point x="290" y="106" type="line" smooth="yes"/>
      <point x="534" y="106"/>
      <point x="602" y="271"/>
      <point x="602" y="386" type="curve" smooth="yes"/>
      <point x="602" y="527"/>
      <point x="501" y="593"/>
      <point x="334" y="593" type="curve" smooth="yes"/>
    </contour>
    <contour>
      <point x="103" y="696" type="line"/>
      <point x="6" y="0" type="line"/>
      <point x="208" y="0" type="line"/>
      <point x="305" y="696" type="line"/>
    </contour>
    <contour>
      <point x="204" y="696" type="move" name="top"/>
    </contour>
  </outline>
</glyph>
<glyph name="germandbls" format="1">
  <advance width="600"/>
  <unicode hex="00DF"/>
  <outline>
    <contour>
      <point x="443" y="490"/>
      <point x="560" y="505"/>
      <point x="560" y="611" type="curve" smooth="yes"/>
      <point x="560" y="698"/>
      <point x="494" y="764"/>
      <point x="360" y="764" type="curve" smooth="yes"/>
      <point x="196" y="764"/>
      <point x="98" y="675"/>
      <point x="78" y="531" type="curve"/>
      <point x="10" y="44" type="line" smooth="yes"/>
      <point x="0" y="-29"/>
      <point x="-45" y="-61"/>
      <point x="-116" y="-86" type="curve"/>
      <point x="-69" y="-227" type="line"/>
      <point x="66" y="-184"/>
      <point x="183" y="-112"/>
      <point x="209" y="76" type="curve" smooth="yes"/>
      <point x="273" y="536" type="line" smooth="yes"/>
      <point x="281" y="596"/>
      <point x="301" y="629"/>
      <point x="341" y="629" type="curve" smooth="yes"/>
      <point x="363" y="629"/>
      <point x="374" y="615"/>
      <point x="374" y="595" type="curve" smooth="yes"/>
      <point x="374" y="508"/>
      <point x="271" y="501"/>
      <point x="271" y="375" type="curve" smooth="yes"/>
      <point x="271" y="269"/>
      <point x="383" y="260"/>
      <point x="383" y="181" type="curve" smooth="yes"/>
      <point x="383" y="165"/>
      <point x="376" y="130"/>
      <point x="331" y="130" type="curve" smooth="yes"/>
      <point x="321" y="130"/>
      <point x="308" y="132"/>
      <point x="295" y="139" type="curve"/>
      <point x="222" y="10" type="line"/>
      <point x="254" y="-7"/>
      <point x="300" y="-20"/>
      <point x="347" y="-20" type="curve" smooth="yes"/>
      <point x="519" y="-20"/>
      <point x="584" y="97"/>
      <point x="584" y="193" type="curve" smooth="yes"/>
      <point x="584" y="344"/>
      <point x="443" y="360"/>
      <point x="443" y="424" type="curve" smooth="yes"/>
    </contour>
  </outline>
</glyph>
<glyph name="ae" format="1">
  <advance width="844"/>
  <unicode hex="00E6"/>
  <outline>
    <contour>
      <point x="237" y="554"/>
      <point x="161" y="540"/>
      <point x="91" y="513" type="curve"/>
      <point x="119" y="387" type="line"/>
      <point x="174" y="405"/>
      <point x="226" y="412"/>
      <point x="254" y="412" type="curve" smooth="yes"/>
      <point x="306" y="412"/>
      <point x="342" y="400"/>
      <point x="348" y="370" type="curve"/>
      <point x="343" y="359"/>
      <point x="337" y="347"/>
      <point x="332" y="330" type="curve"/>
      <point x="286" y="330" type="line" smooth="yes"/>
      <point x="54" y="330"/>
      <point x="-2" y="224"/>
      <point x="-2" y="127" type="curve" smooth="yes"/>
      <point x="-2" y="39"/>
      <point x="64" y="-20"/>
      <point x="165" y="-20" type="curve" smooth="yes"/>
      <point x="236" y="-20"/>
      <point x="300" y="1"/>
      <point x="360" y="65" type="curve"/>
      <point x="398" y="11"/>
      <point x="465" y="-20"/>
      <point x="563" y="-20" type="curve" smooth="yes"/>
      <point x="653" y="-20"/>
      <point x="729" y="13"/>
      <point x="788" y="56" type="curve"/>
      <point x="721" y="169" type="line"/>
      <point x="671" y="137"/>
      <point x="633" y="120"/>
      <point x="589" y="120" type="curve" smooth="yes"/>
      <point x="546" y="120"/>
      <point x="513" y="131"/>
      <point x="508" y="191" type="curve"/>
      <point x="663" y="205"/>
      <point x="847" y="252"/>
      <point x="847" y="401" type="curve" smooth="yes"/>
      <point x="847" y="488"/>
      <point x="772" y="554"/>
      <point x="633" y="554" type="curve" smooth="yes"/>
      <point x="562" y="554"/>
      <point x="493" y="528"/>
      <point x="453" y="489" type="curve"/>
      <point x="419" y="529"/>
      <point x="375" y="554"/>
      <point x="296" y="554" type="curve" smooth="yes"/>
    </contour>
    <contour>
      <point x="316" y="194"/>
      <point x="317" y="178"/>
      <point x="320" y="162" type="curve"/>
      <point x="293" y="138"/>
      <point x="270" y="119"/>
      <point x="242" y="119" type="curve" smooth="yes"/>
      <point x="213" y="119"/>
      <point x="202" y="137"/>
      <point x="202" y="159" type="curve" smooth="yes"/>
      <point x="202" y="200"/>
      <point x="235" y="222"/>
      <point x="287" y="222" type="curve" smooth="yes"/>
      <point x="316" y="222" type="line"/>
    </contour>
    <contour>
      <point x="643" y="429"/>
      <point x="653" y="413"/>
      <point x="653" y="389" type="curve" smooth="yes"/>
      <point x="653" y="372"/>
      <point x="637" y="309"/>
      <point x="516" y="302" type="curve"/>
      <point x="528" y="367"/>
      <point x="556" y="429"/>
      <point x="610" y="429" type="curve" smooth="yes"/>
    </contour>
    <contour>
      <point x="460" y="534" type="move" name="top"/>
    </contour>
  </outline>
</glyph>
<glyph name="eth" format="1">
  <advance width="571.652"/>
  <unicode hex="00F0"/>
  <outline>
    <contour>
      <point x="473" y="726" type="line"/>
      <point x="388" y="811" type="line"/>
      <point x="301.912" y="730.293" type="line"/>
      <point x="247.345" y="749.008"/>
      <point x="209.08" y="757.094"/>
      <point x="167" y="763" type="curve"/>
      <point x="114" y="639" type="line"/>
      <point x="133.381" y="636.063"/>
      <point x="158.282" y="631.402"/>
      <point x="186.474" y="624.206" type="curve"/>
      <point x="135" y="576" type="line"/>
      <point x="247" y="521" type="line"/>
      <point x="298.739" y="567.733" type="line"/>
      <point x="341.468" y="529.637"/>
      <point x="359.591" y="493.25"/>
      <point x="371.843" y="444.043" type="curve"/>
      <point x="339.587" y="467.825"/>
      <point x="305.049" y="482"/>
      <point x="253" y="482" type="curve" smooth="yes"/>
      <point x="87.9999" y="482"/>
      <point x="7.9999" y="328"/>
      <point x="7.9999" y="197" type="curve" smooth="yes"/>
      <point x="7.9999" y="58"/>
      <point x="109" y="-20"/>
      <point x="246" y="-20" type="curve" smooth="yes"/>
      <point x="424" y="-20"/>
      <point x="531" y="121"/>
      <point x="553" y="281" type="curve" smooth="yes"/>
      <point x="558" y="313"/>
      <point x="560" y="343"/>
      <point x="560" y="373" type="curve" smooth="yes"/>
      <point x="560" y="492.946"/>
      <point x="518.607" y="591.429"/>
      <point x="415.016" y="672.476" type="curve"/>
    </contour>
    <contour>
      <point x="227" y="121"/>
      <point x="206" y="139"/>
      <point x="206" y="191" type="curve" smooth="yes"/>
      <point x="206" y="249"/>
      <point x="223" y="348"/>
      <point x="296" y="348" type="curve" smooth="yes"/>
      <point x="322.549" y="348"/>
      <point x="344.28" y="340.428"/>
      <point x="361.764" y="326.426" type="curve"/>
      <point x="359" y="302"/>
      <point x="356" y="277"/>
      <point x="352" y="253" type="curve" smooth="yes"/>
      <point x="339" y="171"/>
      <point x="317" y="121"/>
      <point x="262" y="121" type="curve" smooth="yes"/>
    </contour>
  </outline>
</glyph>
<glyph name="oslash" format="1">
  <advance width="572"/>
  <unicode hex="00F8"/>
  <outline>
    <contour>
      <point x="348.052" y="553.116" type="line"/>
      <point x="339.899" y="553.703"/>
      <point x="331.546" y="554"/>
      <point x="323" y="554" type="curve" smooth="yes"/>
      <point x="89" y="554"/>
      <point x="11" y="370"/>
      <point x="11" y="211" type="curve" smooth="yes"/>
      <point x="11" y="127.131"/>
      <point x="40.7758" y="63"/>
      <point x="94.3282" y="23.8334" type="curve"/>
      <point x="40" y="-97" type="line"/>
      <point x="172" y="-138" type="line"/>
      <point x="223.831" y="-19.2603" type="line"/>
      <point x="232" y="-20"/>
      <point x="239" y="-20"/>
      <point x="247" y="-20" type="curve" smooth="yes"/>
      <point x="481" y="-20"/>
      <point x="559" y="165"/>
      <point x="560" y="323" type="curve" smooth="yes"/>
      <point x="560.577" y="405.011"/>
      <point x="530.801" y="469.343"/>
      <point x="477.029" y="509.062" type="curve"/>
      <point x="535" y="632" type="line"/>
      <point x="402" y="673" type="line"/>
    </contour>
    <contour>
      <point x="308" y="412"/>
      <point x="309" y="412"/>
      <point x="309.977" y="411.952" type="curve"/>
      <point x="201" y="176" type="line"/>
      <point x="200" y="183"/>
      <point x="199" y="193.151"/>
      <point x="199" y="201" type="curve" smooth="yes"/>
      <point x="199" y="270"/>
      <point x="222" y="412"/>
      <point x="307" y="412" type="curve" smooth="yes"/>
    </contour>
    <contour>
      <point x="372" y="349"/>
      <point x="372.115" y="339.548"/>
      <point x="372" y="333" type="curve" smooth="yes"/>
      <point x="371" y="264"/>
      <point x="348" y="122"/>
      <point x="266" y="122" type="curve" smooth="yes"/>
      <point x="265" y="122"/>
      <point x="264" y="122"/>
      <point x="263.301" y="122.015" type="curve"/>
      <point x="371" y="354" type="line"/>
    </contour>
    <contour>
      <point x="312" y="573" type="move" name="top"/>
    </contour>
  </outline>
</glyph>
<glyph name="thorn" format="1">
  <advance width="587"/>
  <unicode hex="00FE"/>
  <outline>
    <contour>
      <point x="361" y="554"/>
      <point x="302" y="531"/>
      <point x="266" y="495" type="curve"/>
      <point x="304" y="764" type="line"/>
      <point x="108" y="744" type="line"/>
      <point x="-28" y="-227" type="line"/>
      <point x="168" y="-207" type="line"/>
      <point x="197" y="-8" type="line"/>
      <point x="213" y="-13"/>
      <point x="249" y="-20"/>
      <point x="286" y="-20" type="curve" smooth="yes"/>
      <point x="511" y="-20"/>
      <point x="572" y="191"/>
      <point x="572" y="347" type="curve" smooth="yes"/>
      <point x="572" y="478"/>
      <point x="519" y="554"/>
      <point x="406" y="554" type="curve" smooth="yes"/>
    </contour>
    <contour>
      <point x="246" y="121"/>
      <point x="229" y="126"/>
      <point x="216" y="131" type="curve"/>
      <point x="248" y="359" type="line"/>
      <point x="273" y="396"/>
      <point x="300" y="412"/>
      <point x="327" y="412" type="curve" smooth="yes"/>
      <point x="352" y="412"/>
      <point x="373" y="400"/>
      <point x="373" y="338" type="curve" smooth="yes"/>
      <point x="373" y="249"/>
      <point x="346" y="121"/>
      <point x="267" y="121" type="curve" smooth="yes"/>
    </contour>
  </outline>
</glyph>
<glyph name="dcroat" format="1">
  <advance width="598"/>
  <unicode hex="0111"/>
  <outline>
    <contour>
      <point x="285" y="696" type="line"/>
      <point x="284" y="590" type="line"/>
      <point x="592" y="590" type="line"/>
      <point x="643" y="590" type="line"/>
      <point x="658" y="696" type="line"/>
    </contour>
    <component base="d"/>
  </outline>
</glyph>
<glyph name="Hbar" format="1">
  <advance width="669"/>
  <unicode hex="0126"/>
  <outline>
    <contour>
      <point x="654" y="601" type="line"/>
      <point x="51" y="601" type="line"/>
      <point x="36" y="495" type="line"/>
      <point x="86" y="495" type="line"/>
      <point x="693" y="495" type="line"/>
      <point x="708" y="601" type="line"/>
    </contour>
    <component base="H" xOffset="10"/>
  </outline>
</glyph>
<glyph name="hbar" format="1">
  <advance width="570"/>
  <unicode hex="0127"/>
  <outline>
    <contour>
      <point x="61" y="696" type="line"/>
      <point x="46" y="590" type="line"/>
      <point x="97" y="590" type="line"/>
      <point x="404" y="590" type="line"/>
      <point x="434" y="696" type="line"/>
    </contour>
    <component base="h" xOffset="10"/>
  </outline>
</glyph>
<glyph name="dotlessi" format="1">
  <advance width="276"/>
  <unicode hex="0131"/>
  <outline>
    <contour>
      <point x="78" y="534" type="line"/>
      <point x="4" y="0" type="line"/>
      <point x="198" y="0" type="line"/>
      <point x="272" y="534" type="line"/>
    </contour>
    <contour>
      <point x="169" y="0" type="move" name="ogonek"/>
    </contour>
    <contour>
      <point x="101" y="0" type="move" name="bottom"/>
    </contour>
    <contour>
      <point x="175" y="534" type="move" name="top"/>
    </contour>
  </outline>
</glyph>
<glyph name="kgreenlandic" format="1">
  <advance width="563"/>
  <unicode hex="0138"/>
  <outline>
    <contour>
      <point x="405" y="534" type="line"/>
      <point x="241" y="282" type="line"/>
      <point x="333" y="0" type="line"/>
      <point x="543" y="0" type="line"/>
      <point x="439" y="285" type="line"/>
      <point x="609" y="534" type="line"/>
    </contour>
    <contour>
      <point x="78" y="534" type="line"/>
      <point x="4" y="0" type="line"/>
      <point x="199" y="0" type="line"/>
      <point x="273" y="534" type="line"/>
    </contour>
  </outline>
</glyph>
<glyph name="Lslash" format="1">
  <advance width="562"/>
  <unicode hex="0141"/>
  <outline>
    <contour>
      <point x="278" y="158" type="line"/>
      <point x="302" y="332" type="line"/>
      <point x="486" y="439" type="line"/>
      <point x="437" y="541" type="line"/>
      <point x="322" y="474" type="line"/>
      <point x="353" y="696" type="line"/>
      <point x="151" y="696" type="line"/>
      <point x="102" y="346" type="line"/>
      <point x="0" y="287" type="line"/>
      <point x="47" y="184" type="line"/>
      <point x="83" y="205" type="line"/>
      <point x="54" y="0" type="line"/>
      <point x="493" y="0" type="line"/>
      <point x="535" y="158" type="line"/>
    </contour>
  </outline>
</glyph>
<glyph name="lslash" format="1">
  <advance width="359"/>
  <unicode hex="0142"/>
  <outline>
    <contour>
      <point x="-4" y="343" type="line"/>
      <point x="24" y="227" type="line"/>
      <point x="385" y="435" type="line"/>
      <point x="360" y="554" type="line"/>
    </contour>
    <component base="l" xOffset="36"/>
  </outline>
</glyph>
<glyph name="Eng" format="1">
  <advance width="639"/>
  <unicode hex="014A"/>
  <outline>
    <contour>
      <point x="397" y="66" type="line"/>
      <point x="383" y="-31"/>
      <point x="344" y="-61"/>
      <point x="247" y="-94" type="curve"/>
      <point x="291" y="-227" type="line"/>
      <point x="452" y="-188"/>
      <point x="543" y="-112"/>
      <point x="559" y="0" type="curve"/>
    </contour>
    <contour>
      <point x="480" y="696" type="line"/>
      <point x="450" y="484" type="line" smooth="yes"/>
      <point x="431" y="348"/>
      <point x="435" y="268"/>
      <point x="442" y="169" type="curve"/>
      <point x="353" y="696" type="line"/>
      <point x="103" y="696" type="line"/>
      <point x="6" y="0" type="line"/>
      <point x="182" y="0" type="line"/>
      <point x="211" y="205" type="line" smooth="yes"/>
      <point x="230" y="344"/>
      <point x="225" y="440"/>
      <point x="220" y="527" type="curve"/>
      <point x="305" y="0" type="line"/>
      <point x="559" y="0" type="line"/>
      <point x="656" y="696" type="line"/>
    </contour>
    <contour>
      <point x="380" y="696" type="move" name="top"/>
    </contour>
    <contour>
      <point x="283" y="0" type="move" name="bottom"/>
    </contour>
  </outline>
</glyph>
<glyph name="eng" format="1">
  <advance width="560"/>
  <unicode hex="014B"/>
  <outline>
    <contour>
      <point x="364" y="554"/>
      <point x="290" y="511"/>
      <point x="248" y="446" type="curve"/>
      <point x="247" y="534" type="line"/>
      <point x="78" y="534" type="line"/>
      <point x="4" y="0" type="line"/>
      <point x="198" y="0" type="line"/>
      <point x="238" y="278" type="line"/>
      <point x="273" y="353"/>
      <point x="305" y="393"/>
      <point x="328" y="393" type="curve" smooth="yes"/>
      <point x="342" y="393"/>
      <point x="351" y="384"/>
      <point x="345" y="341" type="curve" smooth="yes"/>
      <point x="304" y="66" type="line" smooth="yes"/>
      <point x="291" y="-21"/>
      <point x="250" y="-60"/>
      <point x="172" y="-85" type="curve"/>
      <point x="219" y="-227" type="line"/>
      <point x="354" y="-184"/>
      <point x="471" y="-112"/>
      <point x="497" y="76" type="curve" smooth="yes"/>
      <point x="542" y="393" type="line" smooth="yes"/>
      <point x="557" y="496"/>
      <point x="510" y="554"/>
      <point x="422" y="554" type="curve" smooth="yes"/>
    </contour>
  </outline>
</glyph>
<glyph name="OE" format="1">
  <advance width="890"/>
  <unicode hex="0152"/>
  <outline>
    <contour>
      <point x="113" y="716"/>
      <point x="25" y="454"/>
      <point x="25" y="267" type="curve" smooth="yes"/>
      <point x="25" y="86"/>
      <point x="118" y="-20"/>
      <point x="283" y="-20" type="curve" smooth="yes"/>
      <point x="363" y="-20"/>
      <point x="436" y="8"/>
      <point x="488" y="67" type="curve"/>
      <point x="625" y="155"/>
      <point x="650" y="292"/>
      <point x="650" y="405" type="curve" smooth="yes"/>
      <point x="650" y="503"/>
      <point x="623" y="586"/>
      <point x="557" y="638" type="curve"/>
      <point x="528" y="688"/>
      <point x="463" y="716"/>
      <point x="382" y="716" type="curve" smooth="yes"/>
    </contour>
    <contour>
      <point x="545" y="144" type="line"/>
      <point x="382" y="0" type="line"/>
      <point x="831" y="0" type="line"/>
      <point x="851" y="144" type="line"/>
    </contour>
    <contour>
      <point x="642" y="423" type="line"/>
      <point x="624" y="284" type="line"/>
      <point x="827" y="284" type="line"/>
      <point x="845" y="423" type="line"/>
    </contour>
    <contour>
      <point x="439" y="696" type="line"/>
      <point x="571" y="553" type="line"/>
      <point x="892" y="553" type="line"/>
      <point x="932" y="696" type="line"/>
    </contour>
    <contour>
      <point x="421" y="570"/>
      <point x="447" y="537"/>
      <point x="447" y="455" type="curve" smooth="yes"/>
      <point x="447" y="306"/>
      <point x="417" y="126"/>
      <point x="306" y="126" type="curve" smooth="yes"/>
      <point x="257" y="126"/>
      <point x="232" y="160"/>
      <point x="232" y="244" type="curve" smooth="yes"/>
      <point x="232" y="390"/>
      <point x="258" y="570"/>
      <point x="372" y="570" type="curve" smooth="yes"/>
    </contour>
  </outline>
</glyph>
<glyph name="oe" format="1">
  <advance width="883"/>
  <unicode hex="0153"/>
  <outline>
    <contour>
      <point x="89" y="554"/>
      <point x="11" y="370"/>
      <point x="11" y="211" type="curve" smooth="yes"/>
      <point x="11" y="66"/>
      <point x="100" y="-20"/>
      <point x="247" y="-20" type="curve"/>
      <point x="481" y="-20"/>
      <point x="514" y="215"/>
      <point x="555" y="323" type="curve"/>
      <point x="556" y="385"/>
      <point x="481" y="554"/>
      <point x="323" y="554" type="curve"/>
    </contour>
    <contour>
      <point x="344" y="412"/>
      <point x="363" y="390"/>
      <point x="362" y="333" type="curve" smooth="yes"/>
      <point x="361" y="264"/>
      <point x="348" y="122"/>
      <point x="263" y="122" type="curve" smooth="yes"/>
      <point x="227" y="122"/>
      <point x="209" y="144"/>
      <point x="209" y="201" type="curve" smooth="yes"/>
      <point x="209" y="270"/>
      <point x="222" y="412"/>
      <point x="307" y="412" type="curve"/>
    </contour>
    <contour>
      <point x="445" y="554"/>
      <point x="383" y="326"/>
      <point x="353" y="211" type="curve"/>
      <point x="383" y="85"/>
      <point x="431" y="-20"/>
      <point x="602" y="-20" type="curve" smooth="yes"/>
      <point x="692" y="-20"/>
      <point x="768" y="13"/>
      <point x="827" y="56" type="curve"/>
      <point x="760" y="169" type="line"/>
      <point x="710" y="137"/>
      <point x="672" y="120"/>
      <point x="628" y="120" type="curve" smooth="yes"/>
      <point x="581" y="120"/>
      <point x="546" y="140"/>
      <point x="546" y="208" type="curve"/>
      <point x="546" y="286"/>
      <point x="567" y="429"/>
      <point x="649" y="429" type="curve" smooth="yes"/>
      <point x="682" y="429"/>
      <point x="692" y="413"/>
      <point x="692" y="389" type="curve" smooth="yes"/>
      <point x="692" y="371"/>
      <point x="675" y="305"/>
      <point x="544" y="302" type="curve"/>
      <point x="530" y="190" type="line"/>
      <point x="689" y="202"/>
      <point x="886" y="247"/>
      <point x="886" y="401" type="curve" smooth="yes"/>
      <point x="886" y="488"/>
      <point x="811" y="554"/>
      <point x="672" y="554" type="curve" smooth="yes"/>
    </contour>
    <contour>
      <point x="485" y="534" type="move" name="top"/>
    </contour>
  </outline>
</glyph>
<glyph name="tbar" format="1">
  <advance width="394"/>
  <unicode hex="0167"/>
  <outline>
    <contour>
      <point x="75" y="364" type="line"/>
      <point x="19" y="364" type="line"/>
      <point x="2" y="240" type="line"/>
      <point x="330" y="240" type="line"/>
      <point x="366" y="364" type="line"/>
    </contour>
    <component base="t"/>
  </outline>
</glyph>
<glyph name="uni0188" format="1">
  <advance width="468"/>
  <unicode hex="0188"/>
  <outline>
    <contour>
      <point x="107" y="554"/>
      <point x="10" y="355"/>
      <point x="10" y="217" type="curve" smooth="yes"/>
      <point x="10" y="74"/>
      <point x="99" y="-20"/>
      <point x="254" y="-20" type="curve" smooth="yes"/>
      <point x="332" y="-20"/>
      <point x="393" y="5"/>
      <point x="447" y="44" type="curve"/>
      <point x="377" y="168" type="line"/>
      <point x="340" y="145"/>
      <point x="315" y="133"/>
      <point x="282" y="133" type="curve" smooth="yes"/>
      <point x="242" y="133"/>
      <point x="213" y="148"/>
      <point x="213" y="212" type="curve" smooth="yes"/>
      <point x="213" y="291"/>
      <point x="233" y="405"/>
      <point x="326" y="405" type="curve" smooth="yes"/>
      <point x="361" y="405"/>
      <point x="394" y="396"/>
      <point x="424" y="381" type="curve"/>
      <point x="505" y="480" type="line"/>
      <point x="484" y="503"/>
      <point x="458" y="511"/>
      <point x="429" y="508" type="curve"/>
      <point x="400" y="532"/>
      <point x="346" y="554"/>
      <point x="294" y="554" type="curve" smooth="yes"/>
    </contour>
    <contour>
      <point x="517" y="567" type="line" smooth="yes"/>
      <point x="523" y="604"/>
      <point x="537" y="622"/>
      <point x="569" y="622" type="curve" smooth="yes"/>
      <point x="589" y="622"/>
      <point x="608" y="617"/>
      <point x="628" y="606" type="curve"/>
      <point x="694" y="726" type="line"/>
      <point x="664" y="746"/>
      <point x="619" y="764"/>
      <point x="554" y="764" type="curve" smooth="yes"/>
      <point x="432" y="764"/>
      <point x="370" y="696"/>
      <point x="354" y="586" type="curve" smooth="yes"/>
      <point x="347" y="533" type="line"/>
      <point x="505" y="480" type="line"/>
    </contour>
  </outline>
</glyph>
<glyph name="florin" format="1">
  <advance width="357"/>
  <unicode hex="0192"/>
  <outline>
    <contour>
      <point x="205" y="764"/>
      <point x="123" y="677"/>
      <point x="108" y="566" type="curve" smooth="yes"/>
      <point x="39" y="66" type="line" smooth="yes"/>
      <point x="27" y="-21"/>
      <point x="-13" y="-59"/>
      <point x="-91" y="-86" type="curve"/>
      <point x="-44" y="-227" type="line"/>
      <point x="91" y="-184"/>
      <point x="208" y="-112"/>
      <point x="234" y="76" type="curve" smooth="yes"/>
      <point x="301" y="554" type="line" smooth="yes"/>
      <point x="308" y="604"/>
      <point x="331" y="622"/>
      <point x="369" y="622" type="curve" smooth="yes"/>
      <point x="390" y="622"/>
      <point x="420" y="617"/>
      <point x="446" y="602" type="curve"/>
      <point x="512" y="717" type="line"/>
      <point x="478" y="741"/>
      <point x="421" y="764"/>
      <point x="350" y="764" type="curve" smooth="yes"/>
    </contour>
    <contour>
      <point x="33" y="534" type="line"/>
      <point x="15" y="400" type="line"/>
      <point x="380" y="400" type="line"/>
      <point x="420" y="534" type="line"/>
    </contour>
  </outline>
</glyph>
<glyph name="uni0196" format="1">
  <advance width="406"/>
  <unicode hex="0196"/>
  <outline>
    <contour>
      <point x="103" y="696" type="line"/>
      <point x="34" y="207" type="line"/>
      <point x="236" y="207" type="line"/>
      <point x="305" y="696" type="line"/>
    </contour>
    <component base="hookHELPERright.case" xOffset="37" yOffset="207"/>
  </outline>
</glyph>
<glyph name="uni0199" format="1">
  <advance width="580"/>
  <unicode hex="0199"/>
  <outline>
    <contour>
      <point x="79" y="533" type="line"/>
      <point x="4" y="0" type="line"/>
      <point x="199" y="0" type="line"/>
      <point x="245" y="337" type="line"/>
      <point x="288" y="398"/>
      <point x="324" y="421"/>
      <point x="356" y="421" type="curve" smooth="yes"/>
      <point x="380" y="421"/>
      <point x="394" y="409"/>
      <point x="394" y="385" type="curve" smooth="yes"/>
      <point x="394" y="340"/>
      <point x="365" y="295"/>
      <point x="253" y="256" type="curve"/>
      <point x="331" y="0" type="line"/>
      <point x="543" y="0" type="line"/>
      <point x="457" y="238" type="line"/>
      <point x="547" y="280"/>
      <point x="590" y="341"/>
      <point x="590" y="423" type="curve" smooth="yes"/>
      <point x="590" y="501"/>
      <point x="534" y="554"/>
      <point x="438" y="554" type="curve" smooth="yes"/>
      <point x="375" y="554"/>
      <point x="320" y="533"/>
      <point x="265" y="478" type="curve"/>
      <point x="273" y="533" type="line"/>
    </contour>
    <component base="hookaboveHELPER" xOffset="8"/>
  </outline>
</glyph>
<glyph name="uni01C2" format="1">
  <advance width="342"/>
  <unicode hex="01C2"/>
  <outline>
    <contour>
      <point x="107" y="391" type="line"/>
      <point x="356" y="391" type="line"/>
      <point x="371" y="496" type="line"/>
      <point x="36" y="496" type="line"/>
      <point x="21" y="391" type="line"/>
    </contour>
    <contour>
      <point x="86" y="242" type="line"/>
      <point x="335" y="242" type="line"/>
      <point x="350" y="347" type="line"/>
      <point x="14" y="347" type="line"/>
      <point x="-1" y="242" type="line"/>
    </contour>
    <component base="uni01C0" xOffset="46"/>
  </outline>
</glyph>
<glyph name="uni01C3" format="1">
  <advance width="288"/>
  <unicode hex="01C3"/>
  <outline>
    <contour>
      <point x="125" y="744" type="line"/>
      <point x="57" y="250" type="line"/>
      <point x="222" y="250" type="line"/>
      <point x="293" y="761" type="line"/>
    </contour>
    <component base="period" xOffset="26"/>
  </outline>
</glyph>
<glyph name="dotlessj" format="1">
  <advance width="271"/>
  <unicode hex="0237"/>
  <outline>
    <contour>
      <point x="74" y="534" type="line"/>
      <point x="9" y="66" type="line" smooth="yes"/>
      <point x="-3" y="-21"/>
      <point x="-43" y="-59"/>
      <point x="-121" y="-86" type="curve"/>
      <point x="-74" y="-227" type="line"/>
      <point x="61" y="-184"/>
      <point x="178" y="-112"/>
      <point x="204" y="76" type="curve" smooth="yes"/>
      <point x="268" y="534" type="line"/>
    </contour>
    <contour>
      <point x="171" y="534" type="move" name="top"/>
    </contour>
  </outline>
</glyph>
<glyph name="uni0254" format="1">
  <advance width="461"/>
  <unicode hex="0254"/>
  <outline>
    <contour>
      <point x="328" y="-20"/>
      <point x="446" y="114"/>
      <point x="446" y="324" type="curve" smooth="yes"/>
      <point x="446" y="473"/>
      <point x="359" y="554"/>
      <point x="219" y="554" type="curve" smooth="yes"/>
      <point x="138" y="554"/>
      <point x="77" y="531"/>
      <point x="21" y="489" type="curve"/>
      <point x="90" y="379" type="line"/>
      <point x="123" y="401"/>
      <point x="156" y="412"/>
      <point x="187" y="412" type="curve" smooth="yes"/>
      <point x="228" y="412"/>
      <point x="248" y="389"/>
      <point x="248" y="320" type="curve" smooth="yes"/>
      <point x="248" y="235"/>
      <point x="223" y="122"/>
      <point x="136" y="122" type="curve" smooth="yes"/>
      <point x="103" y="122"/>
      <point x="83" y="132"/>
      <point x="57" y="153" type="curve"/>
      <point x="-43" y="42" type="line"/>
      <point x="2" y="3"/>
      <point x="53" y="-20"/>
      <point x="136" y="-20" type="curve" smooth="yes"/>
    </contour>
  </outline>
</glyph>
<glyph name="uni0255" format="1">
  <advance width="503"/>
  <unicode hex="0255"/>
  <outline>
    <contour>
      <point x="224" y="148" type="line"/>
      <point x="219" y="159"/>
      <point x="215" y="179"/>
      <point x="215" y="212" type="curve" smooth="yes"/>
      <point x="215" y="291"/>
      <point x="235" y="405"/>
      <point x="328" y="405" type="curve" smooth="yes"/>
      <point x="358" y="405"/>
      <point x="386" y="395"/>
      <point x="414" y="369" type="curve"/>
      <point x="507" y="480" type="line"/>
      <point x="462" y="527"/>
      <point x="400" y="554"/>
      <point x="327" y="554" type="curve" smooth="yes"/>
      <point x="100" y="554"/>
      <point x="12" y="357"/>
      <point x="12" y="219" type="curve" smooth="yes"/>
      <point x="12" y="110"/>
      <point x="59" y="37"/>
      <point x="142" y="5" type="curve"/>
    </contour>
    <contour>
      <point x="157" y="-90" type="line"/>
      <point x="211" y="3" type="line"/>
      <point x="264" y="100" type="line"/>
      <point x="290" y="148"/>
      <point x="316" y="171"/>
      <point x="342" y="171" type="curve" smooth="yes"/>
      <point x="354" y="171"/>
      <point x="362" y="165"/>
      <point x="361" y="153" type="curve" smooth="yes"/>
      <point x="361" y="127"/>
      <point x="341" y="115"/>
      <point x="310" y="115" type="curve" smooth="yes"/>
      <point x="289" y="115"/>
      <point x="272" y="118"/>
      <point x="251" y="126" type="curve"/>
      <point x="172" y="-8" type="line"/>
      <point x="195" y="-14"/>
      <point x="224" y="-20"/>
      <point x="270" y="-20" type="curve" smooth="yes"/>
      <point x="390" y="-20"/>
      <point x="486" y="38"/>
      <point x="486" y="153" type="curve" smooth="yes"/>
      <point x="486" y="227"/>
      <point x="437" y="267"/>
      <point x="367" y="267" type="curve" smooth="yes"/>
      <point x="303" y="267"/>
      <point x="250" y="241"/>
      <point x="209" y="163" type="curve"/>
      <point x="130" y="38" type="line"/>
      <point x="74" y="-56" type="line"/>
    </contour>
  </outline>
</glyph>
<glyph name="uni0258" format="1">
  <advance width="549"/>
  <unicode hex="0258"/>
  <outline>
    <contour>
      <point x="124" y="554"/>
      <point x="31" y="465"/>
      <point x="31" y="364" type="curve" smooth="yes"/>
      <point x="31" y="236"/>
      <point x="166" y="200"/>
      <point x="337" y="190" type="curve"/>
      <point x="353" y="302" type="line"/>
      <point x="247" y="305"/>
      <point x="228" y="339"/>
      <point x="228" y="371" type="curve" smooth="yes"/>
      <point x="228" y="406"/>
      <point x="249" y="429"/>
      <point x="282" y="429" type="curve" smooth="yes"/>
      <point x="328" y="429"/>
      <point x="344" y="396"/>
      <point x="344" y="336" type="curve" smooth="yes"/>
      <point x="344" y="202"/>
      <point x="312" y="120"/>
      <point x="214" y="120" type="curve" smooth="yes"/>
      <point x="167" y="120"/>
      <point x="131" y="134"/>
      <point x="91" y="164" type="curve"/>
      <point x="7" y="59" type="line"/>
      <point x="54" y="15"/>
      <point x="121" y="-20"/>
      <point x="216" y="-20" type="curve" smooth="yes"/>
      <point x="419" y="-20"/>
      <point x="535" y="119"/>
      <point x="535" y="318" type="curve" smooth="yes"/>
      <point x="535" y="439"/>
      <point x="476" y="554"/>
      <point x="288" y="554" type="curve" smooth="yes"/>
    </contour>
  </outline>
</glyph>
<glyph name="uni025C" format="1">
  <advance width="485"/>
  <unicode hex="025C"/>
  <outline>
    <component base="uni0437"/>
    <contour>
      <point x="416" y="534" type="move" name="topright"/>
    </contour>
  </outline>
</glyph>
<glyph name="uni0260" format="1">
  <advance width="581"/>
  <unicode hex="0260"/>
  <outline>
    <contour>
      <point x="384" y="534" type="line"/>
      <point x="336" y="202" type="line"/>
      <point x="312" y="166"/>
      <point x="284" y="144"/>
      <point x="256" y="144" type="curve" smooth="yes"/>
      <point x="234" y="144"/>
      <point x="210" y="155"/>
      <point x="210" y="218" type="curve" smooth="yes"/>
      <point x="210" y="292"/>
      <point x="237" y="418"/>
      <point x="327" y="418" type="curve" smooth="yes"/>
      <point x="348" y="418"/>
      <point x="361" y="414"/>
      <point x="388" y="406" type="curve"/>
      <point x="554" y="481" type="line"/>
      <point x="507" y="512"/>
      <point x="414" y="554"/>
      <point x="324" y="554" type="curve" smooth="yes"/>
      <point x="96" y="554"/>
      <point x="11" y="352"/>
      <point x="11" y="211" type="curve" smooth="yes"/>
      <point x="11" y="87"/>
      <point x="70" y="0"/>
      <point x="188" y="0" type="curve" smooth="yes"/>
      <point x="245" y="0"/>
      <point x="290" y="26"/>
      <point x="323" y="63" type="curve"/>
      <point x="316" y="21" type="line" smooth="yes"/>
      <point x="303" y="-67"/>
      <point x="256" y="-82"/>
      <point x="205" y="-82" type="curve" smooth="yes"/>
      <point x="165" y="-82"/>
      <point x="119" y="-72"/>
      <point x="59" y="-40" type="curve"/>
      <point x="-4" y="-164" type="line"/>
      <point x="58" y="-203"/>
      <point x="139" y="-227"/>
      <point x="206" y="-227" type="curve" smooth="yes"/>
      <point x="400" y="-227"/>
      <point x="480" y="-139"/>
      <point x="509" y="58" type="curve" smooth="yes"/>
      <point x="578" y="534" type="line"/>
    </contour>
    <component base="hookaboveHELPER2" xOffset="313"/>
  </outline>
</glyph>
<glyph name="uni0267" format="1">
  <advance width="560"/>
  <unicode hex="0267"/>
  <outline>
    <contour>
      <point x="360" y="554"/>
      <point x="295" y="511"/>
      <point x="261" y="448" type="curve"/>
      <point x="273" y="533" type="line"/>
      <point x="79" y="533" type="line"/>
      <point x="4" y="0" type="line"/>
      <point x="198" y="0" type="line"/>
      <point x="238" y="278" type="line"/>
      <point x="273" y="353"/>
      <point x="305" y="393"/>
      <point x="328" y="393" type="curve" smooth="yes"/>
      <point x="342" y="393"/>
      <point x="352" y="383"/>
      <point x="345" y="341" type="curve" smooth="yes"/>
      <point x="293" y="0" type="line"/>
      <point x="487" y="0" type="line"/>
      <point x="542" y="393" type="line" smooth="yes"/>
      <point x="556" y="495"/>
      <point x="510" y="554"/>
      <point x="423" y="554" type="curve" smooth="yes"/>
    </contour>
    <component base="hookaboveHELPER" xOffset="8"/>
    <component base="hookHELPER" xOffset="126"/>
  </outline>
</glyph>
<glyph name="uni026D" format="1">
  <advance width="276"/>
  <unicode hex="026D"/>
  <outline>
    <contour>
      <point x="108" y="744" type="line"/>
      <point x="4" y="0" type="line"/>
      <point x="198" y="0" type="line"/>
      <point x="304" y="764" type="line"/>
    </contour>
    <component base="hookHELPERright" xOffset="18"/>
  </outline>
</glyph>
<glyph name="uni0280" format="1">
  <advance width="547"/>
  <unicode hex="0280"/>
  <outline>
    <contour>
      <point x="84" y="534" type="line"/>
      <point x="10" y="0" type="line"/>
      <point x="194" y="0" type="line"/>
      <point x="250" y="402" type="line"/>
      <point x="278" y="402" type="line" smooth="yes"/>
      <point x="308" y="402"/>
      <point x="325" y="394"/>
      <point x="325" y="364" type="curve" smooth="yes"/>
      <point x="325" y="327"/>
      <point x="306" y="298"/>
      <point x="259" y="298" type="curve" smooth="yes"/>
      <point x="231" y="298" type="line"/>
      <point x="214" y="172" type="line"/>
      <point x="326" y="172" type="line"/>
      <point x="441" y="200"/>
      <point x="514" y="259"/>
      <point x="514" y="376" type="curve" smooth="yes"/>
      <point x="514" y="486"/>
      <point x="436" y="534"/>
      <point x="299" y="534" type="curve" smooth="yes"/>
    </contour>
    <contour>
      <point x="242" y="184" type="line"/>
      <point x="308" y="0" type="line"/>
      <point x="505" y="0" type="line"/>
      <point x="403" y="222" type="line"/>
    </contour>
  </outline>
</glyph>
<glyph name="uni0283" format="1">
  <advance width="334"/>
  <unicode hex="0283"/>
  <outline>
    <contour>
      <point x="107" y="534" type="line"/>
      <point x="33" y="0" type="line"/>
      <point x="227" y="0" type="line"/>
      <point x="301" y="534" type="line"/>
    </contour>
    <component base="hookHELPER" xOffset="-134"/>
    <component base="hookaboveHELPER2" xOffset="36"/>
  </outline>
</glyph>
<glyph name="uni0288" format="1">
  <advance width="388"/>
  <unicode hex="0288"/>
  <outline>
    <contour>
      <point x="137" y="649" type="line"/>
      <point x="88" y="474" type="line"/>
      <point x="21" y="0" type="line"/>
      <point x="215" y="0" type="line"/>
      <point x="309" y="669" type="line"/>
    </contour>
    <contour>
      <point x="33" y="534" type="line"/>
      <point x="15" y="400" type="line"/>
      <point x="370" y="400" type="line"/>
      <point x="408" y="534" type="line"/>
    </contour>
    <component base="hookHELPERright" xOffset="35"/>
  </outline>
</glyph>
<glyph name="uni0289" format="1">
  <advance width="619"/>
  <unicode hex="0289"/>
  <outline>
    <contour>
      <point x="73" y="284" type="line"/>
      <point x="621" y="284" type="line"/>
      <point x="637" y="399" type="line"/>
      <point x="566" y="399" type="line"/>
      <point x="19" y="399" type="line"/>
      <point x="3" y="284" type="line"/>
    </contour>
    <component base="u" xOffset="35"/>
  </outline>
</glyph>
<glyph name="uni028F" format="1">
  <advance width="510"/>
  <unicode hex="028F"/>
  <outline>
    <contour>
      <point x="360" y="534" type="line"/>
      <point x="262" y="321" type="line"/>
      <point x="224" y="534" type="line"/>
      <point x="18" y="534" type="line"/>
      <point x="148" y="188" type="line"/>
      <point x="121" y="0" type="line"/>
      <point x="315" y="0" type="line"/>
      <point x="342" y="189" type="line"/>
      <point x="568" y="534" type="line"/>
    </contour>
  </outline>
</glyph>
<glyph name="uni0291" format="1">
  <advance width="586"/>
  <unicode hex="0291"/>
  <outline>
    <contour>
      <point x="341" y="0" type="line"/>
      <point x="430" y="146" type="line"/>
      <point x="207" y="146" type="line"/>
      <point x="464" y="407" type="line"/>
      <point x="481" y="534" type="line"/>
      <point x="60" y="534" type="line"/>
      <point x="40" y="390" type="line"/>
      <point x="235" y="390" type="line"/>
      <point x="-16" y="138" type="line"/>
      <point x="-34" y="0" type="line"/>
    </contour>
    <contour>
      <point x="317" y="-133" type="line"/>
      <point x="325" y="-82"/>
      <point x="331" y="-32"/>
      <point x="341" y="0" type="curve"/>
      <point x="375" y="130" type="line"/>
      <point x="391" y="178"/>
      <point x="415" y="201"/>
      <point x="442" y="201" type="curve" smooth="yes"/>
      <point x="456" y="201"/>
      <point x="462" y="193"/>
      <point x="462" y="182" type="curve" smooth="yes"/>
      <point x="462" y="158"/>
      <point x="441" y="146"/>
      <point x="411" y="146" type="curve"/>
      <point x="342" y="0" type="line"/>
      <point x="487" y="-1"/>
      <point x="587" y="57"/>
      <point x="587" y="184" type="curve" smooth="yes"/>
      <point x="587" y="257"/>
      <point x="537" y="297"/>
      <point x="466" y="297" type="curve" smooth="yes"/>
      <point x="391" y="297"/>
      <point x="327" y="261"/>
      <point x="278" y="146" type="curve"/>
      <point x="239" y="2" type="line"/>
      <point x="229" y="-34"/>
      <point x="221" y="-84"/>
      <point x="214" y="-131" type="curve"/>
    </contour>
  </outline>
</glyph>
<glyph name="uni02BC" format="1">
  <advance width="202"/>
  <unicode hex="02BC"/>
  <outline>
    <contour>
      <point x="126" y="763"/>
      <point x="90" y="729"/>
      <point x="85" y="691" type="curve" smooth="yes"/>
      <point x="81" y="660"/>
      <point x="92" y="640"/>
      <point x="108" y="626" type="curve"/>
      <point x="73" y="534" type="line"/>
      <point x="151" y="534" type="line"/>
      <point x="203" y="613" type="line" smooth="yes"/>
      <point x="222" y="642"/>
      <point x="232" y="661"/>
      <point x="235" y="685" type="curve" smooth="yes"/>
      <point x="241" y="730"/>
      <point x="212" y="763"/>
      <point x="168" y="763" type="curve" smooth="yes"/>
    </contour>
    <contour>
      <point x="180" y="534" type="move" name="_topleft"/>
    </contour>
  </outline>
</glyph>
<glyph name="circumflex" format="1">
  <advance width="456"/>
  <unicode hex="02C6"/>
  <outline>
    <contour>
      <point x="292" y="708" type="line"/>
      <point x="412" y="612" type="line"/>
      <point x="487" y="689" type="line"/>
      <point x="366" y="840" type="line"/>
      <point x="250" y="840" type="line"/>
      <point x="87" y="689" type="line"/>
      <point x="145" y="612" type="line"/>
    </contour>
    <contour>
      <point x="265" y="534" type="move" name="_top"/>
    </contour>
  </outline>
</glyph>
<glyph name="caron" format="1">
  <advance width="456"/>
  <unicode hex="02C7"/>
  <outline>
    <contour>
      <point x="288" y="734" type="line"/>
      <point x="168" y="830" type="line"/>
      <point x="96" y="753" type="line"/>
      <point x="218" y="602" type="line"/>
      <point x="334" y="602" type="line"/>
      <point x="496" y="753" type="line"/>
      <point x="436" y="830" type="line"/>
    </contour>
    <contour>
      <point x="265" y="534" type="move" name="_top"/>
    </contour>
  </outline>
</glyph>
<glyph name="ring" format="1">
  <advance width="356"/>
  <unicode hex="02DA"/>
  <outline>
    <contour>
      <point x="169" y="886"/>
      <point x="104" y="819"/>
      <point x="94" y="743" type="curve" smooth="yes"/>
      <point x="82" y="663"/>
      <point x="129" y="593"/>
      <point x="225" y="593" type="curve" smooth="yes"/>
      <point x="319" y="593"/>
      <point x="385" y="661"/>
      <point x="395" y="737" type="curve" smooth="yes"/>
      <point x="406" y="817"/>
      <point x="359" y="886"/>
      <point x="263" y="886" type="curve"/>
    </contour>
    <contour>
      <point x="275" y="788"/>
      <point x="290" y="773"/>
      <point x="286" y="743" type="curve" smooth="yes"/>
      <point x="280" y="709"/>
      <point x="260" y="693"/>
      <point x="236" y="693" type="curve"/>
      <point x="214" y="693"/>
      <point x="197" y="707"/>
      <point x="202" y="737" type="curve" smooth="yes"/>
      <point x="207" y="771"/>
      <point x="229" y="788"/>
      <point x="253" y="788" type="curve" smooth="yes"/>
    </contour>
    <contour>
      <point x="215" y="534" type="move" name="_top"/>
    </contour>
  </outline>
</glyph>
<glyph name="ogonek" format="1">
  <advance width="324"/>
  <unicode hex="02DB"/>
  <outline>
    <contour>
      <point x="15" y="17"/>
      <point x="-59" y="-53"/>
      <point x="-59" y="-143" type="curve" smooth="yes"/>
      <point x="-59" y="-214"/>
      <point x="2" y="-254"/>
      <point x="84" y="-254" type="curve" smooth="yes"/>
      <point x="110" y="-254"/>
      <point x="135" y="-251"/>
      <point x="157" y="-246" type="curve"/>
      <point x="183" y="-131" type="line"/>
      <point x="161" y="-136"/>
      <point x="140" y="-139"/>
      <point x="121" y="-139" type="curve" smooth="yes"/>
      <point x="93" y="-139"/>
      <point x="78" y="-129"/>
      <point x="78" y="-106" type="curve" smooth="yes"/>
      <point x="78" y="-82"/>
      <point x="96" y="-36"/>
      <point x="207" y="0" type="curve"/>
      <point x="182" y="61" type="line"/>
    </contour>
    <contour>
      <point x="215" y="0" type="move" name="_ogonek"/>
    </contour>
  </outline>
</glyph>
<glyph name="tilde" format="1">
  <advance width="450"/>
  <unicode hex="02DC"/>
  <outline>
    <contour>
      <point x="399" y="622"/>
      <point x="456" y="684"/>
      <point x="491" y="757" type="curve"/>
      <point x="406" y="804" type="line"/>
      <point x="386" y="776"/>
      <point x="371" y="760"/>
      <point x="347" y="760" type="curve" smooth="yes"/>
      <point x="318" y="760"/>
      <point x="296" y="803"/>
      <point x="239" y="803" type="curve" smooth="yes"/>
      <point x="175" y="803"/>
      <point x="119" y="741"/>
      <point x="84" y="668" type="curve"/>
      <point x="169" y="621" type="line"/>
      <point x="189" y="649"/>
      <point x="204" y="665"/>
      <point x="229" y="665" type="curve" smooth="yes"/>
      <point x="258" y="665"/>
      <point x="289" y="622"/>
      <point x="336" y="622" type="curve" smooth="yes"/>
    </contour>
    <contour>
      <point x="262" y="534" type="move" name="_top"/>
    </contour>
  </outline>
</glyph>
<glyph name="acutecomb" format="1">
  <advance width="362"/>
  <unicode hex="0301"/>
  <outline>
    <contour>
      <point x="112" y="715" type="line"/>
      <point x="165" y="616" type="line"/>
      <point x="416" y="715" type="line"/>
      <point x="342" y="859" type="line"/>
    </contour>
    <contour>
      <point x="235" y="534" type="move" name="_top"/>
    </contour>
  </outline>
</glyph>
<glyph name="uni0306" format="1">
  <advance width="418"/>
  <unicode hex="0306"/>
  <outline>
    <contour>
      <point x="404" y="620"/>
      <point x="472" y="713"/>
      <point x="492" y="805" type="curve"/>
      <point x="391" y="824" type="line"/>
      <point x="376" y="787"/>
      <point x="344" y="754"/>
      <point x="299" y="754" type="curve" smooth="yes"/>
      <point x="256" y="754"/>
      <point x="235" y="785"/>
      <point x="231" y="822" type="curve"/>
      <point x="130" y="807" type="line"/>
      <point x="124" y="715"/>
      <point x="168" y="620"/>
      <point x="287" y="620" type="curve" smooth="yes"/>
    </contour>
    <contour>
      <point x="284" y="534" type="move" name="_top"/>
    </contour>
  </outline>
</glyph>
<glyph name="uni030C" format="1">
  <advance width="456"/>
  <unicode hex="030C"/>
  <outline>
    <contour>
      <point x="318" y="752" type="line"/>
      <point x="197" y="839" type="line"/>
      <point x="124" y="762" type="line"/>
      <point x="247" y="621" type="line"/>
      <point x="363" y="621" type="line"/>
      <point x="524" y="762" type="line"/>
      <point x="465" y="839" type="line"/>
    </contour>
    <contour>
      <point x="296" y="534" type="move" name="_top"/>
    </contour>
  </outline>
</glyph>
<glyph name="uni0326" format="1">
  <advance width="232"/>
  <unicode hex="0326"/>
  <outline>
    <contour>
      <point x="13" y="-62"/>
      <point x="-34" y="-102"/>
      <point x="-34" y="-165" type="curve" smooth="yes"/>
      <point x="-34" y="-193"/>
      <point x="-22" y="-212"/>
      <point x="-2" y="-226" type="curve"/>
      <point x="-46" y="-342" type="line"/>
      <point x="46" y="-342" type="line"/>
      <point x="109" y="-244" type="line" smooth="yes"/>
      <point x="135" y="-204"/>
      <point x="148" y="-178"/>
      <point x="148" y="-142" type="curve" smooth="yes"/>
      <point x="148" y="-95"/>
      <point x="116" y="-62"/>
      <point x="68" y="-62" type="curve" smooth="yes"/>
    </contour>
    <contour>
      <point x="79" y="0" type="move" name="_bottom"/>
    </contour>
  </outline>
</glyph>
<glyph name="tonos" format="1">
  <advance width="290"/>
  <unicode hex="0384"/>
  <outline>
    <contour>
      <point x="77" y="616" type="line"/>
      <point x="187" y="595" type="line"/>
      <point x="314" y="839" type="line"/>
      <point x="150" y="878" type="line"/>
    </contour>
    <contour>
      <point x="133" y="534" type="move" name="_top"/>
    </contour>
  </outline>
</glyph>
<glyph name="dieresistonos" format="1">
  <advance width="523"/>
  <unicode hex="0385"/>
  <outline>
    <contour>
      <point x="276" y="758" type="line"/>
      <point x="375" y="741" type="line"/>
      <point x="481" y="944" type="line"/>
      <point x="336" y="970" type="line"/>
    </contour>
    <contour>
      <point x="141" y="780"/>
      <point x="96" y="741"/>
      <point x="88" y="694" type="curve" smooth="yes"/>
      <point x="81" y="642"/>
      <point x="118" y="601"/>
      <point x="169" y="601" type="curve" smooth="yes"/>
      <point x="219" y="601"/>
      <point x="262" y="640"/>
      <point x="270" y="688" type="curve" smooth="yes"/>
      <point x="276" y="739"/>
      <point x="242" y="780"/>
      <point x="190" y="780" type="curve" smooth="yes"/>
    </contour>
    <contour>
      <point x="425" y="780"/>
      <point x="380" y="741"/>
      <point x="372" y="694" type="curve" smooth="yes"/>
      <point x="365" y="642"/>
      <point x="402" y="601"/>
      <point x="452" y="601" type="curve" smooth="yes"/>
      <point x="503" y="601"/>
      <point x="546" y="640"/>
      <point x="554" y="688" type="curve" smooth="yes"/>
      <point x="560" y="739"/>
      <point x="526" y="780"/>
      <point x="473" y="780" type="curve" smooth="yes"/>
    </contour>
    <contour>
      <point x="299" y="534" type="move" name="_top"/>
    </contour>
  </outline>
</glyph>
<glyph name="Delta" format="1">
  <advance width="597"/>
  <unicode hex="0394"/>
  <outline>
    <contour>
      <point x="362" y="146" type="line"/>
      <point x="202" y="146" type="line"/>
      <point x="339" y="549" type="line"/>
    </contour>
    <contour>
      <point x="238" y="696" type="line"/>
      <point x="-62" y="0" type="line"/>
      <point x="585" y="0" type="line"/>
      <point x="480" y="696" type="line"/>
    </contour>
  </outline>
</glyph>
<glyph name="Theta" format="1">
  <advance width="678"/>
  <unicode hex="0398"/>
  <outline>
    <contour>
      <point x="270" y="405" type="line"/>
      <point x="255" y="299" type="line"/>
      <point x="431" y="299" type="line"/>
      <point x="447" y="405" type="line"/>
    </contour>
    <contour>
      <point x="112" y="716"/>
      <point x="25" y="448"/>
      <point x="25" y="268" type="curve" smooth="yes"/>
      <point x="25" y="86"/>
      <point x="121" y="-20"/>
      <point x="301" y="-20" type="curve" smooth="yes"/>
      <point x="591" y="-20"/>
      <point x="676" y="251"/>
      <point x="676" y="429" type="curve" smooth="yes"/>
      <point x="676" y="611"/>
      <point x="580" y="716"/>
      <point x="400" y="716" type="curve" smooth="yes"/>
    </contour>
    <contour>
      <point x="450" y="570"/>
      <point x="481" y="535"/>
      <point x="481" y="445" type="curve" smooth="yes"/>
      <point x="481" y="329"/>
      <point x="458" y="126"/>
      <point x="317" y="126" type="curve" smooth="yes"/>
      <point x="251" y="126"/>
      <point x="220" y="163"/>
      <point x="220" y="253" type="curve" smooth="yes"/>
      <point x="220" y="369"/>
      <point x="245" y="570"/>
      <point x="384" y="570" type="curve" smooth="yes"/>
    </contour>
  </outline>
</glyph>
<glyph name="Lambda" format="1">
  <advance width="589"/>
  <unicode hex="039B"/>
  <outline>
    <contour>
      <point x="234" y="696" type="line"/>
      <point x="-62" y="0" type="line"/>
      <point x="151" y="0" type="line"/>
      <point x="335" y="552" type="line"/>
      <point x="365" y="0" type="line"/>
      <point x="577" y="0" type="line"/>
      <point x="476" y="696" type="line"/>
    </contour>
  </outline>
</glyph>
<glyph name="Xi" format="1">
  <advance width="520"/>
  <unicode hex="039E"/>
  <outline>
    <contour>
      <point x="6" y="174" type="line"/>
      <point x="-18" y="0" type="line"/>
      <point x="464" y="0" type="line"/>
      <point x="488" y="174" type="line"/>
    </contour>
    <contour>
      <point x="107" y="431" type="line"/>
      <point x="85" y="276" type="line"/>
      <point x="438" y="276" type="line"/>
      <point x="460" y="431" type="line"/>
    </contour>
    <contour>
      <point x="79" y="696" type="line"/>
      <point x="55" y="528" type="line"/>
      <point x="521" y="528" type="line"/>
      <point x="566" y="696" type="line"/>
    </contour>
  </outline>
</glyph>
<glyph name="Sigma" format="1">
  <advance width="491"/>
  <unicode hex="03A3"/>
  <outline>
    <contour>
      <point x="69" y="696" type="line"/>
      <point x="49" y="552" type="line"/>
      <point x="190" y="340" type="line"/>
      <point x="-8" y="144" type="line"/>
      <point x="-28" y="0" type="line"/>
      <point x="445" y="0" type="line"/>
      <point x="466" y="148" type="line"/>
      <point x="211" y="148" type="line"/>
      <point x="381" y="308" type="line"/>
      <point x="390" y="376" type="line"/>
      <point x="269" y="551" type="line"/>
      <point x="522" y="551" type="line"/>
      <point x="542" y="696" type="line"/>
    </contour>
  </outline>
</glyph>
<glyph name="Phi" format="1">
  <advance width="851"/>
  <unicode hex="03A6"/>
  <outline>
    <contour>
      <point x="530" y="502" type="line"/>
      <point x="619" y="499"/>
      <point x="654" y="449"/>
      <point x="654" y="382" type="curve" smooth="yes"/>
      <point x="654" y="319"/>
      <point x="629" y="198"/>
      <point x="483" y="194" type="curve"/>
      <point x="479" y="79" type="line"/>
      <point x="756" y="87"/>
      <point x="859" y="240"/>
      <point x="859" y="377" type="curve" smooth="yes"/>
      <point x="859" y="535"/>
      <point x="732" y="610"/>
      <point x="553" y="616" type="curve"/>
    </contour>
    <contour>
      <point x="118" y="608"/>
      <point x="15" y="455"/>
      <point x="15" y="318" type="curve" smooth="yes"/>
      <point x="15" y="160"/>
      <point x="143" y="85"/>
      <point x="320" y="79" type="curve"/>
      <point x="343" y="193" type="line"/>
      <point x="255" y="196"/>
      <point x="220" y="246"/>
      <point x="220" y="314" type="curve" smooth="yes"/>
      <point x="220" y="380"/>
      <point x="243" y="497"/>
      <point x="390" y="501" type="curve"/>
      <point x="394" y="616" type="line"/>
    </contour>
    <contour>
      <point x="387" y="696" type="line"/>
      <point x="374" y="599" type="line"/>
      <point x="372" y="512" type="line"/>
      <point x="325" y="184" type="line"/>
      <point x="303" y="96" type="line"/>
      <point x="290" y="0" type="line"/>
      <point x="486" y="0" type="line"/>
      <point x="499" y="96" type="line"/>
      <point x="501" y="184" type="line"/>
      <point x="548" y="512" type="line"/>
      <point x="570" y="599" type="line"/>
      <point x="583" y="696" type="line"/>
    </contour>
  </outline>
</glyph>
<glyph name="Omega" format="1">
  <advance width="678"/>
  <unicode hex="03A9"/>
  <outline>
    <contour>
      <point x="129" y="716"/>
      <point x="33" y="477"/>
      <point x="33" y="345" type="curve" smooth="yes"/>
      <point x="33" y="252"/>
      <point x="70" y="185"/>
      <point x="133" y="142" type="curve"/>
      <point x="24" y="142" type="line"/>
      <point x="4" y="0" type="line"/>
      <point x="275" y="0" type="line"/>
      <point x="292" y="131" type="line"/>
      <point x="247" y="156"/>
      <point x="233" y="193"/>
      <point x="233" y="249" type="curve" smooth="yes"/>
      <point x="233" y="357"/>
      <point x="254" y="570"/>
      <point x="384" y="570" type="curve" smooth="yes"/>
      <point x="444" y="570"/>
      <point x="470" y="529"/>
      <point x="470" y="456" type="curve" smooth="yes"/>
      <point x="470" y="383"/>
      <point x="460" y="186"/>
      <point x="346" y="133" type="curve"/>
      <point x="329" y="0" type="line"/>
      <point x="600" y="0" type="line"/>
      <point x="620" y="142" type="line"/>
      <point x="508" y="142" type="line"/>
      <point x="636" y="208"/>
      <point x="679" y="337"/>
      <point x="679" y="444" type="curve" smooth="yes"/>
      <point x="679" y="595"/>
      <point x="584" y="716"/>
      <point x="400" y="716" type="curve" smooth="yes"/>
    </contour>
    <contour>
      <point x="397" y="696" type="move" name="top"/>
    </contour>
  </outline>
</glyph>
<glyph name="alpha" format="1">
  <advance width="588"/>
  <unicode hex="03B1"/>
  <outline>
    <contour>
      <point x="81" y="554"/>
      <point x="11" y="352"/>
      <point x="11" y="196" type="curve" smooth="yes"/>
      <point x="11" y="54"/>
      <point x="78" y="-20"/>
      <point x="184" y="-20" type="curve" smooth="yes"/>
      <point x="258" y="-20"/>
      <point x="312" y="13"/>
      <point x="360" y="94" type="curve"/>
      <point x="362" y="75" type="line" smooth="yes"/>
      <point x="369" y="17"/>
      <point x="408" y="-11"/>
      <point x="478" y="-19" type="curve"/>
      <point x="556" y="124" type="line"/>
      <point x="527" y="127"/>
      <point x="509" y="140"/>
      <point x="504" y="177" type="curve" smooth="yes"/>
      <point x="492" y="265" type="line"/>
      <point x="604" y="534" type="line"/>
      <point x="441" y="534" type="line"/>
      <point x="416" y="423" type="line"/>
      <point x="408" y="503"/>
      <point x="367" y="554"/>
      <point x="280" y="554" type="curve" smooth="yes"/>
    </contour>
    <contour>
      <point x="332" y="413"/>
      <point x="348" y="379"/>
      <point x="353" y="278" type="curve"/>
      <point x="317" y="157"/>
      <point x="286" y="121"/>
      <point x="247" y="121" type="curve" smooth="yes"/>
      <point x="225" y="121"/>
      <point x="205" y="141"/>
      <point x="205" y="201" type="curve" smooth="yes"/>
      <point x="205" y="259"/>
      <point x="229" y="413"/>
      <point x="292" y="413" type="curve" smooth="yes"/>
    </contour>
    <contour>
      <point x="302" y="534" type="move" name="top"/>
    </contour>
  </outline>
</glyph>
<glyph name="beta" format="1">
  <advance width="598"/>
  <unicode hex="03B2"/>
  <outline>
    <contour>
      <point x="211" y="764"/>
      <point x="99" y="688"/>
      <point x="80" y="550" type="curve" smooth="yes"/>
      <point x="-29" y="-227" type="line"/>
      <point x="161" y="-200" type="line"/>
      <point x="192" y="20" type="line"/>
      <point x="220" y="-4"/>
      <point x="263" y="-20"/>
      <point x="323" y="-20" type="curve" smooth="yes"/>
      <point x="510" y="-20"/>
      <point x="579" y="144"/>
      <point x="579" y="249" type="curve" smooth="yes"/>
      <point x="579" y="361"/>
      <point x="491" y="402"/>
      <point x="417" y="406" type="curve"/>
      <point x="540" y="435"/>
      <point x="572" y="525"/>
      <point x="572" y="593" type="curve" smooth="yes"/>
      <point x="572" y="687"/>
      <point x="493" y="764"/>
      <point x="350" y="764" type="curve" smooth="yes"/>
    </contour>
    <contour>
      <point x="365" y="629"/>
      <point x="380" y="610"/>
      <point x="380" y="575" type="curve" smooth="yes"/>
      <point x="380" y="534"/>
      <point x="361" y="462"/>
      <point x="305" y="462" type="curve" smooth="yes"/>
      <point x="296" y="462" type="line"/>
      <point x="268" y="333" type="line"/>
      <point x="300" y="333" type="line" smooth="yes"/>
      <point x="343" y="333"/>
      <point x="385" y="320"/>
      <point x="385" y="258" type="curve" smooth="yes"/>
      <point x="385" y="202"/>
      <point x="359" y="129"/>
      <point x="279" y="129" type="curve" smooth="yes"/>
      <point x="248" y="129"/>
      <point x="227" y="134"/>
      <point x="209" y="142" type="curve"/>
      <point x="266" y="550" type="line" smooth="yes"/>
      <point x="274" y="603"/>
      <point x="300" y="629"/>
      <point x="337" y="629" type="curve" smooth="yes"/>
    </contour>
  </outline>
</glyph>
<glyph name="gamma" format="1">
  <advance width="510"/>
  <unicode hex="03B3"/>
  <outline>
    <contour>
      <point x="7" y="495" type="line"/>
      <point x="56" y="414"/>
      <point x="112" y="234"/>
      <point x="130" y="16" type="curve"/>
      <point x="83" y="-83"/>
      <point x="81" y="-144"/>
      <point x="138" y="-227" type="curve"/>
      <point x="286" y="-201" type="line"/>
      <point x="262" y="-109"/>
      <point x="279" y="-54"/>
      <point x="321" y="30" type="curve" smooth="yes"/>
      <point x="560" y="510" type="line"/>
      <point x="377" y="553" type="line"/>
      <point x="246" y="194" type="line"/>
      <point x="254" y="396"/>
      <point x="226" y="500"/>
      <point x="188" y="553" type="curve"/>
    </contour>
  </outline>
</glyph>
<glyph name="delta" format="1">
  <advance width="568"/>
  <unicode hex="03B4"/>
  <outline>
    <contour>
      <point x="189" y="764"/>
      <point x="115" y="677"/>
      <point x="115" y="596" type="curve" smooth="yes"/>
      <point x="115" y="549"/>
      <point x="132" y="504"/>
      <point x="196" y="460" type="curve"/>
      <point x="50" y="407"/>
      <point x="10" y="304"/>
      <point x="10" y="195" type="curve" smooth="yes"/>
      <point x="10" y="80"/>
      <point x="96" y="-20"/>
      <point x="246" y="-20" type="curve" smooth="yes"/>
      <point x="476" y="-20"/>
      <point x="552" y="175"/>
      <point x="552" y="304" type="curve" smooth="yes"/>
      <point x="552" y="416"/>
      <point x="494" y="477"/>
      <point x="374" y="528" type="curve" smooth="yes"/>
      <point x="310" y="555"/>
      <point x="298" y="567"/>
      <point x="298" y="590" type="curve" smooth="yes"/>
      <point x="298" y="612"/>
      <point x="316" y="631"/>
      <point x="363" y="631" type="curve" smooth="yes"/>
      <point x="400" y="631"/>
      <point x="431" y="616"/>
      <point x="461" y="588" type="curve"/>
      <point x="557" y="683" type="line"/>
      <point x="520" y="727"/>
      <point x="452" y="764"/>
      <point x="347" y="764" type="curve" smooth="yes"/>
    </contour>
    <contour>
      <point x="338" y="380"/>
      <point x="354" y="357"/>
      <point x="354" y="312" type="curve" smooth="yes"/>
      <point x="354" y="244"/>
      <point x="339" y="122"/>
      <point x="261" y="122" type="curve" smooth="yes"/>
      <point x="226" y="122"/>
      <point x="208" y="147"/>
      <point x="208" y="195" type="curve" smooth="yes"/>
      <point x="208" y="262"/>
      <point x="215" y="345"/>
      <point x="286" y="410" type="curve"/>
    </contour>
  </outline>
</glyph>
<glyph name="epsilon" format="1">
  <advance width="487"/>
  <unicode hex="03B5"/>
  <outline>
    <contour>
      <point x="146" y="554"/>
      <point x="54" y="498"/>
      <point x="54" y="406" type="curve" smooth="yes"/>
      <point x="54" y="344"/>
      <point x="89" y="300"/>
      <point x="164" y="284" type="curve"/>
      <point x="31" y="268"/>
      <point x="-2" y="195"/>
      <point x="-2" y="128" type="curve" smooth="yes"/>
      <point x="-2" y="30"/>
      <point x="94" y="-20"/>
      <point x="224" y="-20" type="curve" smooth="yes"/>
      <point x="314" y="-20"/>
      <point x="398" y="5"/>
      <point x="451" y="49" type="curve"/>
      <point x="391" y="157" type="line"/>
      <point x="340" y="129"/>
      <point x="305" y="116"/>
      <point x="268" y="116" type="curve" smooth="yes"/>
      <point x="222" y="116"/>
      <point x="200" y="134"/>
      <point x="200" y="160" type="curve" smooth="yes"/>
      <point x="200" y="192"/>
      <point x="222" y="212"/>
      <point x="271" y="212" type="curve" smooth="yes"/>
      <point x="329" y="212" type="line"/>
      <point x="364" y="332" type="line"/>
      <point x="294" y="332" type="line" smooth="yes"/>
      <point x="259" y="332"/>
      <point x="245" y="351"/>
      <point x="245" y="372" type="curve" smooth="yes"/>
      <point x="245" y="404"/>
      <point x="273" y="422"/>
      <point x="308" y="422" type="curve" smooth="yes"/>
      <point x="346" y="422"/>
      <point x="377" y="411"/>
      <point x="409" y="389" type="curve"/>
      <point x="495" y="479" type="line"/>
      <point x="440" y="534"/>
      <point x="363" y="554"/>
      <point x="285" y="554" type="curve" smooth="yes"/>
    </contour>
    <contour>
      <point x="275" y="534" type="move" name="top"/>
    </contour>
  </outline>
</glyph>
<glyph name="eta" format="1">
  <advance width="559.773"/>
  <unicode hex="03B7"/>
  <outline>
    <contour>
      <point x="374.28" y="554"/>
      <point x="310.025" y="532.965"/>
      <point x="256.034" y="454.003" type="curve"/>
      <point x="257" y="502"/>
      <point x="255" y="521"/>
      <point x="244" y="547" type="curve"/>
      <point x="62" y="525" type="line"/>
      <point x="67" y="496"/>
      <point x="69" y="443"/>
      <point x="64" y="398" type="curve" smooth="yes"/>
      <point x="8" y="0" type="line"/>
      <point x="202" y="0" type="line"/>
      <point x="242.189" y="287.753" type="line"/>
      <point x="280.314" y="367.737"/>
      <point x="301.341" y="393"/>
      <point x="320" y="393" type="curve" smooth="yes"/>
      <point x="337" y="393"/>
      <point x="346" y="384"/>
      <point x="340" y="342" type="curve" smooth="yes"/>
      <point x="261" y="-227" type="line"/>
      <point x="455" y="-210" type="line"/>
      <point x="542" y="393" type="line" smooth="yes"/>
      <point x="557" y="495"/>
      <point x="509" y="554"/>
      <point x="427" y="554" type="curve" smooth="yes"/>
    </contour>
    <contour>
      <point x="319" y="534" type="move" name="top"/>
    </contour>
  </outline>
</glyph>
<glyph name="theta" format="1">
  <advance width="546"/>
  <unicode hex="03B8"/>
  <outline>
    <contour>
      <point x="175" y="764"/>
      <point x="68" y="636"/>
      <point x="31" y="376" type="curve" smooth="yes"/>
      <point x="25" y="330"/>
      <point x="21" y="288"/>
      <point x="21" y="251" type="curve" smooth="yes"/>
      <point x="21" y="68"/>
      <point x="96" y="-20"/>
      <point x="234" y="-20" type="curve" smooth="yes"/>
      <point x="398" y="-20"/>
      <point x="505" y="106"/>
      <point x="543" y="370" type="curve" smooth="yes"/>
      <point x="549" y="414"/>
      <point x="552" y="455"/>
      <point x="552" y="492" type="curve" smooth="yes"/>
      <point x="552" y="675"/>
      <point x="477" y="764"/>
      <point x="337" y="764" type="curve" smooth="yes"/>
    </contour>
    <contour>
      <point x="327" y="151"/>
      <point x="295" y="118"/>
      <point x="249" y="118" type="curve" smooth="yes"/>
      <point x="214" y="118"/>
      <point x="194" y="136"/>
      <point x="194" y="216" type="curve" smooth="yes"/>
      <point x="194" y="243"/>
      <point x="196" y="278"/>
      <point x="201" y="321" type="curve"/>
      <point x="356" y="321" type="line"/>
    </contour>
    <contour>
      <point x="360" y="628"/>
      <point x="379" y="611"/>
      <point x="379" y="536" type="curve" smooth="yes"/>
      <point x="379" y="509"/>
      <point x="376" y="473"/>
      <point x="371" y="427" type="curve"/>
      <point x="216" y="427" type="line"/>
      <point x="244" y="596"/>
      <point x="275" y="628"/>
      <point x="325" y="628" type="curve" smooth="yes"/>
    </contour>
  </outline>
</glyph>
<glyph name="iota" format="1">
  <advance width="267"/>
  <unicode hex="03B9"/>
  <outline>
    <contour>
      <point x="73" y="534" type="line"/>
      <point x="23" y="177" type="line" smooth="yes"/>
      <point x="6" y="53"/>
      <point x="67" y="-4"/>
      <point x="177" y="-20" type="curve"/>
      <point x="250" y="120" type="line"/>
      <point x="220" y="136"/>
      <point x="215" y="156"/>
      <point x="221" y="201" type="curve" smooth="yes"/>
      <point x="267" y="534" type="line"/>
    </contour>
    <contour>
      <point x="170" y="534" type="move" name="top"/>
    </contour>
  </outline>
</glyph>
<glyph name="kappa" format="1">
  <advance width="569"/>
  <unicode hex="03BA"/>
  <outline>
    <contour>
      <point x="244" y="281" type="line"/>
      <point x="326" y="84" type="line" smooth="yes"/>
      <point x="355" y="13"/>
      <point x="405" y="-14"/>
      <point x="466" y="-20" type="curve"/>
      <point x="549" y="125" type="line"/>
      <point x="531" y="134"/>
      <point x="523" y="140"/>
      <point x="513" y="157" type="curve" smooth="yes"/>
      <point x="444" y="278" type="line"/>
      <point x="593" y="480" type="line"/>
      <point x="435" y="554" type="line"/>
    </contour>
    <contour>
      <point x="62" y="525" type="line"/>
      <point x="67" y="496"/>
      <point x="69" y="443"/>
      <point x="64" y="398" type="curve" smooth="yes"/>
      <point x="8" y="0" type="line"/>
      <point x="202" y="0" type="line"/>
      <point x="251" y="348" type="line"/>
      <point x="266" y="458"/>
      <point x="259" y="509"/>
      <point x="245" y="548" type="curve"/>
    </contour>
  </outline>
</glyph>
<glyph name="lambda" format="1">
  <advance width="540"/>
  <unicode hex="03BB"/>
  <outline>
    <contour>
      <point x="107" y="631" type="line"/>
      <point x="205" y="617"/>
      <point x="232" y="601"/>
      <point x="251" y="530" type="curve"/>
      <point x="196" y="545" type="line"/>
      <point x="-34" y="27" type="line"/>
      <point x="156" y="-20" type="line"/>
      <point x="271" y="351" type="line"/>
      <point x="270" y="146"/>
      <point x="285" y="86"/>
      <point x="331" y="-19" type="curve"/>
      <point x="528" y="39" type="line"/>
      <point x="473" y="141"/>
      <point x="452" y="248"/>
      <point x="430" y="488" type="curve" smooth="yes"/>
      <point x="412" y="690"/>
      <point x="324" y="740"/>
      <point x="145" y="764" type="curve"/>
    </contour>
  </outline>
</glyph>
<glyph name="mu" format="1">
  <advance width="567"/>
  <unicode hex="03BC"/>
  <outline>
    <contour>
      <point x="555" y="534" type="line"/>
      <point x="361" y="534" type="line"/>
      <point x="310" y="170" type="line"/>
      <point x="289" y="138"/>
      <point x="264" y="124"/>
      <point x="245" y="124" type="curve" smooth="yes"/>
      <point x="229" y="124"/>
      <point x="216" y="132"/>
      <point x="221" y="166" type="curve" smooth="yes"/>
      <point x="272" y="534" type="line"/>
      <point x="78" y="534" type="line"/>
      <point x="-28" y="-225" type="line"/>
      <point x="155" y="-207" type="line"/>
      <point x="167" y="-124" type="line" smooth="yes"/>
      <point x="178" y="-50"/>
      <point x="171" y="-23"/>
      <point x="164" y="9" type="curve"/>
      <point x="173" y="1"/>
      <point x="189" y="-6"/>
      <point x="217" y="-6" type="curve" smooth="yes"/>
      <point x="257" y="-6"/>
      <point x="285" y="11"/>
      <point x="313" y="58" type="curve"/>
      <point x="314" y="23"/>
      <point x="316" y="5"/>
      <point x="324" y="-19" type="curve"/>
      <point x="504" y="-1" type="line"/>
      <point x="497" y="40"/>
      <point x="495" y="101"/>
      <point x="506" y="183" type="curve" smooth="yes"/>
    </contour>
  </outline>
</glyph>
<glyph name="nu" format="1">
  <advance width="510"/>
  <unicode hex="03BD"/>
  <outline>
    <contour>
      <point x="7" y="495" type="line"/>
      <point x="65" y="416"/>
      <point x="86" y="227"/>
      <point x="90" y="1" type="curve"/>
      <point x="330" y="0" type="line"/>
      <point x="560" y="510" type="line"/>
      <point x="379" y="553" type="line"/>
      <point x="241" y="169" type="line"/>
      <point x="252" y="378"/>
      <point x="226" y="500"/>
      <point x="188" y="553" type="curve"/>
    </contour>
  </outline>
</glyph>
<glyph name="xi" format="1">
  <advance width="446"/>
  <unicode hex="03BE"/>
  <outline>
    <contour>
      <point x="172" y="764"/>
      <point x="97" y="658"/>
      <point x="97" y="576" type="curve" smooth="yes"/>
      <point x="97" y="510"/>
      <point x="135" y="465"/>
      <point x="205" y="446" type="curve"/>
      <point x="57" y="411"/>
      <point x="10" y="330"/>
      <point x="10" y="230" type="curve" smooth="yes"/>
      <point x="10" y="119"/>
      <point x="78" y="69"/>
      <point x="174" y="22" type="curve" smooth="yes"/>
      <point x="219" y="-1"/>
      <point x="234" y="-12"/>
      <point x="234" y="-35" type="curve" smooth="yes"/>
      <point x="234" y="-66"/>
      <point x="204" y="-85"/>
      <point x="157" y="-113" type="curve"/>
      <point x="213" y="-228" type="line"/>
      <point x="364" y="-167"/>
      <point x="435" y="-102"/>
      <point x="435" y="-4" type="curve" smooth="yes"/>
      <point x="435" y="71"/>
      <point x="394" y="103"/>
      <point x="328" y="134" type="curve" smooth="yes"/>
      <point x="245" y="173"/>
      <point x="212" y="198"/>
      <point x="212" y="251" type="curve" smooth="yes"/>
      <point x="212" y="326"/>
      <point x="264" y="371"/>
      <point x="332" y="371" type="curve" smooth="yes"/>
      <point x="370" y="371" type="line"/>
      <point x="404" y="495" type="line"/>
      <point x="356" y="495" type="line" smooth="yes"/>
      <point x="312" y="495"/>
      <point x="289" y="514"/>
      <point x="289" y="554" type="curve" smooth="yes"/>
      <point x="289" y="600"/>
      <point x="318" y="629"/>
      <point x="358" y="629" type="curve" smooth="yes"/>
      <point x="392" y="629"/>
      <point x="413" y="617"/>
      <point x="439" y="599" type="curve"/>
      <point x="532" y="691" type="line"/>
      <point x="485" y="738"/>
      <point x="417" y="764"/>
      <point x="336" y="764" type="curve" smooth="yes"/>
    </contour>
  </outline>
</glyph>
<glyph name="pi" format="1">
  <advance width="596"/>
  <unicode hex="03C0"/>
  <outline>
    <contour>
      <point x="131" y="534" type="line" smooth="yes"/>
      <point x="89" y="534"/>
      <point x="53" y="525"/>
      <point x="22" y="513" type="curve"/>
      <point x="40" y="374" type="line"/>
      <point x="55.381" y="379.324"/>
      <point x="66.5627" y="383.598"/>
      <point x="85.1383" y="386.202" type="curve"/>
      <point x="32" y="0" type="line"/>
      <point x="222" y="0" type="line"/>
      <point x="275.523" y="389" type="line"/>
      <point x="353.417" y="389" type="line"/>
      <point x="323" y="177" type="line" smooth="yes"/>
      <point x="306" y="52.9999"/>
      <point x="367" y="-4"/>
      <point x="477" y="-20" type="curve"/>
      <point x="550" y="120" type="line"/>
      <point x="520" y="136"/>
      <point x="516" y="156"/>
      <point x="522" y="201" type="curve" smooth="yes"/>
      <point x="548.338" y="389" type="line"/>
      <point x="615" y="389" type="line"/>
      <point x="635" y="534" type="line"/>
    </contour>
  </outline>
</glyph>
<glyph name="rho" format="1">
  <advance width="584"/>
  <unicode hex="03C1"/>
  <outline>
    <contour>
      <point x="154" y="554"/>
      <point x="61" y="453"/>
      <point x="37" y="278" type="curve" smooth="yes"/>
      <point x="-33" y="-227" type="line"/>
      <point x="163" y="-207" type="line"/>
      <point x="195" y="15" type="line"/>
      <point x="218" y="-3"/>
      <point x="264" y="-20"/>
      <point x="309" y="-20" type="curve" smooth="yes"/>
      <point x="491" y="-20"/>
      <point x="566" y="174"/>
      <point x="566" y="333" type="curve" smooth="yes"/>
      <point x="566" y="481"/>
      <point x="469" y="554"/>
      <point x="314" y="554" type="curve" smooth="yes"/>
    </contour>
    <contour>
      <point x="345" y="413"/>
      <point x="367" y="400"/>
      <point x="367" y="335" type="curve" smooth="yes"/>
      <point x="367" y="244"/>
      <point x="342" y="121"/>
      <point x="272" y="121" type="curve" smooth="yes"/>
      <point x="246" y="121"/>
      <point x="229" y="130"/>
      <point x="215" y="159" type="curve"/>
      <point x="227" y="242" type="line" smooth="yes"/>
      <point x="245" y="372"/>
      <point x="269" y="413"/>
      <point x="316" y="413" type="curve" smooth="yes"/>
    </contour>
  </outline>
</glyph>
<glyph name="sigmafinal" format="1">
  <advance width="475"/>
  <unicode hex="03C2"/>
  <outline>
    <contour>
      <point x="98" y="554"/>
      <point x="15" y="367"/>
      <point x="15" y="237" type="curve" smooth="yes"/>
      <point x="15" y="125"/>
      <point x="71" y="66"/>
      <point x="156" y="24" type="curve" smooth="yes"/>
      <point x="201" y="1"/>
      <point x="215" y="-12"/>
      <point x="215" y="-35" type="curve" smooth="yes"/>
      <point x="215" y="-66"/>
      <point x="185" y="-85"/>
      <point x="138" y="-113" type="curve"/>
      <point x="194" y="-228" type="line"/>
      <point x="345" y="-167"/>
      <point x="416" y="-102"/>
      <point x="416" y="-4" type="curve" smooth="yes"/>
      <point x="416" y="71"/>
      <point x="375" y="103"/>
      <point x="309" y="134" type="curve" smooth="yes"/>
      <point x="241" y="168"/>
      <point x="219" y="196"/>
      <point x="219" y="245" type="curve" smooth="yes"/>
      <point x="219" y="313"/>
      <point x="243" y="405"/>
      <point x="329" y="405" type="curve" smooth="yes"/>
      <point x="358" y="405"/>
      <point x="386" y="395"/>
      <point x="415" y="369" type="curve"/>
      <point x="510" y="478" type="line"/>
      <point x="466" y="524"/>
      <point x="403" y="554"/>
      <point x="323" y="554" type="curve" smooth="yes"/>
    </contour>
  </outline>
</glyph>
<glyph name="sigma" format="1">
  <advance width="601"/>
  <unicode hex="03C3"/>
  <outline>
    <contour>
      <point x="80" y="544"/>
      <point x="13" y="354"/>
      <point x="13" y="211" type="curve" smooth="yes"/>
      <point x="13" y="61"/>
      <point x="107" y="-20"/>
      <point x="256" y="-20" type="curve" smooth="yes"/>
      <point x="482" y="-20"/>
      <point x="558" y="169"/>
      <point x="558" y="289" type="curve" smooth="yes"/>
      <point x="558" y="343"/>
      <point x="546" y="377"/>
      <point x="524" y="403" type="curve"/>
      <point x="618" y="392" type="line"/>
      <point x="637" y="534" type="line"/>
      <point x="534" y="539"/>
      <point x="447" y="544"/>
      <point x="344" y="544" type="curve" smooth="yes"/>
    </contour>
    <contour>
      <point x="361" y="397"/>
      <point x="364" y="380"/>
      <point x="364" y="356" type="curve" smooth="yes"/>
      <point x="364" y="280"/>
      <point x="352" y="122"/>
      <point x="264" y="122" type="curve" smooth="yes"/>
      <point x="228" y="122"/>
      <point x="210" y="144"/>
      <point x="210" y="199" type="curve" smooth="yes"/>
      <point x="210" y="335"/>
      <point x="246" y="410"/>
      <point x="333" y="409" type="curve" smooth="yes"/>
      <point x="356" y="409" type="line"/>
    </contour>
  </outline>
</glyph>
<glyph name="tau" format="1">
  <advance width="475"/>
  <unicode hex="03C4"/>
  <outline>
    <contour>
      <point x="132" y="534" type="line" smooth="yes"/>
      <point x="80" y="534"/>
      <point x="47" y="527"/>
      <point x="13" y="513" type="curve"/>
      <point x="31" y="374" type="line"/>
      <point x="61" y="383"/>
      <point x="95" y="389"/>
      <point x="153" y="389" type="curve" smooth="yes"/>
      <point x="160" y="389" type="line"/>
      <point x="130" y="177" type="line" smooth="yes"/>
      <point x="113" y="53"/>
      <point x="184" y="-4"/>
      <point x="294" y="-20" type="curve"/>
      <point x="356" y="120" type="line"/>
      <point x="327" y="136"/>
      <point x="322" y="156"/>
      <point x="328" y="201" type="curve" smooth="yes"/>
      <point x="354" y="389" type="line"/>
      <point x="496" y="389" type="line"/>
      <point x="516" y="534" type="line"/>
    </contour>
  </outline>
</glyph>
<glyph name="upsilon" format="1">
  <advance width="548"/>
  <unicode hex="03C5"/>
  <outline>
    <contour>
      <point x="344" y="534" type="line"/>
      <point x="347" y="508"/>
      <point x="348" y="483"/>
      <point x="348" y="456" type="curve" smooth="yes"/>
      <point x="348" y="348"/>
      <point x="335" y="122"/>
      <point x="248" y="122" type="curve" smooth="yes"/>
      <point x="213" y="122"/>
      <point x="215" y="161"/>
      <point x="219" y="190" type="curve" smooth="yes"/>
      <point x="267" y="534" type="line"/>
      <point x="73" y="534" type="line"/>
      <point x="24" y="182" type="line" smooth="yes"/>
      <point x="9" y="84"/>
      <point x="63" y="-20"/>
      <point x="227" y="-20" type="curve" smooth="yes"/>
      <point x="485" y="-20"/>
      <point x="535" y="171"/>
      <point x="535" y="426" type="curve" smooth="yes"/>
      <point x="535" y="469"/>
      <point x="532" y="504"/>
      <point x="527" y="534" type="curve"/>
    </contour>
    <contour>
      <point x="305" y="534" type="move" name="top"/>
    </contour>
  </outline>
</glyph>
<glyph name="phi" format="1">
  <advance width="752.312"/>
  <unicode hex="03C6"/>
  <outline>
    <contour>
      <point x="395" y="554"/>
      <point x="312" y="463"/>
      <point x="292" y="318" type="curve" smooth="yes"/>
      <point x="263.377" y="112.742" type="line"/>
      <point x="216.816" y="122.898"/>
      <point x="199" y="150.707"/>
      <point x="199" y="202" type="curve" smooth="yes"/>
      <point x="199" y="303"/>
      <point x="227" y="398"/>
      <point x="297" y="534" type="curve"/>
      <point x="120" y="534" type="line"/>
      <point x="50" y="419"/>
      <point x="11" y="291"/>
      <point x="11" y="200" type="curve" smooth="yes"/>
      <point x="11" y="80.324"/>
      <point x="85.2472" y="0.0631961"/>
      <point x="245.15" y="-17.9653" type="curve"/>
      <point x="216" y="-227" type="line"/>
      <point x="397" y="-207" type="line"/>
      <point x="423.595" y="-18.3515" type="line"/>
      <point x="683" y="9"/>
      <point x="735" y="183"/>
      <point x="735" y="343" type="curve" smooth="yes"/>
      <point x="735" y="479"/>
      <point x="672" y="554"/>
      <point x="537" y="554" type="curve" smooth="yes"/>
    </contour>
    <contour>
      <point x="543" y="426"/>
      <point x="554" y="417"/>
      <point x="554" y="375" type="curve" smooth="yes"/>
      <point x="554" y="293"/>
      <point x="546" y="130"/>
      <point x="442.117" y="113.027" type="curve"/>
      <point x="472" y="325" type="line" smooth="yes"/>
      <point x="484" y="409"/>
      <point x="498" y="426"/>
      <point x="525" y="426" type="curve" smooth="yes"/>
    </contour>
  </outline>
</glyph>
<glyph name="chi" format="1">
  <advance width="495"/>
  <unicode hex="03C7"/>
  <outline>
    <contour>
      <point x="-3" y="494" type="line"/>
      <point x="53" y="424"/>
      <point x="83" y="333"/>
      <point x="134" y="180" type="curve"/>
      <point x="211" y="37" type="line"/>
      <point x="258" y="-227" type="line"/>
      <point x="455" y="-194" type="line"/>
      <point x="332" y="181" type="line"/>
      <point x="253" y="318" type="line"/>
      <point x="235" y="453"/>
      <point x="223" y="479"/>
      <point x="194" y="548" type="curve"/>
    </contour>
    <contour>
      <point x="253" y="318" type="line"/>
      <point x="134" y="180" type="line"/>
      <point x="-97" y="-207" type="line"/>
      <point x="100" y="-227" type="line"/>
      <point x="211" y="37" type="line"/>
      <point x="332" y="181" type="line"/>
      <point x="534" y="528" type="line"/>
      <point x="333" y="548" type="line"/>
    </contour>
  </outline>
</glyph>
<glyph name="psi" format="1">
  <advance width="779.185"/>
  <unicode hex="03C8"/>
  <outline>
    <contour>
      <point x="766" y="461"/>
      <point x="763" y="499"/>
      <point x="760" y="534" type="curve"/>
      <point x="580" y="534" type="line"/>
      <point x="581" y="511"/>
      <point x="583" y="475"/>
      <point x="583" y="455" type="curve" smooth="yes"/>
      <point x="583" y="317.998"/>
      <point x="584.835" y="141.527"/>
      <point x="464.515" y="117.292" type="curve"/>
      <point x="523" y="534" type="line"/>
      <point x="341" y="534" type="line"/>
      <point x="282.858" y="116.586" type="line"/>
      <point x="225.013" y="127.897"/>
      <point x="210.709" y="164.143"/>
      <point x="218" y="217" type="curve" smooth="yes"/>
      <point x="262" y="534" type="line"/>
      <point x="73" y="534" type="line"/>
      <point x="27" y="209" type="line" smooth="yes"/>
      <point x="10.6312" y="91.5291"/>
      <point x="86.9753" y="-0.909206"/>
      <point x="264.067" y="-18.3232" type="curve"/>
      <point x="235" y="-227" type="line"/>
      <point x="419" y="-207" type="line"/>
      <point x="445.578" y="-17.6341" type="line"/>
      <point x="713.168" y="7.56709"/>
      <point x="766" y="170.038"/>
      <point x="766" y="418" type="curve"/>
    </contour>
  </outline>
</glyph>
<glyph name="omega" format="1">
  <advance width="755"/>
  <unicode hex="03C9"/>
  <outline>
    <contour>
      <point x="538" y="534" type="line"/>
      <point x="546" y="475"/>
      <point x="555" y="413"/>
      <point x="555" y="351" type="curve" smooth="yes"/>
      <point x="555" y="289"/>
      <point x="545" y="122"/>
      <point x="482" y="122" type="curve" smooth="yes"/>
      <point x="466" y="122"/>
      <point x="454" y="127"/>
      <point x="454" y="154" type="curve" smooth="yes"/>
      <point x="454" y="168"/>
      <point x="455" y="177"/>
      <point x="457" y="195" type="curve" smooth="yes"/>
      <point x="483" y="379" type="line"/>
      <point x="301" y="355" type="line"/>
      <point x="278" y="191" type="line" smooth="yes"/>
      <point x="270" y="132"/>
      <point x="254" y="122"/>
      <point x="232" y="122" type="curve" smooth="yes"/>
      <point x="212" y="122"/>
      <point x="199" y="139"/>
      <point x="199" y="187" type="curve" smooth="yes"/>
      <point x="199" y="290"/>
      <point x="239" y="403"/>
      <point x="293" y="534" type="curve"/>
      <point x="120" y="534" type="line"/>
      <point x="56" y="414"/>
      <point x="10" y="288"/>
      <point x="10" y="178" type="curve" smooth="yes"/>
      <point x="10" y="43"/>
      <point x="77" y="-20"/>
      <point x="184" y="-20" type="curve" smooth="yes"/>
      <point x="261" y="-20"/>
      <point x="318" y="11"/>
      <point x="355" y="103" type="curve"/>
      <point x="368" y="14"/>
      <point x="424" y="-20"/>
      <point x="498" y="-20" type="curve" smooth="yes"/>
      <point x="689" y="-20"/>
      <point x="741" y="172"/>
      <point x="741" y="350" type="curve" smooth="yes"/>
      <point x="741" y="420"/>
      <point x="729" y="480"/>
      <point x="710" y="534" type="curve"/>
    </contour>
    <contour>
      <point x="416" y="534" type="move" name="top"/>
    </contour>
  </outline>
</glyph>
<glyph name="uni0402" format="1">
  <advance width="755"/>
  <unicode hex="0402"/>
  <outline>
    <contour>
      <point x="484" y="481"/>
      <point x="439" y="466"/>
      <point x="396" y="435" type="curve"/>
      <point x="411" y="546" type="line"/>
      <point x="567" y="546" type="line"/>
      <point x="607" y="696" type="line"/>
      <point x="64" y="696" type="line"/>
      <point x="43" y="546" type="line"/>
      <point x="209" y="546" type="line"/>
      <point x="133" y="0" type="line"/>
      <point x="335" y="0" type="line"/>
      <point x="378" y="306" type="line"/>
      <point x="401" y="323"/>
      <point x="428" y="335"/>
      <point x="466" y="335" type="curve" smooth="yes"/>
      <point x="520" y="335"/>
      <point x="538" y="303"/>
      <point x="527" y="226" type="curve"/>
      <point x="513" y="119" type="line"/>
      <point x="502" y="42"/>
      <point x="484" y="-10"/>
      <point x="392" y="-44" type="curve"/>
      <point x="428" y="-189" type="line"/>
      <point x="551" y="-149"/>
      <point x="686" y="-84"/>
      <point x="714" y="110" type="curve"/>
      <point x="729" y="224" type="line"/>
      <point x="751" y="382"/>
      <point x="686" y="481"/>
      <point x="540" y="481" type="curve" smooth="yes"/>
    </contour>
  </outline>
</glyph>
<glyph name="uni0404" format="1">
  <advance width="566"/>
  <unicode hex="0404"/>
  <outline>
    <contour>
      <point x="113" y="716"/>
      <point x="25" y="453"/>
      <point x="25" y="269" type="curve" smooth="yes"/>
      <point x="25" y="80"/>
      <point x="129" y="-20"/>
      <point x="297" y="-20" type="curve" smooth="yes"/>
      <point x="401" y="-20"/>
      <point x="487" y="25"/>
      <point x="545" y="77" type="curve"/>
      <point x="475" y="190" type="line"/>
      <point x="432" y="157"/>
      <point x="387" y="129"/>
      <point x="330" y="129" type="curve" smooth="yes"/>
      <point x="267" y="129"/>
      <point x="223" y="177"/>
      <point x="223" y="265" type="curve" smooth="yes"/>
      <point x="223" y="278"/>
      <point x="224" y="292"/>
      <point x="226" y="307" type="curve"/>
      <point x="239" y="401" type="line"/>
      <point x="259" y="510"/>
      <point x="321" y="571"/>
      <point x="394" y="571" type="curve" smooth="yes"/>
      <point x="438" y="571"/>
      <point x="472" y="555"/>
      <point x="506" y="522" type="curve"/>
      <point x="614" y="627" type="line"/>
      <point x="563" y="684"/>
      <point x="495" y="716"/>
      <point x="401" y="716" type="curve" smooth="yes"/>
    </contour>
    <contour>
      <point x="228" y="424" type="line"/>
      <point x="210" y="286" type="line"/>
      <point x="444" y="286" type="line"/>
      <point x="463" y="424" type="line"/>
    </contour>
  </outline>
</glyph>
<glyph name="uni0409" format="1">
  <advance width="923"/>
  <unicode hex="0409"/>
  <outline>
    <contour>
      <point x="176" y="696" type="line"/>
      <point x="108" y="413" type="line" smooth="yes"/>
      <point x="47" y="160"/>
      <point x="29" y="148"/>
      <point x="-33" y="130" type="curve"/>
      <point x="-5" y="-20" type="line"/>
      <point x="179" y="4"/>
      <point x="220" y="76"/>
      <point x="300" y="421" type="curve" smooth="yes"/>
      <point x="329" y="544" type="line"/>
      <point x="420" y="544" type="line"/>
      <point x="643" y="696" type="line"/>
    </contour>
    <contour>
      <point x="441" y="696" type="line"/>
      <point x="344" y="0" type="line"/>
      <point x="608" y="0" type="line" smooth="yes"/>
      <point x="830" y="0"/>
      <point x="914" y="147"/>
      <point x="914" y="276" type="curve" smooth="yes"/>
      <point x="914" y="402"/>
      <point x="823" y="469"/>
      <point x="663" y="469" type="curve" smooth="yes"/>
      <point x="596" y="469" type="line"/>
      <point x="577" y="331" type="line"/>
      <point x="624" y="331" type="line" smooth="yes"/>
      <point x="680" y="331"/>
      <point x="702" y="300"/>
      <point x="702" y="260" type="curve" smooth="yes"/>
      <point x="702" y="217"/>
      <point x="683" y="145"/>
      <point x="600" y="145" type="curve" smooth="yes"/>
      <point x="566" y="145" type="line"/>
      <point x="643" y="696" type="line"/>
    </contour>
  </outline>
</glyph>
<glyph name="uni040A" format="1">
  <advance width="938"/>
  <unicode hex="040A"/>
  <outline>
    <contour>
      <point x="624" y="459" type="line"/>
      <point x="657" y="696" type="line"/>
      <point x="455" y="696" type="line"/>
      <point x="422" y="459" type="line"/>
      <point x="272" y="459" type="line"/>
      <point x="305" y="696" type="line"/>
      <point x="103" y="696" type="line"/>
      <point x="6" y="0" type="line"/>
      <point x="208" y="0" type="line"/>
      <point x="252" y="316" type="line"/>
      <point x="402" y="316" type="line"/>
      <point x="358" y="0" type="line"/>
      <point x="622" y="0" type="line" smooth="yes"/>
      <point x="844" y="0"/>
      <point x="928" y="147"/>
      <point x="928" y="268" type="curve" smooth="yes"/>
      <point x="928" y="392"/>
      <point x="837" y="459"/>
      <point x="677" y="459" type="curve" smooth="yes"/>
    </contour>
    <contour>
      <point x="580" y="145" type="line"/>
      <point x="605" y="321" type="line"/>
      <point x="638" y="321" type="line" smooth="yes"/>
      <point x="698" y="321"/>
      <point x="716" y="290"/>
      <point x="716" y="252" type="curve" smooth="yes"/>
      <point x="716" y="217"/>
      <point x="697" y="145"/>
      <point x="614" y="145" type="curve" smooth="yes"/>
    </contour>
  </outline>
</glyph>
<glyph name="uni040B" format="1">
  <advance width="713"/>
  <unicode hex="040B"/>
  <outline>
    <contour>
      <point x="64" y="696" type="line"/>
      <point x="43" y="546" type="line"/>
      <point x="567" y="546" type="line"/>
      <point x="607" y="696" type="line"/>
    </contour>
    <component base="uni04BA" xOffset="86"/>
  </outline>
</glyph>
<glyph name="uni0411" format="1">
  <advance width="595"/>
  <unicode hex="0411"/>
  <outline>
    <contour>
      <point x="103" y="696" type="line"/>
      <point x="6" y="0" type="line"/>
      <point x="280" y="0" type="line" smooth="yes"/>
      <point x="507" y="0"/>
      <point x="585" y="153"/>
      <point x="585" y="269" type="curve" smooth="yes"/>
      <point x="585" y="394"/>
      <point x="495" y="456"/>
      <point x="334" y="456" type="curve" smooth="yes"/>
      <point x="257" y="456" type="line"/>
      <point x="237" y="318" type="line"/>
      <point x="294" y="318" type="line" smooth="yes"/>
      <point x="351" y="318"/>
      <point x="372" y="292"/>
      <point x="372" y="254" type="curve" smooth="yes"/>
      <point x="372" y="190"/>
      <point x="337" y="145"/>
      <point x="272" y="145" type="curve" smooth="yes"/>
      <point x="228" y="145" type="line"/>
      <point x="304" y="686" type="line"/>
    </contour>
    <contour>
      <point x="103" y="696" type="line"/>
      <point x="269" y="543" type="line"/>
      <point x="522" y="543" type="line"/>
      <point x="562" y="696" type="line"/>
    </contour>
  </outline>
</glyph>
<glyph name="uni0413" format="1">
  <advance width="500"/>
  <unicode hex="0413"/>
  <outline>
    <contour>
      <point x="6" y="0" type="line"/>
      <point x="208" y="0" type="line"/>
      <point x="289" y="584" type="line"/>
      <point x="103" y="696" type="line"/>
    </contour>
    <contour>
      <point x="103" y="696" type="line"/>
      <point x="267" y="538" type="line"/>
      <point x="525" y="538" type="line"/>
      <point x="566" y="696" type="line"/>
    </contour>
    <contour>
      <point x="341" y="696" type="move" name="top"/>
    </contour>
    <contour>
      <point x="217" y="0" type="move" name="bottomright"/>
    </contour>
  </outline>
</glyph>
<glyph name="uni0414" format="1">
  <advance width="630"/>
  <unicode hex="0414"/>
  <outline>
    <contour>
      <point x="203" y="696" type="line"/>
      <point x="144" y="468" type="line" smooth="yes"/>
      <point x="91" y="272"/>
      <point x="80" y="196"/>
      <point x="20" y="154" type="curve"/>
      <point x="0" y="0" type="line"/>
      <point x="535" y="0" type="line"/>
      <point x="632" y="696" type="line"/>
    </contour>
    <contour>
      <point x="362" y="154" type="line"/>
      <point x="179" y="154" type="line"/>
      <point x="246" y="205"/>
      <point x="292" y="292"/>
      <point x="339" y="491" type="curve" smooth="yes"/>
      <point x="352" y="549" type="line"/>
      <point x="418" y="549" type="line"/>
    </contour>
    <component base="descStraight-cy.case" xOffset="400"/>
    <component base="descStraightleft-cy.case" xOffset="-64"/>
  </outline>
</glyph>
<glyph name="uni0416" format="1">
  <advance width="923"/>
  <unicode hex="0416"/>
  <outline>
    <contour>
      <point x="819" y="704"/>
      <point x="773" y="684"/>
      <point x="713" y="591" type="curve" smooth="yes"/>
      <point x="610" y="430" type="line"/>
      <point x="580" y="430" type="line"/>
      <point x="617" y="696" type="line"/>
      <point x="435" y="696" type="line"/>
      <point x="398" y="430" type="line"/>
      <point x="366" y="430" type="line"/>
      <point x="304" y="573" type="line" smooth="yes"/>
      <point x="268" y="657"/>
      <point x="205" y="704"/>
      <point x="77" y="716" type="curve"/>
      <point x="28" y="580" type="line"/>
      <point x="95" y="568"/>
      <point x="125" y="543"/>
      <point x="147" y="493" type="curve" smooth="yes"/>
      <point x="194" y="388" type="line"/>
      <point x="-53" y="0" type="line"/>
      <point x="166" y="0" type="line"/>
      <point x="342" y="291" type="line"/>
      <point x="378" y="291" type="line"/>
      <point x="335" y="0" type="line"/>
      <point x="520" y="0" type="line"/>
      <point x="561" y="291" type="line"/>
      <point x="598" y="291" type="line"/>
      <point x="693" y="0" type="line"/>
      <point x="901" y="0" type="line"/>
      <point x="768" y="367" type="line"/>
      <point x="862" y="504" type="line" smooth="yes"/>
      <point x="897" y="555"/>
      <point x="927" y="572"/>
      <point x="978" y="578" type="curve"/>
      <point x="941" y="716" type="line"/>
    </contour>
    <contour>
      <point x="527" y="696" type="move" name="top"/>
    </contour>
    <contour>
      <point x="875" y="0" type="move" name="bottomright"/>
    </contour>
  </outline>
</glyph>
<glyph name="uni0417" format="1">
  <advance width="540"/>
  <unicode hex="0417"/>
  <outline>
    <contour>
      <point x="221" y="716"/>
      <point x="135" y="684"/>
      <point x="60" y="621" type="curve"/>
      <point x="142" y="519" type="line"/>
      <point x="190" y="555"/>
      <point x="232" y="572"/>
      <point x="273" y="572" type="curve" smooth="yes"/>
      <point x="326" y="572"/>
      <point x="340" y="544"/>
      <point x="334" y="509" type="curve" smooth="yes"/>
      <point x="328" y="463"/>
      <point x="296" y="436"/>
      <point x="239" y="436" type="curve" smooth="yes"/>
      <point x="183" y="436" type="line"/>
      <point x="140" y="295" type="line"/>
      <point x="217" y="295" type="line" smooth="yes"/>
      <point x="288" y="295"/>
      <point x="316" y="263"/>
      <point x="309" y="212" type="curve" smooth="yes"/>
      <point x="301" y="154"/>
      <point x="259" y="126"/>
      <point x="200" y="126" type="curve" smooth="yes"/>
      <point x="153" y="126"/>
      <point x="119" y="144"/>
      <point x="82" y="183" type="curve"/>
      <point x="-36" y="81" type="line"/>
      <point x="12" y="18"/>
      <point x="83" y="-20"/>
      <point x="199" y="-20" type="curve" smooth="yes"/>
      <point x="371" y="-20"/>
      <point x="499" y="61"/>
      <point x="517" y="193" type="curve" smooth="yes"/>
      <point x="531" y="295"/>
      <point x="474" y="354"/>
      <point x="357" y="367" type="curve"/>
      <point x="478" y="391"/>
      <point x="534" y="454"/>
      <point x="544" y="527" type="curve" smooth="yes"/>
      <point x="559" y="638"/>
      <point x="471" y="716"/>
      <point x="319" y="716" type="curve" smooth="yes"/>
    </contour>
    <contour>
      <point x="321" y="696" type="move" name="top"/>
    </contour>
    <contour>
      <point x="227" y="0" type="move" name="bottom"/>
    </contour>
  </outline>
</glyph>
<glyph name="uni0418" format="1">
  <advance width="639"/>
  <unicode hex="0418"/>
  <outline>
    <contour>
      <point x="422" y="696" type="line"/>
      <point x="190" y="177" type="line"/>
      <point x="223" y="269"/>
      <point x="248" y="357"/>
      <point x="267" y="484" type="curve" smooth="yes"/>
      <point x="298" y="696" type="line"/>
      <point x="103" y="696" type="line"/>
      <point x="6" y="0" type="line"/>
      <point x="245" y="0" type="line"/>
      <point x="473" y="525" type="line"/>
      <point x="437" y="416"/>
      <point x="412" y="343"/>
      <point x="393" y="214" type="curve" smooth="yes"/>
      <point x="364" y="0" type="line"/>
      <point x="559" y="0" type="line"/>
      <point x="656" y="696" type="line"/>
    </contour>
    <contour>
      <point x="380" y="696" type="move" name="top"/>
    </contour>
  </outline>
</glyph>
<glyph name="uni041A" format="1">
  <advance width="634"/>
  <unicode hex="041A"/>
  <outline>
    <contour>
      <point x="523" y="704"/>
      <point x="478" y="684"/>
      <point x="418" y="591" type="curve" smooth="yes"/>
      <point x="314" y="430" type="line"/>
      <point x="268" y="430" type="line"/>
      <point x="305" y="696" type="line"/>
      <point x="103" y="696" type="line"/>
      <point x="6" y="0" type="line"/>
      <point x="208" y="0" type="line"/>
      <point x="249" y="291" type="line"/>
      <point x="302" y="291" type="line"/>
      <point x="404" y="0" type="line"/>
      <point x="612" y="0" type="line"/>
      <point x="472" y="367" type="line"/>
      <point x="566" y="504" type="line" smooth="yes"/>
      <point x="601" y="555"/>
      <point x="631" y="572"/>
      <point x="682" y="578" type="curve"/>
      <point x="645" y="716" type="line"/>
    </contour>
    <contour>
      <point x="387" y="696" type="move" name="top"/>
    </contour>
    <contour>
      <point x="578" y="0" type="move" name="bottomright"/>
    </contour>
  </outline>
</glyph>
<glyph name="uni041B" format="1">
  <advance width="630"/>
  <unicode hex="041B"/>
  <outline>
    <contour>
      <point x="179" y="696" type="line"/>
      <point x="108" y="413" type="line" smooth="yes"/>
      <point x="45" y="160"/>
      <point x="29" y="148"/>
      <point x="-33" y="130" type="curve"/>
      <point x="-5" y="-20" type="line"/>
      <point x="179" y="4"/>
      <point x="220" y="76"/>
      <point x="300" y="421" type="curve" smooth="yes"/>
      <point x="329" y="544" type="line"/>
      <point x="424" y="544" type="line"/>
      <point x="348" y="0" type="line"/>
      <point x="550" y="0" type="line"/>
      <point x="647" y="696" type="line"/>
    </contour>
  </outline>
</glyph>
<glyph name="uni041F" format="1">
  <advance width="645"/>
  <unicode hex="041F"/>
  <outline>
    <contour>
      <point x="103" y="696" type="line"/>
      <point x="6" y="0" type="line"/>
      <point x="208" y="0" type="line"/>
      <point x="284" y="542" type="line"/>
      <point x="439" y="542" type="line"/>
      <point x="363" y="0" type="line"/>
      <point x="565" y="0" type="line"/>
      <point x="662" y="696" type="line"/>
    </contour>
    <contour>
      <point x="575" y="0" type="move" name="bottomright"/>
    </contour>
  </outline>
</glyph>
<glyph name="uni0423" format="1">
  <advance width="587"/>
  <unicode hex="0423"/>
  <outline>
    <contour>
      <point x="463" y="696" type="line"/>
      <point x="304" y="293" type="line"/>
      <point x="243" y="696" type="line"/>
      <point x="40" y="696" type="line"/>
      <point x="172" y="180" type="line"/>
      <point x="227" y="181" type="line"/>
      <point x="194" y="134"/>
      <point x="150" y="121"/>
      <point x="66" y="115" type="curve"/>
      <point x="75" y="-20" type="line"/>
      <point x="247" y="-9"/>
      <point x="342" y="38"/>
      <point x="432" y="218" type="curve" smooth="yes"/>
      <point x="672" y="696" type="line"/>
    </contour>
    <contour>
      <point x="354" y="696" type="move" name="top"/>
    </contour>
  </outline>
</glyph>
<glyph name="uni0424" format="1">
  <advance width="861"/>
  <unicode hex="0424"/>
  <outline>
    <contour>
      <point x="539" y="537" type="line"/>
      <point x="625" y="534"/>
      <point x="661" y="493"/>
      <point x="661" y="409" type="curve" smooth="yes"/>
      <point x="661" y="317"/>
      <point x="638" y="164"/>
      <point x="484" y="160" type="curve"/>
      <point x="479" y="40" type="line"/>
      <point x="772" y="49"/>
      <point x="865" y="233"/>
      <point x="865" y="406" type="curve" smooth="yes"/>
      <point x="865" y="581"/>
      <point x="739" y="651"/>
      <point x="564" y="656" type="curve"/>
    </contour>
    <contour>
      <point x="112" y="647"/>
      <point x="19" y="464"/>
      <point x="19" y="288" type="curve" smooth="yes"/>
      <point x="19" y="114"/>
      <point x="145" y="45"/>
      <point x="320" y="40" type="curve"/>
      <point x="344" y="159" type="line"/>
      <point x="259" y="162"/>
      <point x="222" y="202"/>
      <point x="222" y="285" type="curve" smooth="yes"/>
      <point x="222" y="379"/>
      <point x="247" y="532"/>
      <point x="399" y="536" type="curve"/>
      <point x="405" y="656" type="line"/>
    </contour>
    <contour>
      <point x="397" y="736" type="line"/>
      <point x="384" y="639" type="line"/>
      <point x="382" y="552" type="line"/>
      <point x="325" y="145" type="line"/>
      <point x="303" y="57" type="line"/>
      <point x="288" y="-44" type="line"/>
      <point x="484" y="-44" type="line"/>
      <point x="499" y="57" type="line"/>
      <point x="501" y="145" type="line"/>
      <point x="558" y="552" type="line"/>
      <point x="580" y="639" type="line"/>
      <point x="593" y="736" type="line"/>
    </contour>
  </outline>
</glyph>
<glyph name="uni0427" format="1">
  <advance width="607"/>
  <unicode hex="0427"/>
  <outline>
    <contour>
      <point x="70" y="696" type="line"/>
      <point x="35" y="452" type="line" smooth="yes"/>
      <point x="14" y="294"/>
      <point x="77" y="195"/>
      <point x="218" y="195" type="curve" smooth="yes"/>
      <point x="280" y="195"/>
      <point x="330" y="214"/>
      <point x="377" y="253" type="curve"/>
      <point x="392" y="380" type="line"/>
      <point x="368" y="356"/>
      <point x="341" y="341"/>
      <point x="296" y="341" type="curve" smooth="yes"/>
      <point x="239" y="341"/>
      <point x="223" y="373"/>
      <point x="233" y="450" type="curve" smooth="yes"/>
      <point x="268" y="696" type="line"/>
    </contour>
    <contour>
      <point x="426" y="696" type="line"/>
      <point x="329" y="0" type="line"/>
      <point x="527" y="0" type="line"/>
      <point x="624" y="696" type="line"/>
    </contour>
    <contour>
      <point x="347" y="696" type="move" name="top"/>
    </contour>
    <contour>
      <point x="537" y="0" type="move" name="bottomright"/>
    </contour>
    <contour>
      <point x="310" y="0" type="move" name="bottomleft"/>
    </contour>
  </outline>
</glyph>
<glyph name="uni0428" format="1">
  <advance width="884"/>
  <unicode hex="0428"/>
  <outline>
    <contour>
      <point x="703" y="696" type="line"/>
      <point x="627" y="158" type="line"/>
      <point x="521" y="158" type="line"/>
      <point x="596" y="696" type="line"/>
      <point x="408" y="696" type="line"/>
      <point x="332" y="158" type="line"/>
      <point x="226" y="158" type="line"/>
      <point x="301" y="696" type="line"/>
      <point x="103" y="696" type="line"/>
      <point x="6" y="0" type="line"/>
      <point x="804" y="0" type="line"/>
      <point x="901" y="696" type="line"/>
    </contour>
    <contour>
      <point x="814" y="0" type="move" name="bottomright"/>
    </contour>
  </outline>
</glyph>
<glyph name="uni042A" format="1">
  <advance width="719"/>
  <unicode hex="042A"/>
  <outline>
    <contour>
      <point x="428" y="696" type="line"/>
      <point x="60" y="696" type="line"/>
      <point x="39" y="546" type="line"/>
      <point x="206" y="546" type="line"/>
    </contour>
    <component base="uni042C" xOffset="124"/>
  </outline>
</glyph>
